%TF.GenerationSoftware,Altium Limited,Altium Designer,25.3.3 (18)*%
G04 Layer_Color=65535*
%FSLAX45Y45*%
%MOMM*%
%TF.SameCoordinates,7852E7E1-4E30-4CDD-8EF1-640B4E54786C*%
%TF.FilePolarity,Positive*%
%TF.FileFunction,Legend,Top*%
%TF.Part,Single*%
G01*
G75*
%TA.AperFunction,NonConductor*%
%ADD105C,0.25000*%
%ADD106C,0.20000*%
%ADD107C,0.50000*%
%ADD108C,0.60000*%
%ADD109C,0.15000*%
%ADD110C,0.12700*%
%ADD111C,0.40000*%
%ADD112C,0.25400*%
G36*
X13475661Y8732196D02*
X13469406D01*
Y8733760D01*
X13475661D01*
Y8732196D01*
D02*
G37*
G36*
X13483476Y8735323D02*
X13489731D01*
Y8733760D01*
X13494421D01*
Y8732196D01*
X13497549D01*
Y8730633D01*
X13500676D01*
Y8729069D01*
X13494421D01*
Y8730633D01*
X13486604D01*
Y8732196D01*
X13481914D01*
Y8735323D01*
X13480350D01*
Y8736887D01*
X13483476D01*
Y8735323D01*
D02*
G37*
G36*
X13538200Y8727506D02*
X13536636D01*
Y8729069D01*
X13538200D01*
Y8727506D01*
D02*
G37*
G36*
X13508493D02*
X13503802D01*
Y8729069D01*
X13508493D01*
Y8727506D01*
D02*
G37*
G36*
X13514748Y8725942D02*
X13513184D01*
Y8727506D01*
X13514748D01*
Y8725942D01*
D02*
G37*
G36*
X13536636D02*
X13538200D01*
Y8724379D01*
X13536636D01*
Y8725942D01*
X13535072D01*
Y8727506D01*
X13536636D01*
Y8725942D01*
D02*
G37*
G36*
X13522565Y8718125D02*
X13521002D01*
Y8719688D01*
X13522565D01*
Y8718125D01*
D02*
G37*
G36*
X13547581Y8716561D02*
X13546017D01*
Y8718125D01*
X13547581D01*
Y8716561D01*
D02*
G37*
G36*
X13488168D02*
X13486604D01*
Y8718125D01*
X13488168D01*
Y8716561D01*
D02*
G37*
G36*
X13430319Y8758776D02*
X13431882D01*
Y8757212D01*
X13433446D01*
Y8755649D01*
X13435008D01*
Y8750958D01*
X13438136D01*
Y8763466D01*
X13439700D01*
Y8758776D01*
X13441263D01*
Y8744704D01*
X13442827D01*
Y8746268D01*
X13444389D01*
Y8747831D01*
X13445953D01*
Y8736887D01*
X13444389D01*
Y8735323D01*
X13447517D01*
Y8738450D01*
X13449081D01*
Y8741577D01*
X13450644D01*
Y8749395D01*
X13452208D01*
Y8754085D01*
X13453770D01*
Y8755649D01*
X13455334D01*
Y8754085D01*
X13456898D01*
Y8750958D01*
X13458463D01*
Y8744704D01*
X13460025D01*
Y8741577D01*
X13461589D01*
Y8738450D01*
X13463152D01*
Y8735323D01*
X13464716D01*
Y8733760D01*
X13466280D01*
Y8732196D01*
X13467844D01*
Y8730633D01*
X13469406D01*
Y8727506D01*
X13470970D01*
Y8722815D01*
X13469406D01*
Y8719688D01*
X13467844D01*
Y8711871D01*
X13469406D01*
Y8714998D01*
X13470970D01*
Y8708744D01*
X13472533D01*
Y8707180D01*
X13474097D01*
Y8704053D01*
X13478787D01*
Y8702490D01*
X13480350D01*
Y8700926D01*
X13481914D01*
Y8705617D01*
X13483476D01*
Y8708744D01*
X13485040D01*
Y8704053D01*
X13488168D01*
Y8705617D01*
X13489731D01*
Y8697799D01*
X13488168D01*
Y8696236D01*
X13491295D01*
Y8699363D01*
X13492857D01*
Y8700926D01*
X13494421D01*
Y8702490D01*
X13495985D01*
Y8704053D01*
X13497549D01*
Y8705617D01*
X13500676D01*
Y8704053D01*
X13503802D01*
Y8702490D01*
X13502238D01*
Y8700926D01*
D01*
D01*
X13505367D01*
Y8704053D01*
X13503802D01*
Y8705617D01*
X13506931D01*
Y8702490D01*
X13508493D01*
Y8700926D01*
X13510057D01*
Y8702490D01*
X13513184D01*
Y8704053D01*
X13514748D01*
Y8702490D01*
X13516312D01*
Y8700926D01*
X13517876D01*
Y8699363D01*
X13516312D01*
Y8697799D01*
X13514748D01*
Y8694672D01*
X13516312D01*
Y8696236D01*
X13519438D01*
Y8694672D01*
X13517876D01*
Y8691545D01*
X13519438D01*
Y8693109D01*
X13521002D01*
Y8696236D01*
X13527255D01*
Y8694672D01*
X13524129D01*
Y8693109D01*
X13522565D01*
Y8691545D01*
X13525693D01*
Y8689982D01*
X13527255D01*
Y8693109D01*
X13528819D01*
Y8691545D01*
X13530383D01*
Y8688418D01*
X13528819D01*
Y8686855D01*
X13531946D01*
Y8683728D01*
X13535072D01*
Y8685291D01*
X13536636D01*
Y8683728D01*
X13538200D01*
Y8685291D01*
X13539764D01*
Y8683728D01*
X13541327D01*
Y8680601D01*
X13539764D01*
Y8679037D01*
X13538200D01*
Y8675910D01*
X13536636D01*
Y8677474D01*
X13535072D01*
Y8674347D01*
X13536636D01*
Y8671220D01*
X13538200D01*
Y8672783D01*
X13542891D01*
Y8674347D01*
X13547581D01*
Y8672783D01*
X13544453D01*
Y8668093D01*
X13542891D01*
Y8664966D01*
X13541327D01*
Y8661839D01*
X13542891D01*
Y8655585D01*
X13544453D01*
Y8650894D01*
X13546017D01*
Y8657148D01*
X13547581D01*
Y8660275D01*
X13549146D01*
Y8652458D01*
X13550708D01*
Y8657148D01*
X13552272D01*
Y8655585D01*
X13553835D01*
Y8654021D01*
X13555399D01*
Y8652458D01*
X13556963D01*
Y8650894D01*
X13560089D01*
Y8652458D01*
X13561653D01*
Y8646204D01*
X13563216D01*
Y8649331D01*
X13567908D01*
Y8647767D01*
X13569470D01*
Y8649331D01*
X13571034D01*
Y8644640D01*
X13574161D01*
Y8635259D01*
X13575723D01*
Y8632132D01*
X13577287D01*
Y8636823D01*
X13575723D01*
Y8638386D01*
X13577287D01*
Y8643077D01*
X13575723D01*
Y8644640D01*
X13574161D01*
Y8649331D01*
X13575723D01*
Y8650894D01*
X13574161D01*
Y8652458D01*
X13575723D01*
Y8654021D01*
X13574161D01*
Y8657148D01*
X13575723D01*
Y8661839D01*
X13577287D01*
Y8657148D01*
X13578851D01*
Y8652458D01*
X13580415D01*
Y8650894D01*
X13581978D01*
Y8647767D01*
X13583542D01*
Y8646204D01*
X13581978D01*
Y8647767D01*
X13580415D01*
Y8638386D01*
X13583542D01*
Y8633696D01*
X13581978D01*
Y8636823D01*
X13580415D01*
Y8633696D01*
X13581978D01*
Y8630569D01*
X13583542D01*
Y8621188D01*
X13581978D01*
Y8616497D01*
X13580415D01*
Y8618061D01*
X13578851D01*
Y8619624D01*
X13577287D01*
Y8622751D01*
X13575723D01*
Y8621188D01*
X13572597D01*
Y8622751D01*
X13569470D01*
Y8624315D01*
X13567908D01*
Y8622751D01*
X13569470D01*
Y8621188D01*
X13572597D01*
Y8619624D01*
Y8618061D01*
X13571034D01*
Y8619624D01*
X13567908D01*
Y8622751D01*
X13566344D01*
Y8624315D01*
X13564780D01*
Y8625878D01*
X13563216D01*
Y8629005D01*
X13561653D01*
Y8632132D01*
X13560089D01*
Y8636823D01*
X13558527D01*
Y8638386D01*
X13556963D01*
Y8635259D01*
X13558527D01*
Y8630569D01*
X13560089D01*
Y8629005D01*
X13558527D01*
Y8630569D01*
X13556963D01*
Y8632132D01*
X13555399D01*
Y8636823D01*
X13550708D01*
Y8635259D01*
X13553835D01*
Y8633696D01*
X13552272D01*
Y8632132D01*
X13553835D01*
Y8629005D01*
X13555399D01*
Y8627442D01*
X13556963D01*
Y8625878D01*
X13560089D01*
Y8624315D01*
X13561653D01*
Y8622751D01*
X13564780D01*
Y8621188D01*
X13566344D01*
Y8619624D01*
X13567908D01*
Y8618061D01*
X13569470D01*
Y8616497D01*
X13567908D01*
Y8618061D01*
X13566344D01*
Y8616497D01*
X13567908D01*
Y8613370D01*
X13566344D01*
Y8611807D01*
X13567908D01*
Y8608680D01*
X13569470D01*
Y8607116D01*
Y8605553D01*
X13567908D01*
Y8607116D01*
X13566344D01*
Y8608680D01*
X13564780D01*
Y8610243D01*
X13566344D01*
Y8611807D01*
X13563216D01*
Y8614934D01*
X13561653D01*
Y8616497D01*
X13560089D01*
Y8618061D01*
X13556963D01*
Y8614934D01*
X13558527D01*
Y8613370D01*
X13561653D01*
Y8611807D01*
X13560089D01*
Y8610243D01*
X13561653D01*
Y8608680D01*
X13560089D01*
Y8610243D01*
X13558527D01*
Y8608680D01*
X13556963D01*
Y8607116D01*
X13560089D01*
Y8605553D01*
X13552272D01*
Y8602426D01*
X13555399D01*
Y8600862D01*
X13556963D01*
Y8599299D01*
X13558527D01*
Y8589918D01*
X13560089D01*
Y8585227D01*
X13558527D01*
Y8586791D01*
X13556963D01*
Y8585227D01*
X13555399D01*
Y8583664D01*
X13553835D01*
Y8582100D01*
X13555399D01*
Y8580537D01*
X13553835D01*
Y8582100D01*
X13552272D01*
Y8580537D01*
X13550708D01*
Y8577410D01*
X13549146D01*
Y8575846D01*
X13550708D01*
Y8574283D01*
X13553835D01*
Y8572719D01*
X13550708D01*
Y8571156D01*
X13552272D01*
Y8569592D01*
X13556963D01*
Y8566465D01*
X13558527D01*
Y8564902D01*
X13556963D01*
Y8563338D01*
X13558527D01*
Y8560211D01*
X13560089D01*
Y8555521D01*
X13561653D01*
Y8550830D01*
X13563216D01*
Y8555521D01*
X13564780D01*
Y8553957D01*
X13566344D01*
Y8557084D01*
X13567908D01*
Y8558648D01*
X13569470D01*
Y8561775D01*
X13571034D01*
Y8563338D01*
X13574161D01*
Y8564902D01*
X13578851D01*
Y8563338D01*
X13575723D01*
Y8560211D01*
X13571034D01*
Y8558648D01*
X13572597D01*
Y8555521D01*
X13571034D01*
Y8553957D01*
X13572597D01*
Y8552394D01*
X13571034D01*
Y8553957D01*
X13567908D01*
Y8549267D01*
X13566344D01*
Y8547704D01*
X13564780D01*
Y8546140D01*
X13566344D01*
Y8544577D01*
X13567908D01*
Y8547704D01*
X13569470D01*
Y8549267D01*
X13571034D01*
Y8547704D01*
X13572597D01*
Y8550830D01*
X13577287D01*
Y8555521D01*
X13578851D01*
Y8558648D01*
X13580415D01*
Y8561775D01*
X13581978D01*
Y8563338D01*
X13585104D01*
Y8560211D01*
X13583542D01*
Y8552394D01*
X13581978D01*
Y8547704D01*
X13583542D01*
Y8549267D01*
X13585104D01*
Y8550830D01*
X13586668D01*
Y8553957D01*
X13589796D01*
Y8555521D01*
X13594485D01*
Y8557084D01*
X13597614D01*
Y8558648D01*
X13599178D01*
Y8553957D01*
X13600740D01*
Y8552394D01*
X13602304D01*
Y8550830D01*
X13599178D01*
Y8552394D01*
X13596049D01*
Y8550830D01*
X13594485D01*
Y8553957D01*
X13592923D01*
Y8552394D01*
X13591359D01*
Y8547704D01*
X13589796D01*
Y8544577D01*
X13588232D01*
Y8543013D01*
X13585104D01*
Y8541450D01*
X13583542D01*
Y8538323D01*
X13585104D01*
Y8536759D01*
X13583542D01*
Y8538323D01*
X13581978D01*
Y8536759D01*
X13583542D01*
Y8533632D01*
X13580415D01*
Y8532069D01*
X13578851D01*
Y8528942D01*
X13577287D01*
Y8525815D01*
X13578851D01*
Y8524251D01*
D01*
D01*
X13580415D01*
Y8521124D01*
X13578851D01*
Y8517997D01*
X13577287D01*
Y8516434D01*
X13578851D01*
Y8514870D01*
Y8513307D01*
Y8511743D01*
X13577287D01*
Y8516434D01*
X13575723D01*
Y8513307D01*
X13572597D01*
Y8508616D01*
X13569470D01*
Y8507053D01*
X13567908D01*
Y8505489D01*
X13566344D01*
Y8503926D01*
X13564780D01*
Y8500799D01*
X13563216D01*
Y8499235D01*
X13561653D01*
Y8505489D01*
X13563216D01*
Y8513307D01*
X13561653D01*
Y8511743D01*
X13560089D01*
Y8508616D01*
X13556963D01*
Y8511743D01*
X13555399D01*
Y8510180D01*
X13553835D01*
Y8513307D01*
X13552272D01*
Y8511743D01*
X13550708D01*
Y8510180D01*
X13547581D01*
Y8508616D01*
X13546017D01*
Y8500799D01*
X13544453D01*
Y8497672D01*
X13546017D01*
Y8496108D01*
X13544453D01*
Y8492981D01*
X13542891D01*
Y8494544D01*
X13541327D01*
Y8492981D01*
X13539764D01*
Y8488290D01*
X13541327D01*
Y8489854D01*
X13542891D01*
Y8485163D01*
X13541327D01*
Y8482036D01*
X13542891D01*
Y8483600D01*
X13544453D01*
Y8480473D01*
X13546017D01*
Y8483600D01*
X13547581D01*
Y8482036D01*
X13549146D01*
Y8485163D01*
X13553835D01*
Y8486727D01*
X13555399D01*
Y8488290D01*
X13558527D01*
Y8489854D01*
X13560089D01*
Y8492981D01*
X13561653D01*
Y8491417D01*
X13563216D01*
Y8489854D01*
X13566344D01*
Y8492981D01*
X13569470D01*
Y8489854D01*
X13571034D01*
Y8486727D01*
X13574161D01*
Y8483600D01*
X13575723D01*
Y8482036D01*
X13578851D01*
Y8480473D01*
X13580415D01*
Y8485163D01*
X13578851D01*
Y8486727D01*
X13577287D01*
Y8488290D01*
X13575723D01*
Y8486727D01*
X13577287D01*
Y8485163D01*
X13578851D01*
Y8483600D01*
X13575723D01*
Y8486727D01*
X13574161D01*
Y8488290D01*
X13572597D01*
Y8489854D01*
X13571034D01*
Y8491417D01*
X13572597D01*
Y8492981D01*
X13571034D01*
Y8494544D01*
X13569470D01*
Y8496108D01*
X13567908D01*
Y8499235D01*
X13566344D01*
Y8500799D01*
X13567908D01*
Y8503926D01*
X13569470D01*
Y8502362D01*
X13571034D01*
Y8500799D01*
X13572597D01*
Y8499235D01*
X13575723D01*
Y8500799D01*
X13574161D01*
Y8502362D01*
X13575723D01*
Y8500799D01*
X13577287D01*
Y8503926D01*
X13575723D01*
Y8505489D01*
X13577287D01*
Y8503926D01*
X13578851D01*
Y8505489D01*
X13577287D01*
Y8508616D01*
X13578851D01*
Y8510180D01*
X13580415D01*
Y8507053D01*
X13583542D01*
Y8508616D01*
X13585104D01*
Y8510180D01*
X13581978D01*
Y8511743D01*
X13583542D01*
Y8513307D01*
X13585104D01*
Y8510180D01*
X13586668D01*
Y8511743D01*
X13589796D01*
Y8510180D01*
X13588232D01*
Y8508616D01*
X13591359D01*
Y8511743D01*
X13589796D01*
Y8513307D01*
Y8514870D01*
X13591359D01*
Y8511743D01*
X13592923D01*
Y8508616D01*
X13594485D01*
Y8505489D01*
X13592923D01*
Y8503926D01*
X13591359D01*
Y8499235D01*
X13592923D01*
Y8500799D01*
X13594485D01*
Y8503926D01*
X13597614D01*
Y8500799D01*
X13599178D01*
Y8499235D01*
X13597614D01*
Y8500799D01*
X13596049D01*
Y8499235D01*
X13594485D01*
Y8497672D01*
X13592923D01*
Y8496108D01*
X13591359D01*
Y8494544D01*
X13594485D01*
Y8492981D01*
X13596049D01*
Y8491417D01*
X13594485D01*
Y8488290D01*
X13592923D01*
Y8486727D01*
X13591359D01*
Y8485163D01*
X13594485D01*
Y8486727D01*
X13596049D01*
Y8485163D01*
X13599178D01*
Y8483600D01*
X13600740D01*
Y8482036D01*
X13599178D01*
Y8483600D01*
X13597614D01*
Y8482036D01*
X13599178D01*
Y8478909D01*
X13603867D01*
Y8477346D01*
X13605431D01*
Y8472655D01*
X13600740D01*
Y8471092D01*
X13597614D01*
Y8469528D01*
X13596049D01*
Y8467965D01*
X13597614D01*
Y8466401D01*
X13599178D01*
Y8467965D01*
X13600740D01*
Y8469528D01*
X13603867D01*
Y8467965D01*
X13606995D01*
Y8466401D01*
X13603867D01*
Y8467965D01*
X13602304D01*
Y8466401D01*
X13600740D01*
Y8464838D01*
X13599178D01*
Y8461711D01*
X13600740D01*
Y8458584D01*
X13599178D01*
Y8461711D01*
X13596049D01*
Y8463274D01*
X13597614D01*
Y8464838D01*
X13592923D01*
Y8463274D01*
X13591359D01*
Y8464838D01*
X13589796D01*
Y8463274D01*
X13591359D01*
Y8461711D01*
X13589796D01*
Y8460147D01*
X13592923D01*
Y8458584D01*
X13591359D01*
Y8457020D01*
X13589796D01*
Y8460147D01*
X13583542D01*
Y8464838D01*
X13581978D01*
Y8467965D01*
X13583542D01*
Y8466401D01*
X13588232D01*
Y8467965D01*
X13586668D01*
Y8469528D01*
X13583542D01*
Y8471092D01*
X13585104D01*
Y8472655D01*
X13586668D01*
Y8474219D01*
X13585104D01*
Y8475782D01*
X13583542D01*
Y8477346D01*
X13581978D01*
Y8475782D01*
X13580415D01*
Y8474219D01*
X13578851D01*
Y8477346D01*
X13577287D01*
Y8480473D01*
X13575723D01*
Y8478909D01*
X13574161D01*
Y8477346D01*
X13577287D01*
Y8474219D01*
X13578851D01*
Y8472655D01*
X13577287D01*
Y8474219D01*
X13575723D01*
Y8471092D01*
X13574161D01*
Y8469528D01*
X13572597D01*
Y8461711D01*
X13571034D01*
Y8460147D01*
X13572597D01*
Y8452330D01*
X13574161D01*
Y8450766D01*
X13571034D01*
Y8449203D01*
X13572597D01*
Y8447639D01*
X13571034D01*
Y8446076D01*
X13572597D01*
Y8442949D01*
X13571034D01*
Y8441385D01*
X13574161D01*
Y8442949D01*
X13575723D01*
Y8438258D01*
X13580415D01*
Y8436695D01*
X13585104D01*
Y8438258D01*
X13588232D01*
Y8436695D01*
X13589796D01*
Y8438258D01*
X13591359D01*
Y8439822D01*
X13594485D01*
Y8441385D01*
X13596049D01*
Y8439822D01*
X13597614D01*
Y8438258D01*
X13599178D01*
Y8436695D01*
X13597614D01*
Y8435131D01*
X13599178D01*
Y8433568D01*
X13597614D01*
Y8435131D01*
X13596049D01*
Y8433568D01*
X13592923D01*
Y8432004D01*
X13594485D01*
Y8430441D01*
X13596049D01*
Y8428877D01*
X13592923D01*
Y8427314D01*
X13591359D01*
Y8424187D01*
X13592923D01*
Y8419496D01*
X13591359D01*
Y8417933D01*
X13594485D01*
Y8416370D01*
X13596049D01*
Y8411679D01*
X13597614D01*
Y8408552D01*
X13596049D01*
Y8402298D01*
X13594485D01*
Y8399171D01*
X13592923D01*
Y8396044D01*
X13591359D01*
Y8392917D01*
X13589796D01*
Y8389790D01*
X13588232D01*
Y8386663D01*
X13586668D01*
Y8383536D01*
X13585104D01*
Y8381973D01*
X13583542D01*
Y8378846D01*
X13581978D01*
Y8375719D01*
X13580415D01*
Y8372592D01*
X13578851D01*
Y8371028D01*
X13577287D01*
Y8367901D01*
X13575723D01*
Y8364774D01*
X13574161D01*
Y8363211D01*
X13572597D01*
Y8360084D01*
X13571034D01*
Y8356957D01*
X13569470D01*
Y8353830D01*
X13567908D01*
Y8350703D01*
X13566344D01*
Y8347576D01*
X13564780D01*
Y8342885D01*
X13563216D01*
Y8339758D01*
X13561653D01*
Y8338195D01*
X13560089D01*
Y8335068D01*
X13558527D01*
Y8333504D01*
X13556963D01*
Y8331941D01*
X13555399D01*
Y8330377D01*
X13553835D01*
Y8328814D01*
X13550708D01*
Y8327250D01*
X13549146D01*
Y8325687D01*
X13547581D01*
Y8322560D01*
X13544453D01*
Y8319433D01*
X13546017D01*
Y8317869D01*
X13547581D01*
Y8319433D01*
X13549146D01*
Y8320996D01*
X13550708D01*
Y8322560D01*
X13552272D01*
Y8325687D01*
X13553835D01*
Y8327250D01*
X13555399D01*
Y8324123D01*
X13553835D01*
Y8320996D01*
X13552272D01*
Y8317869D01*
X13550708D01*
Y8313179D01*
X13549146D01*
Y8310052D01*
X13547581D01*
Y8306925D01*
X13546017D01*
Y8303798D01*
X13544453D01*
Y8300671D01*
X13542891D01*
Y8297544D01*
X13541327D01*
Y8294417D01*
X13539764D01*
Y8291290D01*
X13538200D01*
Y8288162D01*
X13536636D01*
Y8285035D01*
X13535072D01*
Y8281909D01*
X13533510D01*
Y8278782D01*
X13531946D01*
Y8275655D01*
X13530383D01*
Y8272528D01*
X13528819D01*
Y8269401D01*
X13527255D01*
Y8266274D01*
X13525693D01*
Y8261583D01*
X13524129D01*
Y8258456D01*
X13522565D01*
Y8255329D01*
X13521002D01*
Y8252202D01*
X13519438D01*
Y8249075D01*
X13517876D01*
Y8245948D01*
X13516312D01*
Y8242821D01*
X13514748D01*
Y8239694D01*
X13513184D01*
Y8235004D01*
X13511620D01*
Y8231877D01*
X13510057D01*
Y8227186D01*
X13508493D01*
Y8224059D01*
X13506931D01*
Y8220932D01*
X13505367D01*
Y8217805D01*
X13503802D01*
Y8214678D01*
X13502238D01*
Y8211551D01*
X13500676D01*
Y8206861D01*
X13499112D01*
Y8203734D01*
X13497549D01*
Y8200607D01*
X13495985D01*
Y8197480D01*
X13494421D01*
Y8194353D01*
X13492857D01*
Y8191226D01*
X13491295D01*
Y8188099D01*
X13489731D01*
Y8184972D01*
X13488168D01*
Y8181845D01*
X13486604D01*
Y8178718D01*
X13485040D01*
Y8175591D01*
X13483476D01*
Y8172464D01*
X13481914D01*
Y8169337D01*
X13480350D01*
Y8166210D01*
X13478787D01*
Y8163083D01*
X13477223D01*
Y8159956D01*
X13475661D01*
Y8156829D01*
X13474097D01*
Y8153702D01*
X13472533D01*
Y8150575D01*
X13470970D01*
Y8147448D01*
X13469406D01*
Y8156829D01*
X13470970D01*
Y8158392D01*
X13469406D01*
Y8159956D01*
X13470970D01*
Y8172464D01*
X13472533D01*
Y8180281D01*
X13474097D01*
Y8186535D01*
X13475661D01*
Y8191226D01*
X13477223D01*
Y8197480D01*
X13478787D01*
Y8205297D01*
X13480350D01*
Y8211551D01*
X13481914D01*
Y8217805D01*
X13483476D01*
Y8224059D01*
X13485040D01*
Y8231877D01*
X13486604D01*
Y8236567D01*
X13488168D01*
Y8242821D01*
X13489731D01*
Y8250639D01*
X13491295D01*
Y8258456D01*
X13489731D01*
Y8266274D01*
X13491295D01*
Y8270964D01*
X13492857D01*
Y8281909D01*
X13491295D01*
Y8283472D01*
X13492857D01*
Y8286599D01*
X13491295D01*
Y8291290D01*
X13489731D01*
Y8297544D01*
X13488168D01*
Y8300671D01*
X13486604D01*
Y8313179D01*
X13481914D01*
Y8314742D01*
X13486604D01*
Y8316306D01*
X13488168D01*
Y8317869D01*
X13489731D01*
Y8320996D01*
X13492857D01*
Y8324123D01*
X13491295D01*
Y8327250D01*
X13488168D01*
Y8328814D01*
X13489731D01*
Y8335068D01*
X13488168D01*
Y8341322D01*
X13489731D01*
Y8342885D01*
X13488168D01*
Y8344449D01*
X13486604D01*
Y8349139D01*
X13485040D01*
Y8352266D01*
X13483476D01*
Y8355393D01*
X13481914D01*
Y8356957D01*
X13480350D01*
Y8358520D01*
X13478787D01*
Y8355393D01*
X13477223D01*
Y8360084D01*
X13469406D01*
Y8361647D01*
X13466280D01*
Y8360084D01*
X13469406D01*
Y8358520D01*
X13472533D01*
Y8356957D01*
X13469406D01*
Y8358520D01*
X13466280D01*
Y8360084D01*
X13455334D01*
Y8358520D01*
X13453770D01*
Y8356957D01*
X13450644D01*
Y8355393D01*
X13449081D01*
Y8353830D01*
X13447517D01*
Y8352266D01*
X13445953D01*
Y8350703D01*
X13444389D01*
Y8349139D01*
X13442827D01*
Y8346012D01*
X13441263D01*
Y8344449D01*
X13442827D01*
Y8342885D01*
X13445953D01*
Y8341322D01*
X13449081D01*
Y8339758D01*
X13452208D01*
Y8325687D01*
X13450644D01*
Y8316306D01*
X13449081D01*
Y8314742D01*
X13447517D01*
Y8306925D01*
X13445953D01*
Y8305361D01*
X13447517D01*
Y8302234D01*
X13445953D01*
Y8300671D01*
X13444389D01*
Y8294417D01*
X13442827D01*
Y8292853D01*
X13441263D01*
Y8289726D01*
X13442827D01*
Y8288162D01*
X13441263D01*
Y8285035D01*
X13439700D01*
Y8280345D01*
X13438136D01*
Y8277218D01*
X13436572D01*
Y8270964D01*
X13435008D01*
Y8269401D01*
X13433446D01*
Y8261583D01*
X13431882D01*
Y8260020D01*
X13430319D01*
Y8258456D01*
X13431882D01*
Y8253766D01*
X13430319D01*
Y8252202D01*
X13428755D01*
Y8249075D01*
X13430319D01*
Y8245948D01*
X13428755D01*
Y8236567D01*
X13427193D01*
Y8228750D01*
X13425629D01*
Y8222496D01*
X13424065D01*
Y8220932D01*
X13422501D01*
Y8213115D01*
X13420938D01*
Y8211551D01*
X13419374D01*
Y8205297D01*
X13417812D01*
Y8199043D01*
X13416248D01*
Y8197480D01*
X13414684D01*
Y8191226D01*
X13413120D01*
Y8189662D01*
X13411557D01*
Y8183408D01*
X13409993D01*
Y8180281D01*
X13408430D01*
Y8178718D01*
X13409993D01*
Y8175591D01*
X13408430D01*
Y8172464D01*
X13406866D01*
Y8164646D01*
X13405302D01*
Y8155265D01*
X13402176D01*
Y8178718D01*
X13403738D01*
Y8205297D01*
X13405302D01*
Y8233440D01*
X13406866D01*
Y8250639D01*
X13408430D01*
Y8266274D01*
X13409993D01*
Y8278782D01*
X13411557D01*
Y8288162D01*
X13413120D01*
Y8300671D01*
X13414684D01*
Y8369465D01*
X13416248D01*
Y8371028D01*
X13414684D01*
Y8372592D01*
X13416248D01*
Y8394481D01*
X13417812D01*
Y8399171D01*
X13419374D01*
Y8402298D01*
X13420938D01*
Y8403862D01*
X13422501D01*
Y8411679D01*
X13420938D01*
Y8427314D01*
X13419374D01*
Y8435131D01*
X13417812D01*
Y8436695D01*
X13416248D01*
Y8439822D01*
X13413120D01*
Y8441385D01*
X13409993D01*
Y8439822D01*
X13408430D01*
Y8441385D01*
X13406866D01*
Y8446076D01*
X13405302D01*
Y8447639D01*
X13403738D01*
Y8449203D01*
X13402176D01*
Y8452330D01*
X13400612D01*
Y8453893D01*
X13399049D01*
Y8455457D01*
X13397485D01*
Y8458584D01*
X13395921D01*
Y8460147D01*
X13394357D01*
Y8461711D01*
X13392795D01*
Y8466401D01*
X13391231D01*
Y8471092D01*
X13389668D01*
Y8475782D01*
X13384978D01*
Y8474219D01*
X13383414D01*
Y8472655D01*
X13384978D01*
Y8471092D01*
X13383414D01*
Y8472655D01*
X13377161D01*
Y8474219D01*
X13375597D01*
Y8475782D01*
X13372469D01*
Y8477346D01*
X13370906D01*
Y8475782D01*
X13372469D01*
Y8472655D01*
X13375597D01*
Y8471092D01*
X13380287D01*
Y8467965D01*
X13381850D01*
Y8464838D01*
X13377161D01*
Y8463274D01*
X13372469D01*
Y8464838D01*
X13369342D01*
Y8469528D01*
X13364651D01*
Y8471092D01*
X13367780D01*
Y8472655D01*
X13366216D01*
Y8478909D01*
X13364651D01*
Y8488290D01*
X13356834D01*
Y8486727D01*
X13353706D01*
Y8488290D01*
X13355270D01*
Y8489854D01*
X13356834D01*
Y8491417D01*
X13358398D01*
Y8492981D01*
X13359961D01*
Y8494544D01*
X13361525D01*
Y8496108D01*
X13359961D01*
Y8497672D01*
X13361525D01*
Y8499235D01*
X13359961D01*
Y8502362D01*
X13361525D01*
Y8505489D01*
X13363087D01*
Y8513307D01*
X13361525D01*
Y8511743D01*
X13359961D01*
Y8516434D01*
X13363087D01*
Y8517997D01*
X13361525D01*
Y8519561D01*
X13363087D01*
Y8517997D01*
X13364651D01*
Y8521124D01*
X13366216D01*
Y8522688D01*
X13367780D01*
Y8525815D01*
X13369342D01*
Y8532069D01*
X13367780D01*
Y8527378D01*
X13366216D01*
Y8535196D01*
X13364651D01*
Y8536759D01*
X13363087D01*
Y8539886D01*
X13364651D01*
Y8536759D01*
X13366216D01*
Y8535196D01*
X13367780D01*
Y8538323D01*
X13366216D01*
Y8539886D01*
X13364651D01*
Y8541450D01*
X13366216D01*
Y8539886D01*
X13367780D01*
Y8544577D01*
X13369342D01*
Y8547704D01*
X13367780D01*
Y8549267D01*
X13369342D01*
Y8550830D01*
X13370906D01*
Y8552394D01*
X13374033D01*
Y8558648D01*
X13375597D01*
Y8566465D01*
X13374033D01*
Y8569592D01*
X13372469D01*
Y8572719D01*
X13370906D01*
Y8588354D01*
X13372469D01*
Y8597735D01*
X13374033D01*
Y8602426D01*
X13375597D01*
Y8603989D01*
X13377161D01*
Y8605553D01*
X13380287D01*
Y8608680D01*
X13381850D01*
Y8610243D01*
X13380287D01*
Y8611807D01*
X13381850D01*
Y8610243D01*
X13383414D01*
Y8608680D01*
X13384978D01*
Y8611807D01*
X13383414D01*
Y8613370D01*
X13381850D01*
Y8616497D01*
X13383414D01*
Y8619624D01*
X13381850D01*
Y8618061D01*
X13378723D01*
Y8619624D01*
X13377161D01*
Y8621188D01*
X13375597D01*
Y8622751D01*
X13377161D01*
Y8624315D01*
X13375597D01*
Y8625878D01*
X13369342D01*
Y8629005D01*
X13367780D01*
Y8632132D01*
X13369342D01*
Y8630569D01*
X13370906D01*
Y8629005D01*
X13372469D01*
Y8630569D01*
X13370906D01*
Y8633696D01*
X13372469D01*
Y8635259D01*
X13370906D01*
Y8636823D01*
X13372469D01*
Y8635259D01*
X13374033D01*
Y8636823D01*
X13372469D01*
Y8638386D01*
Y8639950D01*
X13374033D01*
Y8636823D01*
X13375597D01*
Y8633696D01*
X13374033D01*
Y8632132D01*
X13375597D01*
Y8630569D01*
X13378723D01*
Y8627442D01*
X13380287D01*
Y8630569D01*
X13378723D01*
Y8632132D01*
X13377161D01*
Y8644640D01*
X13380287D01*
Y8646204D01*
X13383414D01*
Y8644640D01*
X13384978D01*
Y8649331D01*
X13383414D01*
Y8652458D01*
X13384978D01*
Y8655585D01*
X13383414D01*
Y8658712D01*
X13384978D01*
Y8660275D01*
X13386542D01*
Y8661839D01*
X13388104D01*
Y8663402D01*
X13391231D01*
Y8664966D01*
X13392795D01*
Y8668093D01*
X13395921D01*
Y8672783D01*
X13397485D01*
Y8677474D01*
X13395921D01*
Y8679037D01*
Y8680601D01*
X13394357D01*
Y8686855D01*
X13392795D01*
Y8694672D01*
X13399049D01*
Y8693109D01*
X13397485D01*
Y8691545D01*
X13399049D01*
Y8688418D01*
X13397485D01*
Y8685291D01*
X13400612D01*
Y8683728D01*
X13403738D01*
Y8682164D01*
X13405302D01*
Y8685291D01*
X13406866D01*
Y8689982D01*
X13408430D01*
Y8677474D01*
X13405302D01*
Y8674347D01*
X13403738D01*
Y8672783D01*
X13406866D01*
Y8674347D01*
X13408430D01*
Y8675910D01*
X13409993D01*
Y8680601D01*
X13411557D01*
Y8683728D01*
X13414684D01*
Y8685291D01*
X13417812D01*
Y8691545D01*
X13413120D01*
Y8694672D01*
X13411557D01*
Y8696236D01*
X13413120D01*
Y8694672D01*
X13417812D01*
Y8691545D01*
X13420938D01*
Y8694672D01*
X13419374D01*
Y8704053D01*
X13420938D01*
Y8708744D01*
X13422501D01*
Y8711871D01*
X13424065D01*
Y8714998D01*
X13425629D01*
Y8716561D01*
X13424065D01*
Y8718125D01*
X13425629D01*
Y8716561D01*
X13427193D01*
Y8718125D01*
X13425629D01*
Y8719688D01*
X13428755D01*
Y8727506D01*
X13430319D01*
Y8758776D01*
X13428755D01*
Y8765030D01*
X13430319D01*
Y8758776D01*
D02*
G37*
G36*
X13474097Y8714998D02*
X13472533D01*
Y8716561D01*
X13474097D01*
Y8714998D01*
D02*
G37*
G36*
X13535072Y8708744D02*
X13533510D01*
Y8710307D01*
X13535072D01*
Y8708744D01*
D02*
G37*
G36*
X13480350Y8705617D02*
X13478787D01*
Y8707180D01*
X13480350D01*
Y8705617D01*
D02*
G37*
G36*
X13506931Y8711871D02*
X13513184D01*
Y8710307D01*
X13514748D01*
Y8711871D01*
X13516312D01*
Y8710307D01*
X13524129D01*
Y8711871D01*
X13527255D01*
Y8708744D01*
X13530383D01*
Y8707180D01*
X13525693D01*
Y8705617D01*
X13524129D01*
Y8704053D01*
X13522565D01*
Y8702490D01*
X13521002D01*
Y8705617D01*
X13522565D01*
Y8707180D01*
X13513184D01*
Y8708744D01*
X13511620D01*
Y8710307D01*
X13506931D01*
Y8711871D01*
X13503802D01*
Y8713434D01*
X13506931D01*
Y8711871D01*
D02*
G37*
G36*
X13575723Y8700926D02*
X13574161D01*
Y8702490D01*
X13575723D01*
Y8700926D01*
D02*
G37*
G36*
X13524129Y8697799D02*
X13522565D01*
Y8699363D01*
X13524129D01*
Y8697799D01*
D02*
G37*
G36*
X13558527Y8696236D02*
X13556963D01*
Y8697799D01*
X13558527D01*
Y8696236D01*
D02*
G37*
G36*
X13397485D02*
X13395921D01*
Y8697799D01*
X13397485D01*
Y8696236D01*
D02*
G37*
G36*
X13588232Y8694672D02*
X13586668D01*
Y8696236D01*
X13588232D01*
Y8694672D01*
D02*
G37*
G36*
X13408430D02*
X13406866D01*
Y8696236D01*
X13408430D01*
Y8694672D01*
D02*
G37*
G36*
X13553835Y8696236D02*
X13556963D01*
Y8694672D01*
X13558527D01*
Y8693109D01*
X13553835D01*
Y8696236D01*
X13550708D01*
Y8697799D01*
X13553835D01*
Y8696236D01*
D02*
G37*
G36*
X13530383D02*
X13531946D01*
Y8693109D01*
X13528819D01*
Y8694672D01*
X13530383D01*
Y8696236D01*
X13528819D01*
Y8699363D01*
X13530383D01*
Y8696236D01*
D02*
G37*
G36*
X13585104Y8691545D02*
X13583542D01*
Y8693109D01*
X13585104D01*
Y8691545D01*
D02*
G37*
G36*
X13583542Y8686855D02*
X13581978D01*
Y8688418D01*
X13583542D01*
Y8686855D01*
D02*
G37*
G36*
X13391231D02*
Y8685291D01*
X13389668D01*
Y8688418D01*
X13391231D01*
Y8686855D01*
D02*
G37*
G36*
X13614812Y8680601D02*
X13613248D01*
Y8682164D01*
X13614812D01*
Y8680601D01*
D02*
G37*
G36*
X13391231Y8679037D02*
X13388104D01*
Y8680601D01*
X13391231D01*
Y8679037D01*
D02*
G37*
G36*
X13580415Y8677474D02*
X13578851D01*
Y8679037D01*
X13580415D01*
Y8677474D01*
D02*
G37*
G36*
X13571034Y8675910D02*
X13569470D01*
Y8677474D01*
X13571034D01*
Y8675910D01*
D02*
G37*
G36*
X13560089D02*
X13558527D01*
Y8679037D01*
X13560089D01*
Y8675910D01*
D02*
G37*
G36*
X13583542Y8674347D02*
X13585104D01*
Y8672783D01*
X13583542D01*
Y8674347D01*
X13581978D01*
Y8675910D01*
X13583542D01*
Y8674347D01*
D02*
G37*
G36*
X13591359Y8671220D02*
X13589796D01*
Y8674347D01*
X13591359D01*
Y8671220D01*
D02*
G37*
G36*
X13567908Y8669656D02*
X13566344D01*
Y8671220D01*
X13567908D01*
Y8669656D01*
D02*
G37*
G36*
X13560089D02*
X13558527D01*
Y8671220D01*
X13560089D01*
Y8669656D01*
D02*
G37*
G36*
X13556963D02*
X13555399D01*
Y8671220D01*
X13556963D01*
Y8669656D01*
D02*
G37*
G36*
X13580415Y8668093D02*
X13578851D01*
Y8669656D01*
X13580415D01*
Y8668093D01*
D02*
G37*
G36*
X13566344D02*
X13564780D01*
Y8669656D01*
X13566344D01*
Y8668093D01*
D02*
G37*
G36*
X13549146D02*
X13547581D01*
Y8669656D01*
X13549146D01*
Y8668093D01*
D02*
G37*
G36*
X13575723Y8666529D02*
X13574161D01*
Y8668093D01*
X13575723D01*
Y8666529D01*
D02*
G37*
G36*
X13560089D02*
X13558527D01*
Y8668093D01*
X13560089D01*
Y8666529D01*
D02*
G37*
G36*
X13547581D02*
X13546017D01*
Y8668093D01*
X13547581D01*
Y8666529D01*
D02*
G37*
G36*
X13575723Y8663402D02*
X13574161D01*
Y8664966D01*
X13575723D01*
Y8663402D01*
D02*
G37*
G36*
X13546017D02*
X13544453D01*
Y8664966D01*
Y8666529D01*
X13546017D01*
Y8663402D01*
D02*
G37*
G36*
X13591359Y8661839D02*
X13589796D01*
Y8663402D01*
X13591359D01*
Y8661839D01*
D02*
G37*
G36*
X13572597Y8660275D02*
X13571034D01*
Y8661839D01*
X13572597D01*
Y8660275D01*
D02*
G37*
G36*
X13564780Y8664966D02*
X13566344D01*
Y8663402D01*
X13564780D01*
Y8660275D01*
X13563216D01*
Y8661839D01*
X13561653D01*
Y8664966D01*
X13563216D01*
Y8666529D01*
X13564780D01*
Y8664966D01*
D02*
G37*
G36*
X13581978Y8658712D02*
X13580415D01*
Y8660275D01*
X13581978D01*
Y8658712D01*
D02*
G37*
G36*
X13553835Y8657148D02*
X13552272D01*
Y8658712D01*
X13553835D01*
Y8657148D01*
D02*
G37*
G36*
X13569470Y8654021D02*
X13567908D01*
Y8655585D01*
X13569470D01*
Y8654021D01*
D02*
G37*
G36*
X13600740Y8652458D02*
X13599178D01*
Y8654021D01*
X13600740D01*
Y8652458D01*
D02*
G37*
G36*
X13597614D02*
X13596049D01*
Y8650894D01*
X13594485D01*
Y8652458D01*
Y8654021D01*
X13597614D01*
Y8652458D01*
D02*
G37*
G36*
X13599178Y8649331D02*
X13597614D01*
Y8650894D01*
X13599178D01*
Y8649331D01*
D02*
G37*
G36*
X13597614Y8647767D02*
X13599178D01*
Y8646204D01*
X13597614D01*
Y8647767D01*
X13596049D01*
Y8649331D01*
X13597614D01*
Y8647767D01*
D02*
G37*
G36*
X13596049Y8644640D02*
X13594485D01*
Y8646204D01*
X13596049D01*
Y8644640D01*
D02*
G37*
G36*
X13586668Y8643077D02*
X13585104D01*
Y8644640D01*
X13586668D01*
Y8643077D01*
D02*
G37*
G36*
X13372469Y8641513D02*
X13370906D01*
Y8643077D01*
X13372469D01*
Y8641513D01*
D02*
G37*
G36*
X13617938Y8639950D02*
X13616376D01*
Y8641513D01*
X13617938D01*
Y8639950D01*
D02*
G37*
G36*
X13614812D02*
X13613248D01*
Y8641513D01*
X13614812D01*
Y8639950D01*
D02*
G37*
G36*
X13611684D02*
X13610121D01*
Y8643077D01*
X13611684D01*
Y8639950D01*
D02*
G37*
G36*
X13635136Y8638386D02*
X13633572D01*
Y8639950D01*
X13635136D01*
Y8638386D01*
D02*
G37*
G36*
X13616376Y8636823D02*
X13619502D01*
Y8635259D01*
X13613248D01*
Y8636823D01*
X13610121D01*
Y8638386D01*
X13616376D01*
Y8636823D01*
D02*
G37*
G36*
X13597614Y8639950D02*
X13596049D01*
Y8635259D01*
X13592923D01*
Y8636823D01*
X13594485D01*
Y8641513D01*
X13596049D01*
Y8643077D01*
X13597614D01*
Y8639950D01*
D02*
G37*
G36*
X13632010Y8655585D02*
X13633572D01*
Y8654021D01*
X13636700D01*
Y8650894D01*
X13639827D01*
Y8647767D01*
X13641391D01*
Y8644640D01*
X13644518D01*
Y8638386D01*
X13646082D01*
Y8636823D01*
Y8635259D01*
X13647646D01*
Y8633696D01*
X13644518D01*
Y8635259D01*
X13642953D01*
Y8641513D01*
X13641391D01*
Y8644640D01*
X13639827D01*
Y8646204D01*
X13638264D01*
Y8647767D01*
Y8649331D01*
X13636700D01*
Y8650894D01*
X13635136D01*
Y8652458D01*
X13633572D01*
Y8654021D01*
X13632010D01*
Y8655585D01*
X13630446D01*
Y8657148D01*
X13632010D01*
Y8655585D01*
D02*
G37*
G36*
X13635136Y8633696D02*
X13633572D01*
Y8635259D01*
X13635136D01*
Y8633696D01*
D02*
G37*
G36*
X13628883Y8639950D02*
X13632010D01*
Y8633696D01*
X13628883D01*
Y8636823D01*
X13627319D01*
Y8638386D01*
Y8643077D01*
X13628883D01*
Y8639950D01*
D02*
G37*
G36*
X13627319Y8633696D02*
X13625755D01*
Y8635259D01*
X13627319D01*
Y8633696D01*
D02*
G37*
G36*
X13625755Y8632132D02*
X13624191D01*
Y8633696D01*
X13625755D01*
Y8632132D01*
D02*
G37*
G36*
X13621065D02*
X13619502D01*
Y8633696D01*
X13621065D01*
Y8632132D01*
D02*
G37*
G36*
X13596049D02*
X13594485D01*
Y8633696D01*
X13596049D01*
Y8632132D01*
D02*
G37*
G36*
X13632010Y8630569D02*
X13630446D01*
Y8632132D01*
X13632010D01*
Y8630569D01*
D02*
G37*
G36*
X13617938D02*
X13616376D01*
Y8629005D01*
X13614812D01*
Y8632132D01*
X13617938D01*
Y8630569D01*
D02*
G37*
G36*
X13630446Y8627442D02*
X13628883D01*
Y8630569D01*
X13630446D01*
Y8627442D01*
D02*
G37*
G36*
X13596049Y8629005D02*
Y8627442D01*
X13594485D01*
Y8630569D01*
X13596049D01*
Y8629005D01*
D02*
G37*
G36*
X13647646Y8624315D02*
X13646082D01*
Y8627442D01*
X13647646D01*
Y8624315D01*
D02*
G37*
G36*
X13639827D02*
X13638264D01*
Y8625878D01*
X13639827D01*
Y8624315D01*
D02*
G37*
G36*
X13599178Y8632132D02*
X13600740D01*
Y8627442D01*
Y8625878D01*
Y8624315D01*
X13599178D01*
Y8632132D01*
X13597614D01*
Y8636823D01*
X13599178D01*
Y8632132D01*
D02*
G37*
G36*
X13644518Y8630569D02*
X13646082D01*
Y8629005D01*
X13644518D01*
Y8627442D01*
X13642953D01*
Y8625878D01*
X13644518D01*
Y8622751D01*
X13642953D01*
Y8625878D01*
X13641391D01*
Y8629005D01*
X13642953D01*
Y8630569D01*
Y8632132D01*
X13644518D01*
Y8630569D01*
D02*
G37*
G36*
X13627319Y8622751D02*
X13625755D01*
Y8624315D01*
X13627319D01*
Y8622751D01*
D02*
G37*
G36*
X13603867D02*
X13602304D01*
Y8624315D01*
X13603867D01*
Y8622751D01*
D02*
G37*
G36*
X13663280D02*
Y8619624D01*
X13661716D01*
Y8624315D01*
X13663280D01*
Y8622751D01*
D02*
G37*
G36*
X13378723Y8616497D02*
Y8614934D01*
X13377161D01*
Y8616497D01*
X13375597D01*
Y8618061D01*
X13378723D01*
Y8616497D01*
D02*
G37*
G36*
Y8611807D02*
X13377161D01*
Y8613370D01*
X13378723D01*
Y8611807D01*
D02*
G37*
G36*
X13572597Y8605553D02*
X13571034D01*
Y8607116D01*
X13572597D01*
Y8605553D01*
D02*
G37*
G36*
X13622629Y8600862D02*
X13621065D01*
Y8602426D01*
X13622629D01*
Y8600862D01*
D02*
G37*
G36*
X13578851Y8597735D02*
X13577287D01*
Y8599299D01*
X13578851D01*
Y8597735D01*
D02*
G37*
G36*
X13563216Y8593045D02*
X13560089D01*
Y8594608D01*
X13563216D01*
Y8593045D01*
D02*
G37*
G36*
Y8585227D02*
X13561653D01*
Y8586791D01*
X13563216D01*
Y8585227D01*
D02*
G37*
G36*
X13577287Y8575846D02*
X13575723D01*
Y8578973D01*
X13577287D01*
Y8575846D01*
D02*
G37*
G36*
X13585104Y8574283D02*
X13583542D01*
Y8575846D01*
X13585104D01*
Y8574283D01*
D02*
G37*
G36*
X13571034D02*
X13569470D01*
Y8575846D01*
X13571034D01*
Y8574283D01*
D02*
G37*
G36*
X13558527Y8572719D02*
X13560089D01*
Y8571156D01*
X13558527D01*
Y8572719D01*
X13556963D01*
Y8574283D01*
X13558527D01*
Y8572719D01*
D02*
G37*
G36*
X13567908Y8566465D02*
X13564780D01*
Y8568029D01*
X13567908D01*
Y8566465D01*
D02*
G37*
G36*
X13596049Y8563338D02*
X13594485D01*
Y8566465D01*
X13596049D01*
Y8563338D01*
D02*
G37*
G36*
X13594485Y8561775D02*
X13592923D01*
Y8563338D01*
X13594485D01*
Y8561775D01*
D02*
G37*
G36*
X13561653Y8560211D02*
X13560089D01*
Y8561775D01*
X13561653D01*
Y8560211D01*
D02*
G37*
G36*
X13622629Y8555521D02*
X13621065D01*
Y8557084D01*
X13622629D01*
Y8555521D01*
D02*
G37*
G36*
X13575723Y8553957D02*
X13574161D01*
Y8555521D01*
X13575723D01*
Y8553957D01*
D02*
G37*
G36*
X13366216Y8550830D02*
X13364651D01*
Y8552394D01*
X13366216D01*
Y8550830D01*
D02*
G37*
G36*
X13603867Y8546140D02*
X13602304D01*
Y8547704D01*
X13603867D01*
Y8546140D01*
D02*
G37*
G36*
X13363087Y8535196D02*
X13361525D01*
Y8536759D01*
X13363087D01*
Y8535196D01*
D02*
G37*
G36*
X13597614Y8533632D02*
X13596049D01*
Y8535196D01*
X13597614D01*
Y8533632D01*
D02*
G37*
G36*
X13364651Y8532069D02*
Y8530505D01*
X13363087D01*
Y8533632D01*
X13364651D01*
Y8532069D01*
D02*
G37*
G36*
X13347453Y8530505D02*
X13345889D01*
Y8532069D01*
X13347453D01*
Y8530505D01*
D02*
G37*
G36*
X13585104Y8527378D02*
X13583542D01*
Y8528942D01*
X13585104D01*
Y8527378D01*
D02*
G37*
G36*
X13363087D02*
Y8525815D01*
X13361525D01*
Y8528942D01*
X13363087D01*
Y8527378D01*
D02*
G37*
G36*
X13588232Y8525815D02*
X13589796D01*
Y8524251D01*
X13586668D01*
Y8527378D01*
X13588232D01*
Y8525815D01*
D02*
G37*
G36*
X13366216Y8524251D02*
X13364651D01*
Y8525815D01*
X13366216D01*
Y8524251D01*
D02*
G37*
G36*
X13359961Y8535196D02*
X13361525D01*
Y8533632D01*
X13359961D01*
Y8532069D01*
X13358398D01*
Y8528942D01*
X13356834D01*
Y8527378D01*
X13358398D01*
Y8524251D01*
X13356834D01*
Y8527378D01*
X13355270D01*
Y8525815D01*
X13353706D01*
Y8524251D01*
X13350580D01*
Y8525815D01*
X13352144D01*
Y8527378D01*
X13353706D01*
Y8528942D01*
X13349017D01*
Y8530505D01*
X13350580D01*
Y8532069D01*
X13353706D01*
Y8533632D01*
X13355270D01*
Y8535196D01*
X13356834D01*
Y8536759D01*
X13358398D01*
Y8538323D01*
X13359961D01*
Y8535196D01*
D02*
G37*
G36*
X13583542Y8519561D02*
X13585104D01*
Y8517997D01*
X13583542D01*
Y8519561D01*
X13581978D01*
Y8522688D01*
X13583542D01*
Y8519561D01*
D02*
G37*
G36*
X13588232D02*
X13589796D01*
Y8516434D01*
X13586668D01*
Y8521124D01*
X13588232D01*
Y8519561D01*
D02*
G37*
G36*
X13583542Y8516434D02*
X13581978D01*
Y8517997D01*
X13583542D01*
Y8516434D01*
D02*
G37*
G36*
X13594485Y8514870D02*
X13591359D01*
Y8516434D01*
X13592923D01*
Y8517997D01*
X13594485D01*
Y8514870D01*
D02*
G37*
G36*
X13581978D02*
X13580415D01*
Y8516434D01*
X13581978D01*
Y8514870D01*
D02*
G37*
G36*
X13586668Y8513307D02*
X13585104D01*
Y8516434D01*
X13586668D01*
Y8513307D01*
D02*
G37*
G36*
X13553835Y8508616D02*
X13552272D01*
Y8510180D01*
X13553835D01*
Y8508616D01*
D02*
G37*
G36*
X13600740Y8505489D02*
X13599178D01*
Y8507053D01*
Y8510180D01*
X13600740D01*
Y8505489D01*
D02*
G37*
G36*
X13552272D02*
X13550708D01*
Y8508616D01*
X13552272D01*
Y8505489D01*
D02*
G37*
G36*
X13355270D02*
X13353706D01*
Y8507053D01*
X13355270D01*
Y8505489D01*
D02*
G37*
G36*
X13599178Y8503926D02*
X13597614D01*
Y8505489D01*
X13599178D01*
Y8503926D01*
D02*
G37*
G36*
X13358398Y8499235D02*
X13355270D01*
Y8500799D01*
Y8502362D01*
X13358398D01*
Y8499235D01*
D02*
G37*
G36*
X13597614Y8496108D02*
X13596049D01*
Y8497672D01*
X13597614D01*
Y8496108D01*
D02*
G37*
G36*
X13566344D02*
X13563216D01*
Y8497672D01*
X13564780D01*
Y8499235D01*
X13566344D01*
Y8496108D01*
D02*
G37*
G36*
X13596049Y8494544D02*
X13594485D01*
Y8496108D01*
X13596049D01*
Y8494544D01*
D02*
G37*
G36*
X13600740Y8485163D02*
X13599178D01*
Y8486727D01*
X13600740D01*
Y8485163D01*
D02*
G37*
G36*
X13353706D02*
X13350580D01*
Y8486727D01*
X13353706D01*
Y8485163D01*
D02*
G37*
G36*
X13350580Y8483600D02*
X13349017D01*
Y8485163D01*
X13350580D01*
Y8483600D01*
D02*
G37*
G36*
X13611684Y8482036D02*
X13610121D01*
Y8483600D01*
X13611684D01*
Y8482036D01*
D02*
G37*
G36*
X13605431Y8480473D02*
X13603867D01*
Y8482036D01*
X13605431D01*
Y8480473D01*
D02*
G37*
G36*
X13361525D02*
X13359961D01*
Y8482036D01*
Y8483600D01*
X13361525D01*
Y8480473D01*
D02*
G37*
G36*
X13625755Y8477346D02*
X13624191D01*
Y8478909D01*
X13625755D01*
Y8477346D01*
D02*
G37*
G36*
X13611684Y8471092D02*
X13610121D01*
Y8472655D01*
X13611684D01*
Y8471092D01*
D02*
G37*
G36*
X13616376Y8469528D02*
X13613248D01*
Y8471092D01*
X13616376D01*
Y8469528D01*
D02*
G37*
G36*
X13389668D02*
X13388104D01*
Y8471092D01*
X13389668D01*
Y8469528D01*
D02*
G37*
G36*
X13614812Y8466401D02*
X13613248D01*
Y8467965D01*
X13614812D01*
Y8466401D01*
D02*
G37*
G36*
X13613248Y8464838D02*
X13611684D01*
Y8466401D01*
X13613248D01*
Y8464838D01*
D02*
G37*
G36*
X13611684Y8463274D02*
X13610121D01*
Y8461711D01*
X13606995D01*
Y8463274D01*
X13608557D01*
Y8464838D01*
X13611684D01*
Y8463274D01*
D02*
G37*
G36*
X13372469Y8461711D02*
X13370906D01*
Y8463274D01*
X13372469D01*
Y8461711D01*
D02*
G37*
G36*
X13605431Y8460147D02*
X13602304D01*
Y8461711D01*
X13605431D01*
Y8460147D01*
D02*
G37*
G36*
X13596049D02*
X13592923D01*
Y8461711D01*
X13596049D01*
Y8460147D01*
D02*
G37*
G36*
X13614812Y8458584D02*
X13613248D01*
Y8460147D01*
X13614812D01*
Y8458584D01*
D02*
G37*
G36*
X13616376Y8460147D02*
X13617938D01*
Y8458584D01*
Y8457020D01*
X13616376D01*
Y8460147D01*
X13614812D01*
Y8464838D01*
X13616376D01*
Y8460147D01*
D02*
G37*
G36*
X13395921Y8455457D02*
X13397485D01*
Y8452330D01*
X13395921D01*
Y8455457D01*
X13394357D01*
Y8457020D01*
X13395921D01*
Y8455457D01*
D02*
G37*
G36*
X13605431Y8450766D02*
X13608557D01*
Y8447639D01*
X13606995D01*
Y8446076D01*
X13605431D01*
Y8447639D01*
Y8449203D01*
X13603867D01*
Y8450766D01*
X13602304D01*
Y8452330D01*
X13605431D01*
Y8450766D01*
D02*
G37*
G36*
X13403738Y8446076D02*
X13405302D01*
Y8444512D01*
X13403738D01*
Y8446076D01*
X13402176D01*
Y8447639D01*
X13403738D01*
Y8446076D01*
D02*
G37*
G36*
X13578851Y8439822D02*
X13577287D01*
Y8442949D01*
X13578851D01*
Y8439822D01*
D02*
G37*
G36*
X13583542Y8438258D02*
X13581978D01*
Y8439822D01*
X13583542D01*
Y8438258D01*
D02*
G37*
G36*
X13399049Y8436695D02*
X13397485D01*
Y8438258D01*
X13399049D01*
Y8436695D01*
D02*
G37*
G36*
X13605431Y8435131D02*
X13603867D01*
Y8436695D01*
X13605431D01*
Y8435131D01*
D02*
G37*
G36*
X13403738Y8438258D02*
X13406866D01*
Y8435131D01*
X13403738D01*
Y8436695D01*
X13400612D01*
Y8441385D01*
X13403738D01*
Y8438258D01*
D02*
G37*
G36*
X13417812Y8430441D02*
X13416248D01*
Y8435131D01*
X13417812D01*
Y8430441D01*
D02*
G37*
G36*
X13416248Y8428877D02*
Y8427314D01*
X13414684D01*
Y8430441D01*
X13416248D01*
Y8428877D01*
D02*
G37*
G36*
X13463152Y8356957D02*
X13461589D01*
Y8358520D01*
X13463152D01*
Y8356957D01*
D02*
G37*
G36*
X13469406Y8355393D02*
X13467844D01*
Y8356957D01*
X13469406D01*
Y8355393D01*
D02*
G37*
G36*
X13467844Y8352266D02*
X13466280D01*
Y8353830D01*
X13467844D01*
Y8352266D01*
D02*
G37*
G36*
X13466280Y8349139D02*
X13464716D01*
Y8350703D01*
X13466280D01*
Y8349139D01*
D02*
G37*
G36*
X13355353Y8302536D02*
Y8300972D01*
Y8299409D01*
X13353790D01*
Y8305663D01*
X13355353D01*
Y8302536D01*
D02*
G37*
G36*
X13405302Y8149011D02*
X13403738D01*
Y8141194D01*
X13402176D01*
Y8147448D01*
Y8149011D01*
Y8152138D01*
X13403738D01*
Y8153702D01*
X13405302D01*
Y8149011D01*
D02*
G37*
%LPC*%
G36*
X13466280Y8718125D02*
X13464716D01*
Y8714998D01*
X13466280D01*
Y8718125D01*
D02*
G37*
G36*
X13467844Y8708744D02*
X13466280D01*
Y8707180D01*
X13467844D01*
Y8708744D01*
D02*
G37*
G36*
X13470970Y8707180D02*
X13469406D01*
Y8704053D01*
X13470970D01*
Y8705617D01*
Y8707180D01*
D02*
G37*
G36*
X13513184Y8700926D02*
X13511620D01*
Y8699363D01*
X13513184D01*
Y8700926D01*
D02*
G37*
G36*
X13502238D02*
X13500676D01*
Y8699363D01*
X13502238D01*
Y8700926D01*
D01*
D01*
D02*
G37*
G36*
X13500676Y8697799D02*
X13499112D01*
Y8696236D01*
X13500676D01*
Y8697799D01*
D02*
G37*
G36*
X13483476D02*
X13481914D01*
Y8696236D01*
Y8694672D01*
X13483476D01*
Y8697799D01*
D02*
G37*
G36*
X13480350Y8694672D02*
X13478787D01*
Y8693109D01*
X13480350D01*
Y8691545D01*
X13481914D01*
Y8693109D01*
X13480350Y8694672D01*
D02*
G37*
G36*
X13513184Y8691545D02*
X13511620D01*
Y8688418D01*
X13513184D01*
Y8689982D01*
Y8691545D01*
D02*
G37*
G36*
X13524129Y8679037D02*
X13521002D01*
Y8677474D01*
X13522565D01*
Y8675910D01*
X13524129D01*
Y8679037D01*
D02*
G37*
G36*
X13555399Y8650894D02*
X13553835D01*
Y8649331D01*
X13555399D01*
Y8647767D01*
X13556963D01*
Y8649331D01*
X13555399D01*
Y8650894D01*
D02*
G37*
G36*
X13552272D02*
X13550708D01*
X13549146Y8649331D01*
Y8647767D01*
X13550708D01*
Y8649331D01*
X13552272D01*
Y8650894D01*
D02*
G37*
G36*
X13560089Y8647767D02*
X13558527D01*
Y8646204D01*
X13560089D01*
Y8647767D01*
D02*
G37*
G36*
X13555399D02*
X13553835D01*
Y8646204D01*
X13555399D01*
Y8647767D01*
D02*
G37*
G36*
X13567908Y8646204D02*
X13566344D01*
Y8644640D01*
Y8641513D01*
X13567908D01*
Y8646204D01*
D02*
G37*
G36*
X13383414Y8641513D02*
X13381850D01*
Y8639950D01*
X13383414D01*
Y8641513D01*
D02*
G37*
G36*
X13380287Y8638386D02*
X13378723D01*
Y8636823D01*
X13380287D01*
Y8638386D01*
D02*
G37*
G36*
X13374033Y8632132D02*
X13372469D01*
Y8630569D01*
X13374033D01*
Y8632132D01*
D02*
G37*
G36*
X13564780Y8633696D02*
X13563216D01*
Y8632132D01*
Y8630569D01*
X13564780D01*
Y8633696D01*
D02*
G37*
G36*
X13577287Y8629005D02*
X13575723D01*
Y8627442D01*
X13577287D01*
Y8629005D01*
D02*
G37*
G36*
Y8625878D02*
X13575723D01*
Y8624315D01*
X13577287D01*
Y8625878D01*
D02*
G37*
G36*
X13574161D02*
X13572597D01*
Y8624315D01*
X13574161D01*
Y8625878D01*
D02*
G37*
G36*
X13571034D02*
X13569470D01*
Y8624315D01*
X13571034D01*
Y8625878D01*
D02*
G37*
G36*
X13380287D02*
X13378723D01*
Y8624315D01*
X13380287D01*
Y8625878D01*
D02*
G37*
G36*
X13581978D02*
X13580415D01*
Y8622751D01*
X13581978D01*
Y8625878D01*
D02*
G37*
G36*
X13558527Y8555521D02*
X13556963D01*
Y8552394D01*
X13558527D01*
Y8553957D01*
Y8555521D01*
D02*
G37*
G36*
X13581978Y8547704D02*
X13580415D01*
Y8546140D01*
X13581978D01*
Y8547704D01*
D02*
G37*
G36*
X13374033Y8549267D02*
X13372469D01*
Y8547704D01*
X13370906D01*
Y8546140D01*
X13374033D01*
Y8549267D01*
D02*
G37*
G36*
X13577287Y8543013D02*
X13575723D01*
Y8541450D01*
X13574161D01*
Y8538323D01*
X13575723D01*
Y8539886D01*
X13577287D01*
Y8543013D01*
D02*
G37*
G36*
X13574161Y8538323D02*
X13572597D01*
Y8536759D01*
X13574161D01*
Y8538323D01*
D02*
G37*
G36*
X13571034Y8532069D02*
X13569470D01*
Y8530505D01*
X13571034D01*
Y8532069D01*
D02*
G37*
G36*
X13567908D02*
X13566344D01*
Y8530505D01*
X13567908D01*
Y8532069D01*
D02*
G37*
G36*
X13564780Y8535196D02*
X13563216D01*
Y8533632D01*
Y8530505D01*
X13564780D01*
Y8535196D01*
D02*
G37*
G36*
X13563216Y8530505D02*
X13561653D01*
Y8528942D01*
X13563216D01*
Y8530505D01*
D02*
G37*
G36*
X13556963D02*
X13555399D01*
Y8528942D01*
X13556963D01*
Y8530505D01*
D02*
G37*
G36*
X13574161Y8528942D02*
X13572597D01*
Y8527378D01*
X13574161D01*
Y8528942D01*
D02*
G37*
G36*
X13578851Y8524251D02*
X13577287D01*
Y8522688D01*
X13578851D01*
Y8524251D01*
D01*
D01*
D02*
G37*
G36*
X13556963D02*
X13552272D01*
Y8522688D01*
X13550708D01*
Y8521124D01*
X13552272D01*
Y8517997D01*
X13553835D01*
Y8519561D01*
X13555399D01*
Y8522688D01*
X13556963D01*
Y8524251D01*
D02*
G37*
G36*
Y8517997D02*
X13555399D01*
Y8516434D01*
X13556963D01*
Y8517997D01*
D02*
G37*
G36*
X13550708Y8519561D02*
X13549146D01*
Y8514870D01*
X13550708D01*
Y8516434D01*
X13552272D01*
Y8517997D01*
X13550708D01*
Y8519561D01*
D02*
G37*
G36*
X13372469Y8516434D02*
X13370906D01*
Y8513307D01*
X13372469D01*
Y8516434D01*
D02*
G37*
G36*
X13364651Y8514870D02*
X13363087D01*
Y8513307D01*
X13364651D01*
Y8514870D01*
D02*
G37*
G36*
X13549146Y8513307D02*
X13547581D01*
Y8511743D01*
X13549146D01*
Y8513307D01*
D02*
G37*
G36*
X13377161Y8510180D02*
X13375597D01*
Y8508616D01*
X13377161D01*
Y8510180D01*
D02*
G37*
G36*
X13580415Y8507053D02*
X13578851D01*
Y8505489D01*
X13580415D01*
Y8507053D01*
D02*
G37*
G36*
X13578851Y8499235D02*
X13577287D01*
Y8497672D01*
X13578851D01*
Y8499235D01*
D02*
G37*
G36*
X13577287Y8497672D02*
X13575723D01*
Y8496108D01*
X13577287D01*
Y8497672D01*
D02*
G37*
G36*
X13381850Y8507053D02*
X13380287D01*
Y8505489D01*
X13378723D01*
Y8503926D01*
X13380287D01*
Y8502362D01*
X13377161D01*
Y8499235D01*
X13378723D01*
Y8497672D01*
X13381850D01*
Y8496108D01*
X13384978D01*
Y8499235D01*
X13383414D01*
Y8502362D01*
X13381850D01*
Y8507053D01*
D02*
G37*
G36*
X13370906Y8491417D02*
X13369342D01*
Y8489854D01*
X13370906D01*
Y8491417D01*
D02*
G37*
G36*
X13589796Y8489854D02*
X13588232D01*
Y8488290D01*
X13589796D01*
Y8489854D01*
D02*
G37*
G36*
X13569470D02*
X13567908D01*
Y8488290D01*
X13569470D01*
Y8489854D01*
D02*
G37*
G36*
X13588232Y8488290D02*
X13586668D01*
Y8486727D01*
X13588232D01*
Y8488290D01*
D02*
G37*
G36*
X13383414Y8494544D02*
X13381850D01*
Y8492981D01*
X13380287D01*
Y8489854D01*
X13378723D01*
Y8488290D01*
X13384978D01*
Y8486727D01*
X13386542D01*
Y8488290D01*
Y8489854D01*
Y8492981D01*
X13383414D01*
Y8494544D01*
D02*
G37*
G36*
Y8486727D02*
X13381850D01*
Y8485163D01*
X13383414D01*
Y8486727D01*
D02*
G37*
G36*
X13380287D02*
X13375597D01*
Y8485163D01*
X13380287D01*
Y8486727D01*
D02*
G37*
G36*
X13592923Y8483600D02*
X13589796D01*
Y8482036D01*
X13592923D01*
Y8483600D01*
D02*
G37*
G36*
X13586668D02*
X13585104D01*
Y8482036D01*
X13586668D01*
Y8483600D01*
D02*
G37*
G36*
X13539764D02*
X13538200D01*
Y8482036D01*
X13539764D01*
Y8483600D01*
D02*
G37*
G36*
X13388104Y8485163D02*
X13384978D01*
Y8483600D01*
X13386542D01*
Y8482036D01*
X13388104D01*
Y8485163D01*
D02*
G37*
G36*
X13574161Y8483600D02*
X13572597D01*
Y8480473D01*
X13574161D01*
Y8483600D01*
D02*
G37*
G36*
X13374033Y8482036D02*
X13372469D01*
Y8480473D01*
X13374033D01*
Y8482036D01*
D02*
G37*
G36*
X13388104Y8480473D02*
X13386542D01*
Y8478909D01*
X13388104D01*
Y8480473D01*
D02*
G37*
G36*
X13592923Y8478909D02*
X13591359D01*
Y8477346D01*
X13592923D01*
Y8478909D01*
D02*
G37*
G36*
X13580415D02*
X13578851D01*
Y8477346D01*
X13580415D01*
Y8478909D01*
D02*
G37*
G36*
X13603867Y8477346D02*
X13602304D01*
Y8475782D01*
X13603867D01*
Y8477346D01*
D02*
G37*
G36*
X13546017Y8478909D02*
X13544453D01*
Y8475782D01*
X13546017D01*
Y8478909D01*
D02*
G37*
G36*
X13591359Y8477346D02*
X13589796D01*
Y8475782D01*
Y8474219D01*
X13591359D01*
Y8477346D01*
D02*
G37*
G36*
X13377161Y8469528D02*
X13375597D01*
Y8467965D01*
X13377161D01*
Y8469528D01*
D02*
G37*
G36*
X13594485Y8467965D02*
X13592923D01*
Y8466401D01*
X13594485D01*
Y8467965D01*
D02*
G37*
G36*
X13372469Y8469528D02*
X13370906D01*
Y8466401D01*
X13372469D01*
Y8464838D01*
X13375597D01*
Y8466401D01*
X13374033D01*
Y8467965D01*
X13372469D01*
Y8469528D01*
D02*
G37*
G36*
X13580415Y8436695D02*
X13578851D01*
Y8435131D01*
X13580415D01*
Y8436695D01*
D02*
G37*
G36*
X13575723Y8433568D02*
X13572597D01*
Y8432004D01*
X13575723D01*
Y8433568D01*
D02*
G37*
G36*
X13441263Y8333504D02*
X13439700D01*
Y8331941D01*
X13441263D01*
Y8333504D01*
D02*
G37*
G36*
X13438136Y8335068D02*
X13436572D01*
Y8330377D01*
X13438136D01*
Y8333504D01*
Y8335068D01*
D02*
G37*
G36*
X13442827Y8330377D02*
X13441263D01*
Y8328814D01*
X13442827D01*
Y8330377D01*
D02*
G37*
G36*
X13438136Y8327250D02*
X13436572D01*
Y8325687D01*
X13438136D01*
Y8327250D01*
D02*
G37*
G36*
X13435008Y8324123D02*
X13433446D01*
Y8320996D01*
X13435008D01*
Y8322560D01*
Y8324123D01*
D02*
G37*
G36*
X13433446Y8320996D02*
X13431882D01*
Y8319433D01*
X13433446D01*
Y8320996D01*
D02*
G37*
G36*
X13544453Y8319433D02*
X13541327D01*
Y8316306D01*
X13544453D01*
Y8314742D01*
X13541327D01*
Y8311615D01*
X13542891D01*
Y8313179D01*
X13544453D01*
Y8314742D01*
X13546017D01*
Y8316306D01*
X13544453D01*
Y8319433D01*
D02*
G37*
G36*
X13431882Y8313179D02*
X13430319D01*
Y8311615D01*
X13431882D01*
Y8313179D01*
D02*
G37*
G36*
X13541327Y8316306D02*
X13538200D01*
Y8314742D01*
X13536636D01*
Y8311615D01*
X13538200D01*
Y8306925D01*
X13539764D01*
Y8311615D01*
X13538200D01*
Y8313179D01*
X13539764D01*
Y8314742D01*
X13541327D01*
Y8316306D01*
D02*
G37*
G36*
X13433446Y8310052D02*
X13431882D01*
Y8306925D01*
X13435008D01*
Y8308488D01*
X13433446D01*
Y8310052D01*
D02*
G37*
G36*
X13538200Y8306925D02*
X13536636D01*
Y8305361D01*
X13538200D01*
Y8306925D01*
D02*
G37*
G36*
X13535072Y8311615D02*
X13533510D01*
Y8310052D01*
Y8308488D01*
X13531946D01*
Y8306925D01*
X13530383D01*
Y8303798D01*
X13531946D01*
Y8305361D01*
X13535072D01*
Y8311615D01*
D02*
G37*
G36*
X13536636Y8303798D02*
X13535072D01*
Y8302234D01*
X13536636D01*
Y8303798D01*
D02*
G37*
G36*
X13528819D02*
X13527255D01*
Y8302234D01*
X13528819D01*
Y8300671D01*
X13530383D01*
Y8299107D01*
X13531946D01*
Y8302234D01*
X13528819D01*
Y8303798D01*
D02*
G37*
G36*
Y8299107D02*
X13527255D01*
Y8292853D01*
X13528819D01*
Y8294417D01*
Y8295980D01*
X13530383D01*
Y8297544D01*
X13528819D01*
Y8299107D01*
D02*
G37*
G36*
X13427193Y8289726D02*
X13425629D01*
Y8283472D01*
X13427193D01*
Y8285035D01*
Y8286599D01*
Y8289726D01*
D02*
G37*
%LPD*%
G36*
X13383414Y8497672D02*
X13381850D01*
Y8499235D01*
X13383414D01*
Y8497672D01*
D02*
G37*
D105*
X11716819Y2654299D02*
G03*
X11716819Y2654299I-12500J0D01*
G01*
X5475400Y7699710D02*
G03*
X5475400Y7699710I-12500J0D01*
G01*
X15111000Y10388600D02*
G03*
X15111000Y10388600I-12500J0D01*
G01*
X4696158Y3569042D02*
G03*
X4696158Y3569042I-12500J0D01*
G01*
X12297700Y10755900D02*
G03*
X12297700Y10755900I-12500J0D01*
G01*
X9007700Y9933600D02*
G03*
X9007700Y9933600I-12500J0D01*
G01*
X8697100Y9960400D02*
G03*
X8697100Y9960400I-12500J0D01*
G01*
X5490000Y5564700D02*
G03*
X5490000Y5564700I-12500J0D01*
G01*
X6094000Y10274300D02*
G03*
X6094000Y10274300I-12500J0D01*
G01*
X16557455Y10066100D02*
G03*
X16557455Y10066100I-12500J0D01*
G01*
X9933200Y8291600D02*
G03*
X9933200Y8291600I-12500J0D01*
G01*
X5535100Y9444800D02*
G03*
X5535100Y9444800I-12500J0D01*
G01*
X10839300Y8665200D02*
G03*
X10839300Y8665200I-12500J0D01*
G01*
X13925301Y5406000D02*
G03*
X13925301Y5406000I-12500J0D01*
G01*
X9368600Y6819300D02*
G03*
X9368600Y6819300I-12500J0D01*
G01*
X12215400Y9803707D02*
G03*
X12215400Y9803707I-12500J0D01*
G01*
X13155400Y9826007D02*
G03*
X13155400Y9826007I-12500J0D01*
G01*
X15641901Y8739800D02*
G03*
X15641901Y8739800I-12500J0D01*
G01*
X15841499Y8458700D02*
G03*
X15841499Y8458700I-12500J0D01*
G01*
X14463699Y8289100D02*
G03*
X14463699Y8289100I-12500J0D01*
G01*
X6748300Y9754100D02*
G03*
X6748300Y9754100I-12500J0D01*
G01*
X15346391Y3258348D02*
G03*
X15346391Y3258348I-12500J0D01*
G01*
X14574800Y5605500D02*
G03*
X14574800Y5605500I-12500J0D01*
G01*
X9742811Y2968007D02*
G03*
X9742811Y2968007I-12500J0D01*
G01*
X13301300Y4427500D02*
G03*
X13301300Y4427500I-12500J0D01*
G01*
X10617700Y10471900D02*
G03*
X10617700Y10471900I-12500J0D01*
G01*
X6972100Y3572900D02*
G03*
X6972100Y3572900I-12500J0D01*
G01*
X8533170Y4734916D02*
G03*
X8533170Y4734916I-12500J0D01*
G01*
X7872953Y5554017D02*
G03*
X7872953Y5554017I-12500J0D01*
G01*
X7792400Y7644348D02*
G03*
X7792400Y7644348I-12500J0D01*
G01*
X7250653Y5554017D02*
G03*
X7250653Y5554017I-12500J0D01*
G01*
X9464336Y4441207D02*
G03*
X9464336Y4441207I-12500J0D01*
G01*
X9008908Y5346102D02*
G03*
X9008908Y5346102I-12500J0D01*
G01*
X8973171Y2968007D02*
G03*
X8973171Y2968007I-12500J0D01*
G01*
X9759197Y5346102D02*
G03*
X9759197Y5346102I-12500J0D01*
G01*
X10871000Y3420500D02*
G03*
X10871000Y3420500I-12500J0D01*
G01*
X12423095Y4601094D02*
G03*
X12423095Y4601094I-12500J0D01*
G01*
X16903009Y4418349D02*
G03*
X16903009Y4418349I-12500J0D01*
G01*
X12919501Y5495200D02*
G03*
X12919501Y5495200I-12500J0D01*
G01*
X11749200Y6582110D02*
G03*
X11749200Y6582110I-12500J0D01*
G01*
X17196284Y5356554D02*
G03*
X17196284Y5356554I-12500J0D01*
G01*
X16022000Y6398710D02*
G03*
X16022000Y6398710I-12500J0D01*
G01*
X4867700Y5552000D02*
G03*
X4867700Y5552000I-12500J0D01*
G01*
X6209755Y4707500D02*
G03*
X6209755Y4707500I-12500J0D01*
G01*
D106*
X4429600Y10395800D02*
G03*
X4429600Y10395800I-10000J0D01*
G01*
X12922900Y8297700D02*
G03*
X12922900Y8297700I-10000J0D01*
G01*
X8314000Y6493600D02*
X8704000D01*
X8314000D02*
Y6663600D01*
X8704000D01*
Y6493600D02*
Y6663600D01*
Y6578600D02*
X8761500D01*
X8256500D02*
X8314000D01*
X8606500Y6500600D02*
Y6656600D01*
X4591100Y9998603D02*
Y10143600D01*
X4756100Y9998603D02*
Y10143600D01*
X12720320Y666750D02*
Y2584450D01*
X8768080D02*
X12720320D01*
X8768080Y666750D02*
Y2584450D01*
Y666750D02*
X12720320D01*
X5495400Y7124633D02*
Y7404167D01*
X4715400Y7124633D02*
X5495400D01*
X4715400D02*
Y7404167D01*
X5495400D01*
X13998500Y10871100D02*
Y11043600D01*
Y10116600D02*
Y10380600D01*
Y10116600D02*
X15038499D01*
Y10871100D02*
Y11043600D01*
Y10116600D02*
Y10380600D01*
X13998500Y11043600D02*
X15038499D01*
X4414158Y3634042D02*
X4904158D01*
X4414158Y4664042D02*
X4904158D01*
Y3634042D02*
Y4664042D01*
X4414158Y3634042D02*
Y4664042D01*
X4464158Y3634042D02*
Y4664042D01*
X10942700Y11110900D02*
Y11205900D01*
Y11110900D02*
X11020199D01*
Y10815900D02*
Y10875900D01*
Y11065900D02*
Y11110900D01*
Y10815900D02*
X11265199D01*
X12500200Y11110900D02*
X12577700D01*
Y11205900D01*
X10942700D02*
X12577700D01*
X12500200Y11065900D02*
Y11110900D01*
Y10815900D02*
Y10875900D01*
X12255200Y10815900D02*
X12500200D01*
X9519700Y10178200D02*
Y10598600D01*
X8920700Y10178200D02*
Y10598600D01*
X9107300Y10688100D02*
X9330200D01*
X9107300Y10089100D02*
X9333100D01*
X8019600Y10484900D02*
X8440000D01*
X8019600Y9885900D02*
X8440000D01*
X7930100Y10072500D02*
Y10295400D01*
X8529100Y10072500D02*
Y10298300D01*
X10372100Y8154000D02*
Y8229000D01*
X10532100Y8154000D02*
Y8229000D01*
X14303680Y3991002D02*
X14398320D01*
X14303680Y3741002D02*
X14398320D01*
X13440080Y6322011D02*
X13534720D01*
X13440080Y6572011D02*
X13534720D01*
X12901401Y3928400D02*
X13057401D01*
X12979401Y4220900D02*
Y4278400D01*
Y3773400D02*
Y3830900D01*
X12894400D02*
X13064400D01*
Y4220900D01*
X12894400D02*
X13064400D01*
X12894400Y3830900D02*
Y4220900D01*
X8761200Y7027800D02*
X8917200D01*
X8839200Y7320300D02*
Y7377800D01*
Y6872800D02*
Y6930300D01*
X8754200D02*
X8924200D01*
Y7320300D01*
X8754200D02*
X8924200D01*
X8754200Y6930300D02*
Y7320300D01*
X8723100Y5558500D02*
X8879100D01*
X8801100Y5208500D02*
Y5266000D01*
Y5656000D02*
Y5713500D01*
X8716100Y5656000D02*
X8886100D01*
X8716100Y5266000D02*
Y5656000D01*
Y5266000D02*
X8886100D01*
Y5656000D01*
X8481800Y5808000D02*
X8637800D01*
X8559800Y6100500D02*
Y6158000D01*
Y5653000D02*
Y5710500D01*
X8474800D02*
X8644800D01*
Y6100500D01*
X8474800D02*
X8644800D01*
X8474800Y5710500D02*
Y6100500D01*
X13174001Y3147800D02*
Y3303800D01*
X13466499Y3225800D02*
X13524001D01*
X13019000D02*
X13076500D01*
Y3140800D02*
Y3310800D01*
Y3140800D02*
X13466499D01*
Y3310800D01*
X13076500D02*
X13466499D01*
X14806400Y4868800D02*
X14962399D01*
X14884399Y5161300D02*
Y5218800D01*
Y4713800D02*
Y4771300D01*
X14799400D02*
X14969400D01*
Y5161300D01*
X14799400D02*
X14969400D01*
X14799400Y4771300D02*
Y5161300D01*
X14806400Y4136100D02*
X14962399D01*
X14884399Y3786100D02*
Y3843600D01*
Y4233600D02*
Y4291100D01*
X14799400Y4233600D02*
X14969400D01*
X14799400Y3843600D02*
Y4233600D01*
Y3843600D02*
X14969400D01*
Y4233600D01*
X10325500Y9980500D02*
X10375500D01*
X10350500Y9955500D02*
Y10005500D01*
X10440500Y9693000D02*
Y9738000D01*
X10260500Y9693000D02*
Y9738000D01*
X4981500Y10756800D02*
Y10929300D01*
Y10002300D02*
Y10266300D01*
Y10002300D02*
X6021500D01*
Y10756800D02*
Y10929300D01*
Y10002300D02*
Y10266300D01*
X4981500Y10929300D02*
X6021500D01*
X15573955Y10868600D02*
Y11045100D01*
Y10115100D02*
Y10329950D01*
Y10115100D02*
X16915955D01*
Y10868600D02*
Y11045100D01*
Y10115100D02*
Y10329950D01*
X15573955Y11045100D02*
X16915955D01*
X9813200Y9016600D02*
X9855700D01*
Y8974100D02*
Y9016600D01*
X9115700D02*
X9158200D01*
X9115700Y8974100D02*
Y9016600D01*
Y8276600D02*
Y8319100D01*
Y8276600D02*
X9158200D01*
X9813200D02*
X9855700D01*
Y8319100D01*
X5792300Y9249300D02*
Y9394300D01*
X5612300Y9249300D02*
Y9394300D01*
X5195100Y9314800D02*
X5485100D01*
X5195100Y9324800D02*
X5485100D01*
X5195100Y9314800D02*
Y9324800D01*
X5485100Y9314800D02*
Y9324800D01*
X5438700Y9640500D02*
X5508700D01*
X5438700Y9790500D02*
X5508700D01*
X4875700Y9259300D02*
Y9384300D01*
X5055700Y9259300D02*
Y9384300D01*
X5484800Y8921700D02*
X5629797D01*
X5484800Y8756700D02*
X5629797D01*
X4944000Y8921700D02*
X5088997D01*
X4944000Y8756700D02*
X5088997D01*
X4781500Y9236603D02*
Y9381600D01*
X4616500Y9236603D02*
Y9381600D01*
X10158900Y8593700D02*
Y8703700D01*
X10338900Y8593700D02*
Y8703700D01*
X11024700Y8606400D02*
Y8716400D01*
X10844700Y8606400D02*
Y8716400D01*
X12617690Y7202390D02*
X12909309D01*
X12617690Y7428010D02*
X12909309D01*
X12307790Y7097568D02*
Y7389188D01*
X12533410Y7097568D02*
Y7389188D01*
X12846291Y7161310D02*
X13137910D01*
X12846291Y6935690D02*
X13137910D01*
X13024091Y7456390D02*
X13315710D01*
X13024091Y7682010D02*
X13315710D01*
X13389799Y5303500D02*
X13889799D01*
X13389799Y4983500D02*
X13889799D01*
Y5303500D01*
X13389799Y4983500D02*
Y5303500D01*
X11471800Y8807400D02*
X11616797D01*
X11471800Y8642400D02*
X11616797D01*
X11471803Y8185200D02*
X11616800D01*
X11471803Y8350200D02*
X11616800D01*
X11471800Y8121600D02*
X11616797D01*
X11471800Y7956600D02*
X11616797D01*
X11471800Y8591500D02*
X11616797D01*
X11471800Y8426500D02*
X11616797D01*
X12108300Y7217300D02*
X12123300D01*
X12108300Y7362300D02*
X12123300D01*
X12454800Y8563500D02*
X12469800D01*
X12454800Y8708500D02*
X12469800D01*
X9766803Y9783011D02*
X9851525D01*
X9766803Y9597189D02*
X9851525D01*
X11940400Y9413100D02*
Y9713100D01*
X12240400Y9413100D02*
Y9713100D01*
X10752700Y8129100D02*
X10862700D01*
X10752700Y7949100D02*
X10862700D01*
X11967100Y9879500D02*
X12112100D01*
X11967100Y10059500D02*
X12112100D01*
X12990353D02*
X13070047D01*
X12990353Y9879500D02*
X13070047D01*
X13192900Y9670400D02*
Y9700400D01*
Y9400400D02*
Y9430400D01*
X12892900Y9400400D02*
X12893275D01*
X13192525D02*
X13192900D01*
X12892900Y9670400D02*
Y9700400D01*
Y9400400D02*
Y9430400D01*
Y9700400D02*
X12893275D01*
X13192525D02*
X13192900D01*
X12764600Y9211200D02*
Y9356200D01*
X12584600Y9211200D02*
Y9356200D01*
X12977654Y9028600D02*
X13057347D01*
X12977654Y9208600D02*
X13057347D01*
X12769800Y9782700D02*
Y9927697D01*
X12604800Y9782700D02*
Y9927697D01*
X12541200Y9782700D02*
Y9927697D01*
X12376200Y9782700D02*
Y9927697D01*
X11862900Y9490600D02*
Y9635600D01*
X11682900Y9490600D02*
Y9635600D01*
X11652200Y9490600D02*
Y9635597D01*
X11487200Y9490600D02*
Y9635597D01*
X11916300Y9104800D02*
X12061300D01*
X11916300Y9284800D02*
X12061300D01*
X15234399Y8674800D02*
Y9714800D01*
X15694400D01*
Y8674800D02*
Y9714800D01*
X15234399Y8674800D02*
X15694400D01*
X15284399Y8674800D02*
Y9714800D01*
X16362399Y8734200D02*
X16962399D01*
X14343100Y9918100D02*
X14943100D01*
X14972200Y8665100D02*
Y8810100D01*
X15152200Y8665100D02*
Y8810100D01*
X14540401Y8131600D02*
Y8276600D01*
X14720399Y8131600D02*
Y8276600D01*
X15823100Y9541400D02*
Y9686400D01*
X16003101Y9541400D02*
Y9686400D01*
X16053999Y7488700D02*
X16284000D01*
X16053999D02*
Y8538700D01*
X16284000D01*
X14123700Y8159100D02*
X14413699D01*
X14123700Y8169100D02*
X14413699D01*
X14123700Y8159100D02*
Y8169100D01*
X14413699Y8159100D02*
Y8169100D01*
X14366800Y8484800D02*
X14436800D01*
X14366800Y8634800D02*
X14436800D01*
X13842175Y7626400D02*
X13987172D01*
X13842175Y7791400D02*
X13987172D01*
X13816499Y8065500D02*
Y8190500D01*
X13996500Y8065500D02*
Y8190500D01*
X14405499Y7791400D02*
X14550497D01*
X14405499Y7626400D02*
X14550497D01*
X15558600Y8276200D02*
Y8386200D01*
X15378600Y8276200D02*
Y8386200D01*
Y7819000D02*
Y7929000D01*
X15558600Y7819000D02*
Y7929000D01*
X15322501Y7839603D02*
Y7984600D01*
X15157500Y7839603D02*
Y7984600D01*
X15319901Y7410500D02*
X15464897D01*
X15319901Y7575500D02*
X15464897D01*
X10697100Y5885300D02*
Y5900300D01*
X10842100Y5885300D02*
Y5900300D01*
X6252103Y8502700D02*
X6397100D01*
X6252103Y8667700D02*
X6397100D01*
X6252100Y8896300D02*
X6397097D01*
X6252100Y8731300D02*
X6397097D01*
X6960800Y9834100D02*
X7190800D01*
X6960800Y8784100D02*
Y9834100D01*
Y8784100D02*
X7190800D01*
X6490800Y9711300D02*
Y9821300D01*
X6310800Y9711300D02*
Y9821300D01*
X6242000Y9262003D02*
Y9407000D01*
X6077000Y9262003D02*
Y9407000D01*
X6490800Y9247583D02*
Y9357583D01*
X6310800Y9247583D02*
Y9357583D01*
X15064391Y3323348D02*
X15554391D01*
X15064391Y4353348D02*
X15554391D01*
Y3323348D02*
Y4353348D01*
X15064391Y3323348D02*
Y4353348D01*
X15114391Y3323348D02*
Y4353348D01*
X14444800Y5650500D02*
Y6160500D01*
X14104800Y5650500D02*
Y6160500D01*
Y5650500D02*
X14444800D01*
X14104800Y6160500D02*
X14444800D01*
X13406300Y3872500D02*
X13746300D01*
X13406300Y4382500D02*
X13746300D01*
Y3872500D02*
Y4382500D01*
X13406300Y3872500D02*
Y4382500D01*
X9264600Y7053700D02*
Y7198697D01*
X9099600Y7053700D02*
Y7198697D01*
X10752700Y8190400D02*
X10862700D01*
X10752700Y8370400D02*
X10862700D01*
X10691653Y9549300D02*
X10771347D01*
X10691653Y9729300D02*
X10771347D01*
X10415100Y10209053D02*
Y10288747D01*
X10235100Y10209053D02*
Y10288747D01*
X10759450Y10447150D02*
X11109950D01*
Y9796650D02*
Y10447150D01*
X10759450Y9796650D02*
X11109950D01*
X10759450D02*
Y10447150D01*
X10173800Y10226400D02*
Y10271400D01*
X9993800Y10226400D02*
Y10271400D01*
X10083800Y9958900D02*
Y10008900D01*
X10058800Y9983900D02*
X10108800D01*
X9798000Y10027600D02*
Y10172597D01*
X9633000Y10027600D02*
Y10172597D01*
X8436503Y10712400D02*
X8581500D01*
X8436503Y10547400D02*
X8581500D01*
X6690100Y3637900D02*
X7180100D01*
X6690100Y4667900D02*
X7180100D01*
Y3637900D02*
Y4667900D01*
X6690100Y3637900D02*
Y4667900D01*
X6740100Y3637900D02*
Y4667900D01*
X8300170Y4669916D02*
X8790170D01*
X8300170Y3639916D02*
X8790170D01*
X8300170D02*
Y4669916D01*
X8790170Y3639916D02*
Y4669916D01*
X8740170Y3639916D02*
Y4669916D01*
X7550100Y6137800D02*
Y6282797D01*
X7385100Y6137800D02*
Y6282797D01*
X7492053Y5824917D02*
X7637049D01*
X7492053Y5659917D02*
X7637049D01*
X7879200Y6277500D02*
X7894200D01*
X7879200Y6422500D02*
X7894200D01*
X7839600Y5950000D02*
X7984597D01*
X7839600Y6115000D02*
X7984597D01*
X7964653Y5098417D02*
Y5243413D01*
X8129653Y5098417D02*
Y5243413D01*
X8384800Y5098420D02*
Y5243417D01*
X8219800Y5098420D02*
Y5243417D01*
X7032400Y7348805D02*
X7812400D01*
X7032400Y7069272D02*
Y7348805D01*
Y7069272D02*
X7812400D01*
Y7348805D01*
X7612500Y7738000D02*
X7627500D01*
X7612500Y7883000D02*
X7627500D01*
X7728190Y6716810D02*
X8019810D01*
X7728190Y6491190D02*
X8019810D01*
X8137000Y7320400D02*
Y7335400D01*
X7992000Y7320400D02*
Y7335400D01*
X8106300Y6839000D02*
X8251297D01*
X8106300Y7004000D02*
X8251297D01*
X8243790Y7182090D02*
Y7473710D01*
X8469410Y7182090D02*
Y7473710D01*
X6895153Y5824917D02*
X7040149D01*
X6895153Y5659917D02*
X7040149D01*
X7630700Y3826180D02*
Y3920820D01*
X7380700Y3826180D02*
Y3920820D01*
X7457270Y3211629D02*
Y3306269D01*
X7707270Y3211629D02*
Y3306269D01*
X8113670Y3211629D02*
Y3306269D01*
X7863670Y3211629D02*
Y3306269D01*
Y3826584D02*
Y3921224D01*
X8113670Y3826584D02*
Y3921224D01*
X6971133Y3263917D02*
X7065773D01*
X6971133Y3013917D02*
X7065773D01*
X6926700Y6397100D02*
X6941700D01*
X6926700Y6252100D02*
X6941700D01*
X6801090Y6503890D02*
X7092710D01*
X6801090Y6729510D02*
X7092710D01*
X6879700Y6952100D02*
Y6967100D01*
X6734700Y6952100D02*
Y6967100D01*
X7093000Y7903103D02*
Y8048100D01*
X7258000Y7903103D02*
Y8048100D01*
X6864400Y7903103D02*
Y8048100D01*
X7029400Y7903103D02*
Y8048100D01*
X6635800Y7903103D02*
Y8048100D01*
X6800800Y7903103D02*
Y8048100D01*
X10163500Y7053701D02*
Y7198697D01*
X9998500Y7053701D02*
Y7198697D01*
X10032227Y6356255D02*
Y6501252D01*
X9867227Y6356255D02*
Y6501252D01*
X10274697Y6356255D02*
Y6501251D01*
X10109697Y6356255D02*
Y6501251D01*
X9275528Y6356254D02*
Y6501250D01*
X9110528Y6356254D02*
Y6501250D01*
X9524407Y6356254D02*
Y6501251D01*
X9359407Y6356254D02*
Y6501251D01*
X10269438Y4688307D02*
Y4833304D01*
X10104438Y4688307D02*
Y4833304D01*
X10009243Y3978161D02*
Y4123158D01*
X9844243Y3978161D02*
Y4123158D01*
X10258311Y3978161D02*
Y4123158D01*
X10093311Y3978161D02*
Y4123158D01*
X9256659Y3978161D02*
Y4123158D01*
X9091659Y3978161D02*
Y4123158D01*
X9488671Y3978160D02*
Y4123157D01*
X9323671Y3978160D02*
Y4123157D01*
X9251900Y4626500D02*
Y4771497D01*
X9086900Y4626500D02*
Y4771497D01*
X16506094Y3135434D02*
Y3230074D01*
X16256094Y3135434D02*
Y3230074D01*
X10639000Y3485500D02*
Y4515500D01*
X10589000Y3485500D02*
Y4515500D01*
X11079000Y3485500D02*
Y4515500D01*
X10589000D02*
X11079000D01*
X10589000Y3485500D02*
X11079000D01*
X12630094Y3506094D02*
Y4536094D01*
X12680095Y3506094D02*
Y4536094D01*
X12190094Y3506094D02*
Y4536094D01*
Y3506094D02*
X12680095D01*
X12190094Y4536094D02*
X12680095D01*
X17110008Y3323348D02*
Y4353348D01*
X17160008Y3323348D02*
Y4353348D01*
X16670009Y3323348D02*
Y4353348D01*
Y3323348D02*
X17160008D01*
X16670009Y4353348D02*
X17160008D01*
X15849695Y3135434D02*
Y3230074D01*
X16099695Y3135434D02*
Y3230074D01*
X16005600Y3769780D02*
Y3864420D01*
X15755600Y3769780D02*
Y3864420D01*
X16243394Y3770434D02*
Y3865074D01*
X16493394Y3770434D02*
Y3865074D01*
X10585500Y6849003D02*
Y6994000D01*
X10750500Y6849003D02*
Y6994000D01*
X12132200Y5746800D02*
X12277197D01*
X12132200Y5911800D02*
X12277197D01*
X11349481Y3318180D02*
Y3412820D01*
X11599481Y3318180D02*
Y3412820D01*
X11819381Y3953180D02*
Y4047820D01*
X12069381Y3953180D02*
Y4047820D01*
Y3318180D02*
Y3412820D01*
X11819381Y3318180D02*
Y3412820D01*
X11504200Y3953180D02*
Y4047820D01*
X11254200Y3953180D02*
Y4047820D01*
X11769200Y6007033D02*
Y6286567D01*
X10989200Y6007033D02*
X11769200D01*
X10989200D02*
Y6286567D01*
X11769200D01*
X11852800Y4857800D02*
X11997797D01*
X11852800Y5022800D02*
X11997797D01*
X11550600Y5045600D02*
Y5190597D01*
X11385600Y5045600D02*
Y5190597D01*
X13414900Y6786945D02*
X13559897D01*
X13414900Y6621945D02*
X13559897D01*
X13414900Y6024700D02*
X13559897D01*
X13414900Y5859700D02*
X13559897D01*
X13414900Y7301811D02*
X13559897D01*
X13414900Y7136811D02*
X13559897D01*
X13414900Y7046389D02*
X13559897D01*
X13414900Y6881389D02*
X13559897D01*
X14278503Y4042166D02*
X14423500D01*
X14278503Y4207166D02*
X14423500D01*
X14278503Y3534707D02*
X14423500D01*
X14278503Y3699707D02*
X14423500D01*
X14278503Y3015851D02*
X14423500D01*
X14278503Y3180851D02*
X14423500D01*
X14278503Y3274254D02*
X14423500D01*
X14278503Y3439254D02*
X14423500D01*
X14278503Y4295241D02*
X14423500D01*
X14278503Y4460241D02*
X14423500D01*
X13414900Y6278112D02*
X13559897D01*
X13414900Y6113112D02*
X13559897D01*
X13414900Y5776831D02*
X13559895D01*
X13414900Y5611832D02*
X13559895D01*
X14278503Y4547665D02*
X14423499D01*
X14278503Y4712664D02*
X14423499D01*
X16176401Y4661700D02*
X16321397D01*
X16176401Y4826700D02*
X16321397D01*
X11080800Y6849003D02*
Y6994000D01*
X11245800Y6849003D02*
Y6994000D01*
X11568929Y6831091D02*
X11583929D01*
X11568929Y6686092D02*
X11583929D01*
X10839500Y6849003D02*
Y6994000D01*
X11004500Y6849003D02*
Y6994000D01*
X11754090Y5637310D02*
X12045710D01*
X11754090Y5411690D02*
X12045710D01*
X12193490Y6204190D02*
Y6495810D01*
X12419110Y6204190D02*
Y6495810D01*
X12099400Y6342500D02*
Y6357500D01*
X11954400Y6342500D02*
Y6357500D01*
X11892400Y5172600D02*
X11907400D01*
X11892400Y5317600D02*
X11907400D01*
X10776190Y5449790D02*
X11067810D01*
X10776190Y5675410D02*
X11067810D01*
X10914500Y5330300D02*
X10929500D01*
X10914500Y5185300D02*
X10929500D01*
X16042000Y5823633D02*
Y6103167D01*
X15262000Y5823633D02*
X16042000D01*
X15262000D02*
Y6103167D01*
X16042000D01*
X16405000Y5550700D02*
X16549997D01*
X16405000Y5715700D02*
X16549997D01*
X15831912Y4844154D02*
Y4989150D01*
X15666911Y4844154D02*
Y4989150D01*
X15074390Y5253690D02*
X15366010D01*
X15074390Y5479310D02*
X15366010D01*
X16064990Y5453910D02*
X16356610D01*
X16064990Y5228290D02*
X16356610D01*
X15223509Y5121013D02*
X15238510D01*
X15223509Y4976013D02*
X15238510D01*
X16203300Y4984154D02*
X16218300D01*
X16203300Y5129154D02*
X16218300D01*
X15127600Y5714600D02*
Y5729600D01*
X14982600Y5714600D02*
Y5729600D01*
X16453590Y5969990D02*
Y6261610D01*
X16679210Y5969990D02*
Y6261610D01*
X16346800Y6108300D02*
Y6123300D01*
X16201801Y6108300D02*
Y6123300D01*
X15840045Y6513346D02*
X15855045D01*
X15840045Y6658346D02*
X15855045D01*
X15347568Y6640203D02*
Y6785200D01*
X15512567Y6640203D02*
Y6785200D01*
X15106340Y6640204D02*
Y6785200D01*
X15271339Y6640204D02*
Y6785200D01*
X14852248Y6640203D02*
Y6785200D01*
X15017249Y6640203D02*
Y6785200D01*
X4537600Y5822900D02*
X4682597D01*
X4537600Y5657900D02*
X4682597D01*
X4550080Y3024600D02*
X4644720D01*
X4550080Y3274600D02*
X4644720D01*
X5787560Y3758612D02*
Y3853252D01*
X5537560Y3758612D02*
Y3853252D01*
X5381160Y3165780D02*
Y3260420D01*
X5131160Y3165780D02*
Y3260420D01*
X5031200Y3826180D02*
Y3920820D01*
X5281200Y3826180D02*
Y3920820D01*
X5556300Y5134500D02*
Y5279497D01*
X5721300Y5134500D02*
Y5279497D01*
X5537560Y3165780D02*
Y3260420D01*
X5787560Y3165780D02*
Y3260420D01*
X5951329Y5134503D02*
Y5279500D01*
X5786330Y5134503D02*
Y5279500D01*
X5464700Y6140400D02*
X5609697D01*
X5464700Y5975400D02*
X5609697D01*
X5555100Y6435200D02*
X5570100D01*
X5555100Y6290200D02*
X5570100D01*
X4476700Y7941203D02*
Y8086200D01*
X4311700Y7941203D02*
Y8086200D01*
X4718000Y7941203D02*
Y8086200D01*
X4553000Y7941203D02*
Y8086200D01*
X4971997Y7935900D02*
Y8080896D01*
X4806997Y7935900D02*
Y8080896D01*
X4464290Y6742210D02*
X4755910D01*
X4464290Y6516590D02*
X4755910D01*
X4615300Y6264800D02*
X4630300D01*
X4615300Y6409800D02*
X4630300D01*
X5035603Y6155804D02*
Y6300800D01*
X5200603Y6155804D02*
Y6300800D01*
X5416790Y6516590D02*
X5708410D01*
X5416790Y6742210D02*
X5708410D01*
X5629800Y7345800D02*
Y7360800D01*
X5774800Y7345800D02*
Y7360800D01*
X6094510Y7207490D02*
Y7499110D01*
X5868890Y7207490D02*
Y7499110D01*
X6416755Y3612500D02*
Y4642500D01*
X6466755Y3612500D02*
Y4642500D01*
X5976755Y3612500D02*
Y4642500D01*
Y3612500D02*
X6466755D01*
X5976755Y4642500D02*
X6466755D01*
X5122140Y5822900D02*
X5267137D01*
X5122140Y5657900D02*
X5267137D01*
X5288400Y7933800D02*
X5303400D01*
X5288400Y7788800D02*
X5303400D01*
X4436000Y6964800D02*
Y6979800D01*
X4581000Y6964800D02*
Y6979800D01*
X5776900Y6915200D02*
X5921897D01*
X5776900Y7080200D02*
X5921897D01*
D107*
X5445400Y7329167D02*
G03*
X5445400Y7329167I-25000J0D01*
G01*
X7762400Y7273805D02*
G03*
X7762400Y7273805I-25000J0D01*
G01*
X11719200Y6211567D02*
G03*
X11719200Y6211567I-25000J0D01*
G01*
X15992000Y6028167D02*
G03*
X15992000Y6028167I-25000J0D01*
G01*
D108*
X13819800Y5203500D02*
G03*
X13819800Y5203500I-30000J0D01*
G01*
X14374800Y5750500D02*
G03*
X14374800Y5750500I-30000J0D01*
G01*
X13536301Y4282500D02*
G03*
X13536301Y4282500I-30000J0D01*
G01*
D109*
X17187399Y9156700D02*
G03*
X17187399Y9156700I-525000J0D01*
G01*
X15168100Y9495600D02*
G03*
X15168100Y9495600I-525000J0D01*
G01*
D110*
X3118600Y8819800D02*
X3993600D01*
X3118600D02*
Y10269800D01*
X3993600D01*
X4313600D02*
X4528600D01*
X4313600Y8819800D02*
X4528600D01*
Y10269800D01*
X5463350Y5107200D02*
Y5332200D01*
X4950650Y5107200D02*
Y5332200D01*
X11964400Y7633700D02*
Y8073700D01*
X12934399Y7633700D02*
Y8073700D01*
X9370250Y7051800D02*
Y7276800D01*
X9882950Y7051800D02*
Y7276800D01*
X10257161Y3200507D02*
Y3425507D01*
X9744461Y3200507D02*
Y3425507D01*
X7333603Y5096517D02*
Y5321517D01*
X7846303Y5096517D02*
Y5321517D01*
X6711303Y5096517D02*
Y5321517D01*
X7224003Y5096517D02*
Y5321517D01*
X9978686Y4673707D02*
Y4898707D01*
X9465986Y4673707D02*
Y4898707D01*
X9523258Y5578602D02*
Y5803602D01*
X9010558Y5578602D02*
Y5803602D01*
X9487521Y3200507D02*
Y3425507D01*
X8974821Y3200507D02*
Y3425507D01*
X10273547Y5578602D02*
Y5803602D01*
X9760847Y5578602D02*
Y5803602D01*
X12380150Y5037700D02*
Y5262700D01*
X12892850Y5037700D02*
Y5262700D01*
X16656934Y4899054D02*
Y5124054D01*
X17169633Y4899054D02*
Y5124054D01*
X4328350Y5094500D02*
Y5319500D01*
X4841050Y5094500D02*
Y5319500D01*
D111*
X7517866Y4592607D02*
X7647866D01*
X7923670Y4270107D02*
X8053670D01*
X15910291Y4526841D02*
X16040291D01*
X16303395Y4146841D02*
X16433395D01*
X11879381Y4329587D02*
X12009382D01*
X11409481Y4709587D02*
X11539482D01*
X5191755Y4499687D02*
X5321756D01*
X5597560Y4177187D02*
X5727560D01*
D112*
X15659100Y2336767D02*
X15709883Y2235200D01*
X15760667Y2336767D01*
X15811452Y2235200D02*
X15862234D01*
X15836842D01*
Y2387551D01*
X15811452Y2362159D01*
X15938409Y2235200D02*
Y2260592D01*
X15963802D01*
Y2235200D01*
X15938409D01*
X16065369Y2362159D02*
X16090759Y2387551D01*
X16141544D01*
X16166936Y2362159D01*
Y2260592D01*
X16141544Y2235200D01*
X16090759D01*
X16065369Y2260592D01*
Y2362159D01*
X16370070Y2311375D02*
X16471637D01*
X16776340Y2235200D02*
X16674771D01*
X16776340Y2336767D01*
Y2362159D01*
X16750948Y2387551D01*
X16700163D01*
X16674771Y2362159D01*
X16827122D02*
X16852515Y2387551D01*
X16903297D01*
X16928690Y2362159D01*
Y2260592D01*
X16903297Y2235200D01*
X16852515D01*
X16827122Y2260592D01*
Y2362159D01*
X17081039Y2235200D02*
X16979472D01*
X17081039Y2336767D01*
Y2362159D01*
X17055647Y2387551D01*
X17004865D01*
X16979472Y2362159D01*
X17233391Y2387551D02*
X17131824D01*
Y2311375D01*
X17182607Y2336767D01*
X17207999D01*
X17233391Y2311375D01*
Y2260592D01*
X17207999Y2235200D01*
X17157214D01*
X17131824Y2260592D01*
X4356100Y2217723D02*
Y2317690D01*
X4406084D01*
X4422745Y2301029D01*
Y2267706D01*
X4406084Y2251045D01*
X4356100D01*
X4389423D02*
X4422745Y2217723D01*
X4506052D02*
X4472729D01*
X4456068Y2234384D01*
Y2267706D01*
X4472729Y2284368D01*
X4506052D01*
X4522713Y2267706D01*
Y2251045D01*
X4456068D01*
X4556036Y2284368D02*
X4589358Y2217723D01*
X4622681Y2284368D01*
X4656003Y2217723D02*
X4689326D01*
X4672665D01*
Y2284368D01*
X4656003D01*
X4789294Y2217723D02*
X4755971D01*
X4739310Y2234384D01*
Y2267706D01*
X4755971Y2284368D01*
X4789294D01*
X4805955Y2267706D01*
Y2251045D01*
X4739310D01*
X4839278Y2284368D02*
Y2234384D01*
X4855939Y2217723D01*
X4872600Y2234384D01*
X4889261Y2217723D01*
X4905923Y2234384D01*
Y2284368D01*
X4989229Y2217723D02*
X4955907D01*
X4939245Y2234384D01*
Y2267706D01*
X4955907Y2284368D01*
X4989229D01*
X5005890Y2267706D01*
Y2251045D01*
X4939245D01*
X5105858Y2317690D02*
Y2217723D01*
X5055875D01*
X5039213Y2234384D01*
Y2267706D01*
X5055875Y2284368D01*
X5105858D01*
X5239149Y2317690D02*
Y2217723D01*
X5289133D01*
X5305794Y2234384D01*
Y2251045D01*
Y2267706D01*
X5289133Y2284368D01*
X5239149D01*
X5339117D02*
Y2234384D01*
X5355778Y2217723D01*
X5405762D01*
Y2201061D01*
X5389100Y2184400D01*
X5372439D01*
X5405762Y2217723D02*
Y2284368D01*
X5539052Y2317690D02*
Y2217723D01*
X5589036D01*
X5605697Y2234384D01*
Y2251045D01*
X5589036Y2267706D01*
X5539052D01*
X5589036D01*
X5605697Y2284368D01*
Y2301029D01*
X5589036Y2317690D01*
X5539052D01*
X5639020Y2284368D02*
Y2217723D01*
Y2251045D01*
X5655681Y2267706D01*
X5672342Y2284368D01*
X5689004D01*
X5738988D02*
Y2234384D01*
X5755649Y2217723D01*
X5805633D01*
Y2284368D01*
X5838956Y2217723D02*
Y2284368D01*
X5888939D01*
X5905601Y2267706D01*
Y2217723D01*
X5955585D02*
X5988907D01*
X6005568Y2234384D01*
Y2267706D01*
X5988907Y2284368D01*
X5955585D01*
X5938923Y2267706D01*
Y2234384D01*
X5955585Y2217723D01*
X6138859Y2317690D02*
Y2251045D01*
X6172181Y2217723D01*
X6205504Y2251045D01*
Y2317690D01*
X6238827Y2217723D02*
Y2234384D01*
X6255488D01*
Y2217723D01*
X6238827D01*
X6422101D02*
Y2317690D01*
X6455423Y2284368D01*
X6488746Y2317690D01*
Y2217723D01*
X6522069D02*
Y2234384D01*
X6538730D01*
Y2217723D01*
X6522069D01*
X6771988Y2301029D02*
X6755327Y2317690D01*
X6722004D01*
X6705343Y2301029D01*
Y2234384D01*
X6722004Y2217723D01*
X6755327D01*
X6771988Y2234384D01*
X6821972Y2284368D02*
X6855295D01*
X6871956Y2267706D01*
Y2217723D01*
X6821972D01*
X6805311Y2234384D01*
X6821972Y2251045D01*
X6871956D01*
X6905279Y2217723D02*
X6955262D01*
X6971924Y2234384D01*
X6955262Y2251045D01*
X6921940D01*
X6905279Y2267706D01*
X6921940Y2284368D01*
X6971924D01*
X7021908Y2301029D02*
Y2284368D01*
X7005246D01*
X7038569D01*
X7021908D01*
Y2234384D01*
X7038569Y2217723D01*
X7105214Y2284368D02*
X7138537D01*
X7155198Y2267706D01*
Y2217723D01*
X7105214D01*
X7088553Y2234384D01*
X7105214Y2251045D01*
X7155198D01*
X7188521Y2217723D02*
Y2284368D01*
X7238504D01*
X7255166Y2267706D01*
Y2217723D01*
X7288488Y2317690D02*
Y2217723D01*
Y2267706D01*
X7305150Y2284368D01*
X7338472D01*
X7355133Y2267706D01*
Y2217723D01*
X7405118D02*
X7438440D01*
X7455101Y2234384D01*
Y2267706D01*
X7438440Y2284368D01*
X7405118D01*
X7388456Y2267706D01*
Y2234384D01*
X7405118Y2217723D01*
X8089962Y6464275D02*
Y6311925D01*
X8166137D01*
X8191529Y6337317D01*
Y6438883D01*
X8166137Y6464275D01*
X8089962D01*
X8242312Y6311925D02*
X8293096D01*
X8267704D01*
Y6464275D01*
X8242312Y6438883D01*
X8470839Y6311925D02*
X8369271D01*
X8470839Y6413492D01*
Y6438883D01*
X8445447Y6464275D01*
X8394663D01*
X8369271Y6438883D01*
X4343400Y2565334D02*
Y2412983D01*
X4419575D01*
X4444967Y2438375D01*
Y2539942D01*
X4419575Y2565334D01*
X4343400D01*
X4571926Y2412983D02*
X4521143D01*
X4495751Y2438375D01*
Y2489159D01*
X4521143Y2514551D01*
X4571926D01*
X4597318Y2489159D01*
Y2463767D01*
X4495751D01*
X4648101Y2412983D02*
X4724277D01*
X4749669Y2438375D01*
X4724277Y2463767D01*
X4673493D01*
X4648101Y2489159D01*
X4673493Y2514551D01*
X4749669D01*
X4800452Y2412983D02*
X4851236D01*
X4825844D01*
Y2514551D01*
X4800452D01*
X4978195Y2362200D02*
X5003586D01*
X5028978Y2387592D01*
Y2514551D01*
X4952803D01*
X4927411Y2489159D01*
Y2438375D01*
X4952803Y2412983D01*
X5028978D01*
X5079762D02*
Y2514551D01*
X5155937D01*
X5181329Y2489159D01*
Y2412983D01*
X5308288D02*
X5257504D01*
X5232112Y2438375D01*
Y2489159D01*
X5257504Y2514551D01*
X5308288D01*
X5333680Y2489159D01*
Y2463767D01*
X5232112D01*
X5486030Y2565334D02*
Y2412983D01*
X5409855D01*
X5384463Y2438375D01*
Y2489159D01*
X5409855Y2514551D01*
X5486030D01*
X5689165Y2565334D02*
Y2412983D01*
X5765340D01*
X5790732Y2438375D01*
Y2463767D01*
Y2489159D01*
X5765340Y2514551D01*
X5689165D01*
X5841515D02*
Y2438375D01*
X5866907Y2412983D01*
X5943083D01*
Y2387592D01*
X5917691Y2362200D01*
X5892299D01*
X5943083Y2412983D02*
Y2514551D01*
X6146217Y2412983D02*
Y2514551D01*
X6197000Y2565334D01*
X6247784Y2514551D01*
Y2412983D01*
Y2489159D01*
X6146217D01*
X6298568Y2412983D02*
X6349351D01*
X6323959D01*
Y2565334D01*
X6298568D01*
X6425526D02*
Y2412983D01*
X6501702D01*
X6527094Y2438375D01*
Y2463767D01*
Y2489159D01*
X6501702Y2514551D01*
X6425526D01*
X6654052Y2412983D02*
X6603269D01*
X6577877Y2438375D01*
Y2489159D01*
X6603269Y2514551D01*
X6654052D01*
X6679444Y2489159D01*
Y2463767D01*
X6577877D01*
X6730228Y2514551D02*
Y2412983D01*
Y2463767D01*
X6755620Y2489159D01*
X6781011Y2514551D01*
X6806403D01*
X6907970Y2539942D02*
Y2514551D01*
X6882579D01*
X6933362D01*
X6907970D01*
Y2438375D01*
X6933362Y2412983D01*
X7161888Y2565334D02*
Y2412983D01*
Y2463767D01*
X7263455Y2565334D01*
X7187280Y2489159D01*
X7263455Y2412983D01*
X7314239D02*
X7365022D01*
X7339631D01*
Y2514551D01*
X7314239D01*
X7441198D02*
Y2412983D01*
Y2463767D01*
X7466590Y2489159D01*
X7491981Y2514551D01*
X7517373D01*
X7695116D02*
X7618940D01*
X7593548Y2489159D01*
Y2438375D01*
X7618940Y2412983D01*
X7695116D01*
X7745899Y2565334D02*
Y2412983D01*
Y2489159D01*
X7771291Y2514551D01*
X7822075D01*
X7847466Y2489159D01*
Y2412983D01*
X7898250D02*
Y2514551D01*
X7974425D01*
X7999817Y2489159D01*
Y2412983D01*
X8126776D02*
X8075992D01*
X8050601Y2438375D01*
Y2489159D01*
X8075992Y2514551D01*
X8126776D01*
X8152168Y2489159D01*
Y2463767D01*
X8050601D01*
X8202951Y2514551D02*
Y2412983D01*
Y2463767D01*
X8228343Y2489159D01*
X8253735Y2514551D01*
X8279127D01*
X12814325Y2209808D02*
Y2159025D01*
Y2184417D01*
X12941283D01*
X12966675Y2159025D01*
Y2133633D01*
X12941283Y2108241D01*
X12966675Y2336767D02*
X12814325D01*
X12890500Y2260592D01*
Y2362159D01*
X10134633Y8267675D02*
Y8242283D01*
X10185417Y8191500D01*
X10236200Y8242283D01*
Y8267675D01*
X10185417Y8191500D02*
Y8115325D01*
X10286984D02*
X10337767D01*
X10312376D01*
Y8267675D01*
X10286984Y8242283D01*
X13068362Y3530575D02*
Y3378225D01*
X13144537D01*
X13169930Y3403617D01*
Y3505183D01*
X13144537Y3530575D01*
X13068362D01*
X13220712Y3378225D02*
X13271497D01*
X13246104D01*
Y3530575D01*
X13220712Y3505183D01*
X13449239Y3530575D02*
X13398454Y3505183D01*
X13347672Y3454400D01*
Y3403617D01*
X13373064Y3378225D01*
X13423846D01*
X13449239Y3403617D01*
Y3429008D01*
X13423846Y3454400D01*
X13347672D01*
X12712724Y3949761D02*
X12865076D01*
Y4025937D01*
X12839684Y4051329D01*
X12738116D01*
X12712724Y4025937D01*
Y3949761D01*
X12865076Y4102112D02*
Y4152896D01*
Y4127504D01*
X12712724D01*
X12738116Y4102112D01*
X12712724Y4330638D02*
Y4229071D01*
X12788900D01*
X12763508Y4279855D01*
Y4305246D01*
X12788900Y4330638D01*
X12839684D01*
X12865076Y4305246D01*
Y4254463D01*
X12839684Y4229071D01*
X8242325Y5867462D02*
X8394675D01*
Y5943637D01*
X8369283Y5969029D01*
X8267717D01*
X8242325Y5943637D01*
Y5867462D01*
X8394675Y6019812D02*
Y6070596D01*
Y6045204D01*
X8242325D01*
X8267717Y6019812D01*
X8394675Y6222947D02*
X8242325D01*
X8318500Y6146771D01*
Y6248339D01*
X8521725Y5041962D02*
X8674075D01*
Y5118137D01*
X8648683Y5143529D01*
X8547117D01*
X8521725Y5118137D01*
Y5041962D01*
X8674075Y5194312D02*
Y5245096D01*
Y5219704D01*
X8521725D01*
X8547117Y5194312D01*
Y5321271D02*
X8521725Y5346663D01*
Y5397447D01*
X8547117Y5422839D01*
X8572508D01*
X8597900Y5397447D01*
Y5372055D01*
Y5397447D01*
X8623292Y5422839D01*
X8648683D01*
X8674075Y5397447D01*
Y5346663D01*
X8648683Y5321271D01*
X8534425Y6972354D02*
X8686775D01*
Y7048529D01*
X8661383Y7073921D01*
X8559817D01*
X8534425Y7048529D01*
Y6972354D01*
X8686775Y7124704D02*
Y7175488D01*
Y7150096D01*
X8534425D01*
X8559817Y7124704D01*
X8686775Y7251663D02*
Y7302447D01*
Y7277055D01*
X8534425D01*
X8559817Y7251663D01*
X14643163Y3568675D02*
Y3416325D01*
X14719337D01*
X14744730Y3441717D01*
Y3543283D01*
X14719337Y3568675D01*
X14643163D01*
X14795512Y3416325D02*
X14846297D01*
X14820905D01*
Y3568675D01*
X14795512Y3543283D01*
X14922472D02*
X14947862Y3568675D01*
X14998647D01*
X15024039Y3543283D01*
Y3441717D01*
X14998647Y3416325D01*
X14947862D01*
X14922472Y3441717D01*
Y3543283D01*
X14579625Y4876841D02*
X14731975D01*
Y4953017D01*
X14706583Y4978408D01*
X14605017D01*
X14579625Y4953017D01*
Y4876841D01*
X14706583Y5029192D02*
X14731975Y5054584D01*
Y5105367D01*
X14706583Y5130759D01*
X14605017D01*
X14579625Y5105367D01*
Y5054584D01*
X14605017Y5029192D01*
X14630408D01*
X14655800Y5054584D01*
Y5130759D01*
X4711708Y10591775D02*
X4660925D01*
X4686317D01*
Y10464817D01*
X4660925Y10439425D01*
X4635533D01*
X4610141Y10464817D01*
X4864059Y10591775D02*
X4813275Y10566383D01*
X4762492Y10515600D01*
Y10464817D01*
X4787884Y10439425D01*
X4838667D01*
X4864059Y10464817D01*
Y10490208D01*
X4838667Y10515600D01*
X4762492D01*
X13741408Y10782275D02*
X13690625D01*
X13716017D01*
Y10655317D01*
X13690625Y10629925D01*
X13665233D01*
X13639841Y10655317D01*
X13893759Y10782275D02*
X13792192D01*
Y10706100D01*
X13842975Y10731492D01*
X13868367D01*
X13893759Y10706100D01*
Y10655317D01*
X13868367Y10629925D01*
X13817584D01*
X13792192Y10655317D01*
X15328908Y10693375D02*
X15278125D01*
X15303517D01*
Y10566417D01*
X15278125Y10541025D01*
X15252733D01*
X15227341Y10566417D01*
X15379692Y10667983D02*
X15405084Y10693375D01*
X15455867D01*
X15481259Y10667983D01*
Y10642592D01*
X15455867Y10617200D01*
X15430475D01*
X15455867D01*
X15481259Y10591808D01*
Y10566417D01*
X15455867Y10541025D01*
X15405084D01*
X15379692Y10566417D01*
X9969533Y9080475D02*
Y8953517D01*
X9994925Y8928125D01*
X10045708D01*
X10071100Y8953517D01*
Y9080475D01*
X10121884Y8928125D02*
X10172667D01*
X10147276D01*
Y9080475D01*
X10121884Y9055083D01*
X10541033Y8978875D02*
X10642600Y8826525D01*
Y8978875D02*
X10541033Y8826525D01*
X10693384D02*
X10744167D01*
X10718776D01*
Y8978875D01*
X10693384Y8953483D01*
X7378733Y10223483D02*
X7353341Y10248875D01*
X7302558D01*
X7277166Y10223483D01*
Y10198092D01*
X7302558Y10172700D01*
X7353341D01*
X7378733Y10147308D01*
Y10121917D01*
X7353341Y10096525D01*
X7302558D01*
X7277166Y10121917D01*
X7429517Y10248875D02*
Y10096525D01*
X7480300Y10147308D01*
X7531084Y10096525D01*
Y10248875D01*
X7683434Y10096525D02*
X7581867D01*
X7683434Y10198092D01*
Y10223483D01*
X7658043Y10248875D01*
X7607259D01*
X7581867Y10223483D01*
X9715525Y10807683D02*
X9690133Y10833075D01*
X9639350D01*
X9613958Y10807683D01*
Y10782292D01*
X9639350Y10756900D01*
X9690133D01*
X9715525Y10731508D01*
Y10706117D01*
X9690133Y10680725D01*
X9639350D01*
X9613958Y10706117D01*
X9766308Y10833075D02*
Y10680725D01*
X9817092Y10731508D01*
X9867876Y10680725D01*
Y10833075D01*
X9918659Y10680725D02*
X9969443D01*
X9944051D01*
Y10833075D01*
X9918659Y10807683D01*
X8737625Y3111566D02*
X8864583D01*
X8889975Y3136958D01*
Y3187741D01*
X8864583Y3213133D01*
X8737625D01*
X8763017Y3263917D02*
X8737625Y3289308D01*
Y3340092D01*
X8763017Y3365484D01*
X8788408D01*
X8813800Y3340092D01*
Y3314700D01*
Y3340092D01*
X8839192Y3365484D01*
X8864583D01*
X8889975Y3340092D01*
Y3289308D01*
X8864583Y3263917D01*
X8889975Y3492443D02*
X8737625D01*
X8813800Y3416267D01*
Y3517834D01*
X10350525Y4533966D02*
X10477483D01*
X10502875Y4559358D01*
Y4610141D01*
X10477483Y4635533D01*
X10350525D01*
X10375917Y4686317D02*
X10350525Y4711708D01*
Y4762492D01*
X10375917Y4787884D01*
X10401308D01*
X10426700Y4762492D01*
Y4737100D01*
Y4762492D01*
X10452092Y4787884D01*
X10477483D01*
X10502875Y4762492D01*
Y4711708D01*
X10477483Y4686317D01*
X10375917Y4838667D02*
X10350525Y4864059D01*
Y4914843D01*
X10375917Y4940234D01*
X10401308D01*
X10426700Y4914843D01*
Y4889451D01*
Y4914843D01*
X10452092Y4940234D01*
X10477483D01*
X10502875Y4914843D01*
Y4864059D01*
X10477483Y4838667D01*
X9537725Y3111566D02*
X9664683D01*
X9690075Y3136958D01*
Y3187741D01*
X9664683Y3213133D01*
X9537725D01*
X9563117Y3263917D02*
X9537725Y3289308D01*
Y3340092D01*
X9563117Y3365484D01*
X9588508D01*
X9613900Y3340092D01*
Y3314700D01*
Y3340092D01*
X9639292Y3365484D01*
X9664683D01*
X9690075Y3340092D01*
Y3289308D01*
X9664683Y3263917D01*
X9690075Y3517834D02*
Y3416267D01*
X9588508Y3517834D01*
X9563117D01*
X9537725Y3492443D01*
Y3441659D01*
X9563117Y3416267D01*
X9575824Y5600757D02*
X9702783D01*
X9728175Y5626149D01*
Y5676933D01*
X9702783Y5702325D01*
X9575824D01*
X9601216Y5753108D02*
X9575824Y5778500D01*
Y5829283D01*
X9601216Y5854675D01*
X9626608D01*
X9652000Y5829283D01*
Y5803892D01*
Y5829283D01*
X9677392Y5854675D01*
X9702783D01*
X9728175Y5829283D01*
Y5778500D01*
X9702783Y5753108D01*
X9728175Y5905459D02*
Y5956242D01*
Y5930851D01*
X9575824D01*
X9601216Y5905459D01*
X9321866Y7759675D02*
Y7632717D01*
X9347258Y7607325D01*
X9398041D01*
X9423433Y7632717D01*
Y7759675D01*
X9474217Y7734283D02*
X9499608Y7759675D01*
X9550392D01*
X9575784Y7734283D01*
Y7708892D01*
X9550392Y7683500D01*
X9525000D01*
X9550392D01*
X9575784Y7658108D01*
Y7632717D01*
X9550392Y7607325D01*
X9499608D01*
X9474217Y7632717D01*
X9626567Y7734283D02*
X9651959Y7759675D01*
X9702743D01*
X9728134Y7734283D01*
Y7632717D01*
X9702743Y7607325D01*
X9651959D01*
X9626567Y7632717D01*
Y7734283D01*
X10363225Y5740466D02*
X10490183D01*
X10515575Y5765858D01*
Y5816641D01*
X10490183Y5842033D01*
X10363225D01*
X10515575Y5994384D02*
Y5892817D01*
X10414008Y5994384D01*
X10388617D01*
X10363225Y5968992D01*
Y5918208D01*
X10388617Y5892817D01*
X10490183Y6045167D02*
X10515575Y6070559D01*
Y6121343D01*
X10490183Y6146734D01*
X10388617D01*
X10363225Y6121343D01*
Y6070559D01*
X10388617Y6045167D01*
X10414008D01*
X10439400Y6070559D01*
Y6146734D01*
X8610608Y4826017D02*
Y4927583D01*
X8585217Y4952975D01*
X8534433D01*
X8509041Y4927583D01*
Y4826017D01*
X8534433Y4800625D01*
X8585217D01*
X8559825Y4851408D02*
X8610608Y4800625D01*
X8585217D02*
X8610608Y4826017D01*
X8661392Y4927583D02*
X8686784Y4952975D01*
X8737567D01*
X8762959Y4927583D01*
Y4902192D01*
X8737567Y4876800D01*
X8762959Y4851408D01*
Y4826017D01*
X8737567Y4800625D01*
X8686784D01*
X8661392Y4826017D01*
Y4851408D01*
X8686784Y4876800D01*
X8661392Y4902192D01*
Y4927583D01*
X8686784Y4876800D02*
X8737567D01*
X6972308Y3390917D02*
Y3492483D01*
X6946917Y3517875D01*
X6896133D01*
X6870741Y3492483D01*
Y3390917D01*
X6896133Y3365525D01*
X6946917D01*
X6921525Y3416308D02*
X6972308Y3365525D01*
X6946917D02*
X6972308Y3390917D01*
X7023092Y3517875D02*
X7124659D01*
Y3492483D01*
X7023092Y3390917D01*
Y3365525D01*
X6146808Y4813317D02*
Y4914883D01*
X6121417Y4940275D01*
X6070633D01*
X6045241Y4914883D01*
Y4813317D01*
X6070633Y4787925D01*
X6121417D01*
X6096025Y4838708D02*
X6146808Y4787925D01*
X6121417D02*
X6146808Y4813317D01*
X6299159Y4940275D02*
X6248375Y4914883D01*
X6197592Y4864100D01*
Y4813317D01*
X6222984Y4787925D01*
X6273767D01*
X6299159Y4813317D01*
Y4838708D01*
X6273767Y4864100D01*
X6197592D01*
X4660908Y3378217D02*
Y3479783D01*
X4635517Y3505175D01*
X4584733D01*
X4559341Y3479783D01*
Y3378217D01*
X4584733Y3352825D01*
X4635517D01*
X4610125Y3403608D02*
X4660908Y3352825D01*
X4635517D02*
X4660908Y3378217D01*
X4813259Y3505175D02*
X4711692D01*
Y3429000D01*
X4762475Y3454392D01*
X4787867D01*
X4813259Y3429000D01*
Y3378217D01*
X4787867Y3352825D01*
X4737084D01*
X4711692Y3378217D01*
X6426266Y7480275D02*
Y7353317D01*
X6451658Y7327925D01*
X6502441D01*
X6527833Y7353317D01*
Y7480275D01*
X6680184Y7327925D02*
X6578617D01*
X6680184Y7429492D01*
Y7454883D01*
X6654792Y7480275D01*
X6604008D01*
X6578617Y7454883D01*
X6730967D02*
X6756359Y7480275D01*
X6807143D01*
X6832534Y7454883D01*
Y7429492D01*
X6807143Y7404100D01*
X6781751D01*
X6807143D01*
X6832534Y7378708D01*
Y7353317D01*
X6807143Y7327925D01*
X6756359D01*
X6730967Y7353317D01*
X13004842Y8318475D02*
Y8191517D01*
X13030232Y8166125D01*
X13081017D01*
X13106409Y8191517D01*
Y8318475D01*
X13157191Y8293083D02*
X13182584Y8318475D01*
X13233366D01*
X13258759Y8293083D01*
Y8267692D01*
X13233366Y8242300D01*
X13207974D01*
X13233366D01*
X13258759Y8216908D01*
Y8191517D01*
X13233366Y8166125D01*
X13182584D01*
X13157191Y8191517D01*
X3218147Y10645091D02*
X3167363D01*
X3192755D01*
Y10518132D01*
X3167363Y10492740D01*
X3141972D01*
X3116580Y10518132D01*
X3268931Y10492740D02*
X3319714D01*
X3294323D01*
Y10645091D01*
X3268931Y10619699D01*
X6718366Y6095975D02*
Y5969017D01*
X6743758Y5943625D01*
X6794541D01*
X6819933Y5969017D01*
Y6095975D01*
X6972284Y5943625D02*
X6870717D01*
X6972284Y6045192D01*
Y6070583D01*
X6946892Y6095975D01*
X6896108D01*
X6870717Y6070583D01*
X7023067D02*
X7048459Y6095975D01*
X7099243D01*
X7124634Y6070583D01*
Y6045192D01*
X7099243Y6019800D01*
X7124634Y5994408D01*
Y5969017D01*
X7099243Y5943625D01*
X7048459D01*
X7023067Y5969017D01*
Y5994408D01*
X7048459Y6019800D01*
X7023067Y6045192D01*
Y6070583D01*
X7048459Y6019800D02*
X7099243D01*
X13411266Y3771875D02*
Y3644917D01*
X13436658Y3619525D01*
X13487440D01*
X13512833Y3644917D01*
Y3771875D01*
X13665184Y3619525D02*
X13563617D01*
X13665184Y3721092D01*
Y3746483D01*
X13639792Y3771875D01*
X13589008D01*
X13563617Y3746483D01*
X13715967Y3771875D02*
X13817534D01*
Y3746483D01*
X13715967Y3644917D01*
Y3619525D01*
X7962966Y5803875D02*
Y5676917D01*
X7988358Y5651525D01*
X8039141D01*
X8064533Y5676917D01*
Y5803875D01*
X8216884Y5651525D02*
X8115317D01*
X8216884Y5753092D01*
Y5778483D01*
X8191492Y5803875D01*
X8140708D01*
X8115317Y5778483D01*
X8369234Y5803875D02*
X8318451Y5778483D01*
X8267667Y5727700D01*
Y5676917D01*
X8293059Y5651525D01*
X8343843D01*
X8369234Y5676917D01*
Y5702308D01*
X8343843Y5727700D01*
X8267667D01*
X14693967Y6095975D02*
Y5969017D01*
X14719357Y5943625D01*
X14770142D01*
X14795534Y5969017D01*
Y6095975D01*
X14947884Y5943625D02*
X14846317D01*
X14947884Y6045192D01*
Y6070583D01*
X14922491Y6095975D01*
X14871709D01*
X14846317Y6070583D01*
X15100233Y6095975D02*
X14998666D01*
Y6019800D01*
X15049451Y6045192D01*
X15074843D01*
X15100233Y6019800D01*
Y5969017D01*
X15074843Y5943625D01*
X15024059D01*
X14998666Y5969017D01*
X16916466Y5841975D02*
Y5715017D01*
X16941858Y5689625D01*
X16992641D01*
X17018033Y5715017D01*
Y5841975D01*
X17170384Y5689625D02*
X17068817D01*
X17170384Y5791192D01*
Y5816583D01*
X17144992Y5841975D01*
X17094208D01*
X17068817Y5816583D01*
X17297343Y5689625D02*
Y5841975D01*
X17221167Y5765800D01*
X17322734D01*
X4432366Y6083275D02*
Y5956317D01*
X4457758Y5930925D01*
X4508541D01*
X4533933Y5956317D01*
Y6083275D01*
X4686284Y5930925D02*
X4584717D01*
X4686284Y6032492D01*
Y6057883D01*
X4660892Y6083275D01*
X4610108D01*
X4584717Y6057883D01*
X4838634Y5930925D02*
X4737067D01*
X4838634Y6032492D01*
Y6057883D01*
X4813243Y6083275D01*
X4762459D01*
X4737067Y6057883D01*
X5588058Y5689575D02*
Y5562617D01*
X5613450Y5537225D01*
X5664233D01*
X5689625Y5562617D01*
Y5689575D01*
X5841976Y5537225D02*
X5740408D01*
X5841976Y5638792D01*
Y5664183D01*
X5816584Y5689575D01*
X5765800D01*
X5740408Y5664183D01*
X5892759Y5537225D02*
X5943543D01*
X5918151D01*
Y5689575D01*
X5892759Y5664183D01*
X10464866Y6413475D02*
Y6286517D01*
X10490258Y6261125D01*
X10541041D01*
X10566433Y6286517D01*
Y6413475D01*
X10718784Y6261125D02*
X10617217D01*
X10718784Y6362692D01*
Y6388083D01*
X10693392Y6413475D01*
X10642608D01*
X10617217Y6388083D01*
X10769567D02*
X10794959Y6413475D01*
X10845743D01*
X10871134Y6388083D01*
Y6286517D01*
X10845743Y6261125D01*
X10794959D01*
X10769567Y6286517D01*
Y6388083D01*
X4165662Y7416775D02*
Y7289817D01*
X4191054Y7264425D01*
X4241837D01*
X4267229Y7289817D01*
Y7416775D01*
X4318012Y7264425D02*
X4368796D01*
X4343404D01*
Y7416775D01*
X4318012Y7391383D01*
X4444971Y7289817D02*
X4470363Y7264425D01*
X4521147D01*
X4546539Y7289817D01*
Y7391383D01*
X4521147Y7416775D01*
X4470363D01*
X4444971Y7391383D01*
Y7365992D01*
X4470363Y7340600D01*
X4546539D01*
X14077261Y6382475D02*
Y6255516D01*
X14102654Y6230124D01*
X14153436D01*
X14178828Y6255516D01*
Y6382475D01*
X14229613Y6230124D02*
X14280396D01*
X14255005D01*
Y6382475D01*
X14229613Y6357083D01*
X14356570D02*
X14381963Y6382475D01*
X14432747D01*
X14458139Y6357083D01*
Y6331692D01*
X14432747Y6306300D01*
X14458139Y6280908D01*
Y6255516D01*
X14432747Y6230124D01*
X14381963D01*
X14356570Y6255516D01*
Y6280908D01*
X14381963Y6306300D01*
X14356570Y6331692D01*
Y6357083D01*
X14381963Y6306300D02*
X14432747D01*
X12496862Y4737075D02*
Y4610117D01*
X12522254Y4584725D01*
X12573037D01*
X12598429Y4610117D01*
Y4737075D01*
X12649212Y4584725D02*
X12699996D01*
X12674604D01*
Y4737075D01*
X12649212Y4711683D01*
X12877739Y4737075D02*
X12826955Y4711683D01*
X12776171Y4660900D01*
Y4610117D01*
X12801562Y4584725D01*
X12852347D01*
X12877739Y4610117D01*
Y4635508D01*
X12852347Y4660900D01*
X12776171D01*
X12954062Y5041875D02*
Y4914917D01*
X12979454Y4889525D01*
X13030237D01*
X13055629Y4914917D01*
Y5041875D01*
X13106412Y4889525D02*
X13157196D01*
X13131804D01*
Y5041875D01*
X13106412Y5016483D01*
X13233371Y5041875D02*
X13334940D01*
Y5016483D01*
X13233371Y4914917D01*
Y4889525D01*
X4838762Y9804375D02*
Y9677417D01*
X4864154Y9652025D01*
X4914937D01*
X4940329Y9677417D01*
Y9804375D01*
X4991112Y9652025D02*
X5041896D01*
X5016504D01*
Y9804375D01*
X4991112Y9778983D01*
X5194247Y9652025D02*
Y9804375D01*
X5118071Y9728200D01*
X5219639D01*
X14198662Y8902675D02*
Y8775717D01*
X14224054Y8750325D01*
X14274837D01*
X14300229Y8775717D01*
Y8902675D01*
X14351012Y8750325D02*
X14401796D01*
X14376404D01*
Y8902675D01*
X14351012Y8877283D01*
X14477971D02*
X14503363Y8902675D01*
X14554147D01*
X14579539Y8877283D01*
Y8851892D01*
X14554147Y8826500D01*
X14528755D01*
X14554147D01*
X14579539Y8801108D01*
Y8775717D01*
X14554147Y8750325D01*
X14503363D01*
X14477971Y8775717D01*
X12306324Y9156761D02*
X12433283D01*
X12458675Y9182153D01*
Y9232937D01*
X12433283Y9258329D01*
X12306324D01*
X12458675Y9309112D02*
Y9359896D01*
Y9334504D01*
X12306324D01*
X12331716Y9309112D01*
X12458675Y9537638D02*
Y9436071D01*
X12357108Y9537638D01*
X12331716D01*
X12306324Y9512246D01*
Y9461463D01*
X12331716Y9436071D01*
X15250160Y9954211D02*
Y9827252D01*
X15275552Y9801860D01*
X15326335D01*
X15351727Y9827252D01*
Y9954211D01*
X15402512Y9801860D02*
X15453294D01*
X15427904D01*
Y9954211D01*
X15402512Y9928819D01*
X15529469D02*
X15554861Y9954211D01*
X15605646D01*
X15631036Y9928819D01*
Y9827252D01*
X15605646Y9801860D01*
X15554861D01*
X15529469Y9827252D01*
Y9928819D01*
X6616700Y10081211D02*
Y9954252D01*
X6642092Y9928860D01*
X6692875D01*
X6718267Y9954252D01*
Y10081211D01*
X6769051Y10055819D02*
X6794443Y10081211D01*
X6845226D01*
X6870618Y10055819D01*
Y10030427D01*
X6845226Y10005035D01*
X6870618Y9979643D01*
Y9954252D01*
X6845226Y9928860D01*
X6794443D01*
X6769051Y9954252D01*
Y9979643D01*
X6794443Y10005035D01*
X6769051Y10030427D01*
Y10055819D01*
X6794443Y10005035D02*
X6845226D01*
X10561320Y10726371D02*
Y10599412D01*
X10586712Y10574020D01*
X10637495D01*
X10662887Y10599412D01*
Y10726371D01*
X10815238D02*
X10764454Y10700979D01*
X10713671Y10650195D01*
Y10599412D01*
X10739063Y10574020D01*
X10789846D01*
X10815238Y10599412D01*
Y10624803D01*
X10789846Y10650195D01*
X10713671D01*
X16764041Y7391375D02*
Y7264417D01*
X16789433Y7239025D01*
X16840218D01*
X16865608Y7264417D01*
Y7391375D01*
X17017960D02*
X16916393D01*
Y7315200D01*
X16967175Y7340592D01*
X16992567D01*
X17017960Y7315200D01*
Y7264417D01*
X16992567Y7239025D01*
X16941785D01*
X16916393Y7264417D01*
X12623841Y8991575D02*
Y8864617D01*
X12649233Y8839225D01*
X12700017D01*
X12725408Y8864617D01*
Y8991575D01*
X12877759Y8839225D02*
X12776192D01*
X12877759Y8940792D01*
Y8966183D01*
X12852367Y8991575D01*
X12801584D01*
X12776192Y8966183D01*
X16903708Y3136917D02*
Y3238483D01*
X16878317Y3263875D01*
X16827533D01*
X16802141Y3238483D01*
Y3136917D01*
X16827533Y3111525D01*
X16878317D01*
X16852925Y3162308D02*
X16903708Y3111525D01*
X16878317D02*
X16903708Y3136917D01*
X17030667Y3111525D02*
Y3263875D01*
X16954492Y3187700D01*
X17056059D01*
X15633708Y3149617D02*
Y3251183D01*
X15608318Y3276575D01*
X15557533D01*
X15532141Y3251183D01*
Y3149617D01*
X15557533Y3124225D01*
X15608318D01*
X15582925Y3175008D02*
X15633708Y3124225D01*
X15608318D02*
X15633708Y3149617D01*
X15684492Y3251183D02*
X15709885Y3276575D01*
X15760667D01*
X15786060Y3251183D01*
Y3225792D01*
X15760667Y3200400D01*
X15735275D01*
X15760667D01*
X15786060Y3175008D01*
Y3149617D01*
X15760667Y3124225D01*
X15709885D01*
X15684492Y3149617D01*
X12407908Y3302017D02*
Y3403583D01*
X12382517Y3428975D01*
X12331733D01*
X12306341Y3403583D01*
Y3302017D01*
X12331733Y3276625D01*
X12382517D01*
X12357125Y3327408D02*
X12407908Y3276625D01*
X12382517D02*
X12407908Y3302017D01*
X12560259Y3276625D02*
X12458692D01*
X12560259Y3378192D01*
Y3403583D01*
X12534867Y3428975D01*
X12484084D01*
X12458692Y3403583D01*
X10871200Y4622817D02*
Y4724383D01*
X10845808Y4749775D01*
X10795025D01*
X10769633Y4724383D01*
Y4622817D01*
X10795025Y4597425D01*
X10845808D01*
X10820417Y4648208D02*
X10871200Y4597425D01*
X10845808D02*
X10871200Y4622817D01*
X10921984Y4597425D02*
X10972767D01*
X10947376D01*
Y4749775D01*
X10921984Y4724383D01*
X10407692Y10807724D02*
X10458475D01*
X10433084D01*
Y10934683D01*
X10458475Y10960075D01*
X10483867D01*
X10509259Y10934683D01*
X10255341Y10960075D02*
X10356908D01*
X10255341Y10858508D01*
Y10833116D01*
X10280733Y10807724D01*
X10331516D01*
X10356908Y10833116D01*
%TF.MD5,ab55b575418d0ffe2744dc061ccc5e1b*%
M02*
