%TF.GenerationSoftware,Altium Limited,Altium Designer,25.3.3 (18)*%
G04 Layer_Color=255*
%FSLAX45Y45*%
%MOMM*%
%TF.SameCoordinates,7852E7E1-4E30-4CDD-8EF1-640B4E54786C*%
%TF.FilePolarity,Positive*%
%TF.FileFunction,Pads,Top*%
%TF.Part,Single*%
G01*
G75*
%TA.AperFunction,SMDPad,CuDef*%
%ADD10R,1.50000X1.25000*%
G04:AMPARAMS|DCode=11|XSize=1.95543mm|YSize=0.42077mm|CornerRadius=0.21038mm|HoleSize=0mm|Usage=FLASHONLY|Rotation=270.000|XOffset=0mm|YOffset=0mm|HoleType=Round|Shape=RoundedRectangle|*
%AMROUNDEDRECTD11*
21,1,1.95543,0.00000,0,0,270.0*
21,1,1.53467,0.42077,0,0,270.0*
1,1,0.42077,0.00000,-0.76733*
1,1,0.42077,0.00000,0.76733*
1,1,0.42077,0.00000,0.76733*
1,1,0.42077,0.00000,-0.76733*
%
%ADD11ROUNDEDRECTD11*%
%ADD12R,5.26000X3.20000*%
%ADD13R,0.42077X1.95543*%
%ADD14R,1.65000X1.30000*%
%ADD15R,0.30000X1.00000*%
%ADD16R,1.80000X1.00000*%
%ADD17R,1.20490X2.70620*%
%ADD18R,0.60000X2.20000*%
%ADD19R,1.80000X1.40000*%
G04:AMPARAMS|DCode=20|XSize=1.57mm|YSize=0.41mm|CornerRadius=0.05125mm|HoleSize=0mm|Usage=FLASHONLY|Rotation=270.000|XOffset=0mm|YOffset=0mm|HoleType=Round|Shape=RoundedRectangle|*
%AMROUNDEDRECTD20*
21,1,1.57000,0.30750,0,0,270.0*
21,1,1.46750,0.41000,0,0,270.0*
1,1,0.10250,-0.15375,-0.73375*
1,1,0.10250,-0.15375,0.73375*
1,1,0.10250,0.15375,0.73375*
1,1,0.10250,0.15375,-0.73375*
%
%ADD20ROUNDEDRECTD20*%
%ADD21R,1.10000X1.35000*%
%ADD22R,5.60000X5.60000*%
%ADD23O,0.25000X0.90000*%
%ADD24O,0.90000X0.25000*%
%ADD25R,1.35000X1.10000*%
%ADD26R,0.65000X1.60000*%
%ADD27R,1.10000X1.70000*%
%ADD28R,1.25000X1.50000*%
%ADD29R,0.95000X1.40000*%
%ADD30O,1.55000X0.35000*%
G04:AMPARAMS|DCode=31|XSize=1.00429mm|YSize=3.18213mm|CornerRadius=0.43687mm|HoleSize=0mm|Usage=FLASHONLY|Rotation=0.000|XOffset=0mm|YOffset=0mm|HoleType=Round|Shape=RoundedRectangle|*
%AMROUNDEDRECTD31*
21,1,1.00429,2.30840,0,0,0.0*
21,1,0.13056,3.18213,0,0,0.0*
1,1,0.87373,0.06528,-1.15420*
1,1,0.87373,-0.06528,-1.15420*
1,1,0.87373,-0.06528,1.15420*
1,1,0.87373,0.06528,1.15420*
%
%ADD31ROUNDEDRECTD31*%
G04:AMPARAMS|DCode=32|XSize=1.00429mm|YSize=0.87213mm|CornerRadius=0.43606mm|HoleSize=0mm|Usage=FLASHONLY|Rotation=0.000|XOffset=0mm|YOffset=0mm|HoleType=Round|Shape=RoundedRectangle|*
%AMROUNDEDRECTD32*
21,1,1.00429,0.00000,0,0,0.0*
21,1,0.13216,0.87213,0,0,0.0*
1,1,0.87213,0.06608,0.00000*
1,1,0.87213,-0.06608,0.00000*
1,1,0.87213,-0.06608,0.00000*
1,1,0.87213,0.06608,0.00000*
%
%ADD32ROUNDEDRECTD32*%
%ADD33R,1.70620X1.15464*%
%ADD34R,1.70000X0.95000*%
%ADD35R,1.40000X1.15000*%
%ADD36R,1.30464X1.45620*%
%ADD37R,1.45620X1.30464*%
G04:AMPARAMS|DCode=38|XSize=0.55mm|YSize=1.25mm|CornerRadius=0.0495mm|HoleSize=0mm|Usage=FLASHONLY|Rotation=0.000|XOffset=0mm|YOffset=0mm|HoleType=Round|Shape=RoundedRectangle|*
%AMROUNDEDRECTD38*
21,1,0.55000,1.15100,0,0,0.0*
21,1,0.45100,1.25000,0,0,0.0*
1,1,0.09900,0.22550,-0.57550*
1,1,0.09900,-0.22550,-0.57550*
1,1,0.09900,-0.22550,0.57550*
1,1,0.09900,0.22550,0.57550*
%
%ADD38ROUNDEDRECTD38*%
%ADD39R,1.35000X1.10000*%
%ADD40R,1.50000X1.40000*%
%ADD41R,1.50550X1.85822*%
G04:AMPARAMS|DCode=42|XSize=0.83107mm|YSize=0.22247mm|CornerRadius=0.11124mm|HoleSize=0mm|Usage=FLASHONLY|Rotation=270.000|XOffset=0mm|YOffset=0mm|HoleType=Round|Shape=RoundedRectangle|*
%AMROUNDEDRECTD42*
21,1,0.83107,0.00000,0,0,270.0*
21,1,0.60859,0.22247,0,0,270.0*
1,1,0.22247,0.00000,-0.30430*
1,1,0.22247,0.00000,0.30430*
1,1,0.22247,0.00000,0.30430*
1,1,0.22247,0.00000,-0.30430*
%
%ADD42ROUNDEDRECTD42*%
%ADD43R,2.48000X1.75000*%
%ADD44R,0.22247X0.83107*%
%ADD45R,0.95000X1.70000*%
%ADD46R,1.10000X1.35000*%
%ADD47R,1.15464X1.70620*%
%ADD48R,0.24247X0.98102*%
G04:AMPARAMS|DCode=49|XSize=0.98102mm|YSize=0.24247mm|CornerRadius=0.12124mm|HoleSize=0mm|Usage=FLASHONLY|Rotation=270.000|XOffset=0mm|YOffset=0mm|HoleType=Round|Shape=RoundedRectangle|*
%AMROUNDEDRECTD49*
21,1,0.98102,0.00000,0,0,270.0*
21,1,0.73855,0.24247,0,0,270.0*
1,1,0.24247,0.00000,-0.36927*
1,1,0.24247,0.00000,0.36927*
1,1,0.24247,0.00000,0.36927*
1,1,0.24247,0.00000,-0.36927*
%
%ADD49ROUNDEDRECTD49*%
%ADD50R,2.48000X1.65000*%
%ADD51R,8.80000X10.60000*%
%ADD52R,2.70000X1.00000*%
%ADD53R,1.40000X0.95000*%
%ADD54R,2.70620X1.20490*%
%ADD55R,1.00429X0.87213*%
%ADD56R,0.60000X0.60000*%
%ADD57R,1.40000X1.50000*%
%TA.AperFunction,ComponentPad*%
%ADD61R,1.25000X1.25000*%
%ADD62C,1.25000*%
%ADD63C,4.82500*%
%ADD64C,1.59140*%
%ADD65R,1.59140X1.59140*%
%ADD66C,2.38000*%
%ADD67C,1.50800*%
%ADD68R,1.50800X1.50800*%
%ADD69C,1.02000*%
%ADD70C,1.57000*%
%ADD71R,1.57000X1.57000*%
%ADD72C,2.41000*%
%ADD73R,1.70000X1.70000*%
%ADD74C,1.70000*%
%ADD75R,1.50000X1.50000*%
%ADD76C,1.50000*%
%ADD77R,1.50000X1.50000*%
%ADD78R,1.25000X1.25000*%
%ADD79C,3.37300*%
%ADD80R,1.70000X1.70000*%
%ADD81R,1.30000X1.30000*%
%ADD82C,1.30000*%
D10*
X4673603Y9898604D02*
D03*
X4673600Y10243600D02*
D03*
X4699000Y9481600D02*
D03*
X4699003Y9136604D02*
D03*
X12687297Y10027696D02*
D03*
X12687300Y9682700D02*
D03*
X12458697Y10027696D02*
D03*
X12458700Y9682700D02*
D03*
X11569697Y9735596D02*
D03*
X11569700Y9390600D02*
D03*
X15239999Y8084600D02*
D03*
X15240002Y7739604D02*
D03*
X6159500Y9507000D02*
D03*
X6159503Y9162004D02*
D03*
X9182097Y7298697D02*
D03*
X9182100Y6953700D02*
D03*
X9715497Y10272597D02*
D03*
X9715500Y9927600D02*
D03*
X7467597Y6382796D02*
D03*
X7467600Y6037800D02*
D03*
X8047153Y4998417D02*
D03*
X8047150Y5343413D02*
D03*
X8302300Y5343417D02*
D03*
X8302303Y4998420D02*
D03*
X7175503Y7803104D02*
D03*
X7175500Y8148100D02*
D03*
X6946903Y7803104D02*
D03*
X6946900Y8148100D02*
D03*
X6718303Y7803104D02*
D03*
X6718300Y8148100D02*
D03*
X10080997Y7298697D02*
D03*
X10081000Y6953701D02*
D03*
X9949723Y6601252D02*
D03*
X9949727Y6256255D02*
D03*
X10192194Y6601251D02*
D03*
X10192197Y6256255D02*
D03*
X9193025Y6601250D02*
D03*
X9193028Y6256254D02*
D03*
X9441904Y6601251D02*
D03*
X9441907Y6256254D02*
D03*
X10186935Y4933303D02*
D03*
X10186938Y4588307D02*
D03*
X9926739Y4223158D02*
D03*
X9926743Y3878161D02*
D03*
X10175808Y4223158D02*
D03*
X10175811Y3878161D02*
D03*
X9174156Y4223158D02*
D03*
X9174159Y3878161D02*
D03*
X9406167Y4223156D02*
D03*
X9406171Y3878160D02*
D03*
X9169397Y4871496D02*
D03*
X9169400Y4526500D02*
D03*
X10668003Y6749004D02*
D03*
X10668000Y7094000D02*
D03*
X11468097Y5290596D02*
D03*
X11468100Y4945600D02*
D03*
X11163303Y6749004D02*
D03*
X11163300Y7094000D02*
D03*
X10922003Y6749004D02*
D03*
X10922000Y7094000D02*
D03*
X15749409Y5089150D02*
D03*
X15749413Y4744154D02*
D03*
X15430070Y6540203D02*
D03*
X15430067Y6885200D02*
D03*
X15188844Y6540204D02*
D03*
X15188840Y6885200D02*
D03*
X14934750Y6540203D02*
D03*
X14934747Y6885200D02*
D03*
X5638800Y5034500D02*
D03*
X5638797Y5379496D02*
D03*
X5868830Y5379500D02*
D03*
X5868833Y5034504D02*
D03*
X4394200Y8186200D02*
D03*
X4394203Y7841204D02*
D03*
X4635500Y8186200D02*
D03*
X4635503Y7841204D02*
D03*
X4889497Y8180897D02*
D03*
X4889500Y7835900D02*
D03*
X5118103Y6055803D02*
D03*
X5118100Y6400800D02*
D03*
D11*
X5332900Y7551938D02*
D03*
X5267900D02*
D03*
X5202900D02*
D03*
X5137900D02*
D03*
X5072900D02*
D03*
X5007900D02*
D03*
X4942900D02*
D03*
X4877900D02*
D03*
X4812900D02*
D03*
X4747900D02*
D03*
Y6976862D02*
D03*
X4812900D02*
D03*
X4877900D02*
D03*
X4942900D02*
D03*
X5007900D02*
D03*
X5072900D02*
D03*
X5137900D02*
D03*
X5202900D02*
D03*
X5267900D02*
D03*
X5332900D02*
D03*
X5397900D02*
D03*
X5462900D02*
D03*
X5397900Y7551938D02*
D03*
X15944501Y6250938D02*
D03*
X7714900Y7496577D02*
D03*
X11671700Y6434338D02*
D03*
X11346700D02*
D03*
X7779900Y6921500D02*
D03*
X7714900D02*
D03*
X7649900D02*
D03*
X7584900D02*
D03*
X7519900D02*
D03*
X7454900D02*
D03*
X7389900D02*
D03*
X7324900D02*
D03*
X7259900D02*
D03*
X7194900D02*
D03*
X7129900D02*
D03*
X7064900D02*
D03*
Y7496577D02*
D03*
X7129900D02*
D03*
X7194900D02*
D03*
X7259900D02*
D03*
X7324900D02*
D03*
X7389900D02*
D03*
X7454900D02*
D03*
X7519900D02*
D03*
X7584900D02*
D03*
X7649900D02*
D03*
X11606700Y6434338D02*
D03*
X11541700D02*
D03*
X11476700D02*
D03*
X11411700D02*
D03*
X11281700D02*
D03*
X11216700D02*
D03*
X11151700D02*
D03*
X11086700D02*
D03*
X11021700D02*
D03*
Y5859262D02*
D03*
X11086700D02*
D03*
X11151700D02*
D03*
X11216700D02*
D03*
X11281700D02*
D03*
X11346700D02*
D03*
X11411700D02*
D03*
X11476700D02*
D03*
X11541700D02*
D03*
X11606700D02*
D03*
X11671700D02*
D03*
X11736700D02*
D03*
X15879500Y6250938D02*
D03*
X15814500D02*
D03*
X15749500D02*
D03*
X15684500D02*
D03*
X15619501D02*
D03*
X15554500D02*
D03*
X15489500D02*
D03*
X15424500D02*
D03*
X15359500D02*
D03*
X15294501D02*
D03*
Y5675861D02*
D03*
X15359500D02*
D03*
X15424500D02*
D03*
X15489500D02*
D03*
X15554500D02*
D03*
X15619501D02*
D03*
X15684500D02*
D03*
X15749500D02*
D03*
X15814500D02*
D03*
X15879500D02*
D03*
X15944501D02*
D03*
X16009500D02*
D03*
D12*
X5105400Y7264400D02*
D03*
X15652000Y5963400D02*
D03*
X11379200Y6146800D02*
D03*
X7422400Y7209038D02*
D03*
D13*
X5462900Y7551938D02*
D03*
X16009500Y6250938D02*
D03*
X7779900Y7496577D02*
D03*
X11736700Y6434338D02*
D03*
D14*
X11032700Y10970900D02*
D03*
X12487700D02*
D03*
D15*
X11610200Y10780900D02*
D03*
X11710200D02*
D03*
X12210200D02*
D03*
X12110200D02*
D03*
X12010200D02*
D03*
X11910200D02*
D03*
X11810200D02*
D03*
X11510200D02*
D03*
X11410200D02*
D03*
X11310200D02*
D03*
D16*
X10452100Y8066500D02*
D03*
Y8316500D02*
D03*
X4965700Y9171800D02*
D03*
Y9471800D02*
D03*
X13906500Y7978000D02*
D03*
Y8278000D02*
D03*
D17*
X14205936Y3866002D02*
D03*
X14496065D02*
D03*
X13632465Y6447011D02*
D03*
X13342336D02*
D03*
X6873388Y3138917D02*
D03*
X7163518D02*
D03*
X4742465Y3149600D02*
D03*
X4452335D02*
D03*
D18*
X5397500Y5479700D02*
D03*
X5270500D02*
D03*
X5143500D02*
D03*
X5016500Y4959700D02*
D03*
X5143500D02*
D03*
X5270500D02*
D03*
X5397500D02*
D03*
X5016500Y5479700D02*
D03*
X9436100Y6904300D02*
D03*
X9563100D02*
D03*
X9690100D02*
D03*
X9817100Y7424300D02*
D03*
X9690100D02*
D03*
X9563100D02*
D03*
X9436100D02*
D03*
X9817100Y6904300D02*
D03*
X9810311Y3573007D02*
D03*
X9937311D02*
D03*
X10064311D02*
D03*
X10191311D02*
D03*
Y3053007D02*
D03*
X10064311D02*
D03*
X9937311D02*
D03*
X9810311D02*
D03*
X16722784Y5271554D02*
D03*
X12446000Y5410200D02*
D03*
X9457408Y5431102D02*
D03*
X10207697D02*
D03*
X9912836Y4526207D02*
D03*
X9421671Y3053007D02*
D03*
X7399453Y5469017D02*
D03*
X6777153D02*
D03*
X4394200Y5467000D02*
D03*
X7780453Y4949017D02*
D03*
X7653453D02*
D03*
X7526453D02*
D03*
X7399453D02*
D03*
X7526453Y5469017D02*
D03*
X7653453D02*
D03*
X7780453D02*
D03*
X7158153Y4949017D02*
D03*
X7031153D02*
D03*
X6904153D02*
D03*
X6777153D02*
D03*
X6904153Y5469017D02*
D03*
X7031153D02*
D03*
X7158153D02*
D03*
X9531836Y5046207D02*
D03*
X9658836D02*
D03*
X9785836D02*
D03*
X9912836D02*
D03*
X9785836Y4526207D02*
D03*
X9658836D02*
D03*
X9531836D02*
D03*
X9076408Y5951102D02*
D03*
X9203408D02*
D03*
X9330408D02*
D03*
X9457408D02*
D03*
X9330408Y5431102D02*
D03*
X9203408D02*
D03*
X9076408D02*
D03*
X9040671Y3573007D02*
D03*
X9167671D02*
D03*
X9294671D02*
D03*
X9421671D02*
D03*
X9294671Y3053007D02*
D03*
X9167671D02*
D03*
X9040671D02*
D03*
X9826697Y5951102D02*
D03*
X9953697D02*
D03*
X10080697D02*
D03*
X10207697D02*
D03*
X10080697Y5431102D02*
D03*
X9953697D02*
D03*
X9826697D02*
D03*
X12827000Y4890200D02*
D03*
X12700000D02*
D03*
X12573000D02*
D03*
X12446000D02*
D03*
X12573000Y5410200D02*
D03*
X12700000D02*
D03*
X12827000D02*
D03*
X17103784Y4751554D02*
D03*
X16976784D02*
D03*
X16849783D02*
D03*
X16722784D02*
D03*
X16849783Y5271554D02*
D03*
X16976784D02*
D03*
X17103784D02*
D03*
X4775200Y4947000D02*
D03*
X4648200D02*
D03*
X4521200D02*
D03*
X4394200D02*
D03*
X4521200Y5467000D02*
D03*
X4648200D02*
D03*
X4775200D02*
D03*
D19*
X10350500Y9845500D02*
D03*
Y9585500D02*
D03*
X10083800Y10118900D02*
D03*
Y10378900D02*
D03*
D20*
X12871899Y7566700D02*
D03*
X12806900D02*
D03*
X12741900D02*
D03*
X12676900D02*
D03*
X12611900D02*
D03*
X12546900D02*
D03*
X12481900D02*
D03*
X12416900D02*
D03*
X12351900D02*
D03*
X12221900D02*
D03*
X12156900D02*
D03*
X12091900D02*
D03*
X12026900D02*
D03*
Y8140700D02*
D03*
X12091900D02*
D03*
X12156900D02*
D03*
X12221900D02*
D03*
X12286900D02*
D03*
X12351900D02*
D03*
X12416900D02*
D03*
X12481900D02*
D03*
X12546900D02*
D03*
X12611900D02*
D03*
X12676900D02*
D03*
X12741900D02*
D03*
X12806900D02*
D03*
X12871899D02*
D03*
X12286900Y7566700D02*
D03*
D21*
X12102800Y8420100D02*
D03*
X12242800D02*
D03*
X12173100Y7061200D02*
D03*
X12033100D02*
D03*
X12407900Y8420100D02*
D03*
X12547900D02*
D03*
X12858900D02*
D03*
X12718900D02*
D03*
X12185800Y8636000D02*
D03*
X12045800D02*
D03*
D22*
X9485700Y8646600D02*
D03*
D23*
X9710700Y8301600D02*
D03*
X9660700D02*
D03*
X9610700D02*
D03*
X9560700D02*
D03*
X9510700D02*
D03*
X9460700D02*
D03*
X9360700D02*
D03*
X9310700D02*
D03*
X9260700D02*
D03*
X9210700D02*
D03*
X9260700Y8991600D02*
D03*
X9310700D02*
D03*
X9360700D02*
D03*
X9410700D02*
D03*
X9460700D02*
D03*
X9510700D02*
D03*
X9560700D02*
D03*
X9610700D02*
D03*
X9660700D02*
D03*
X9710700D02*
D03*
X9760700D02*
D03*
X9410700Y8301600D02*
D03*
X9210700Y8991600D02*
D03*
X9760700Y8301600D02*
D03*
D24*
X9140700Y8421600D02*
D03*
Y8471600D02*
D03*
Y8521600D02*
D03*
Y8571600D02*
D03*
Y8621600D02*
D03*
Y8671600D02*
D03*
Y8721600D02*
D03*
Y8771600D02*
D03*
Y8821600D02*
D03*
Y8871600D02*
D03*
Y8921600D02*
D03*
X9830700D02*
D03*
Y8871600D02*
D03*
Y8821600D02*
D03*
Y8721600D02*
D03*
Y8671600D02*
D03*
Y8621600D02*
D03*
Y8571600D02*
D03*
Y8521600D02*
D03*
Y8471600D02*
D03*
Y8421600D02*
D03*
Y8371600D02*
D03*
Y8771600D02*
D03*
X9140700Y8371600D02*
D03*
D25*
X5702300Y9486800D02*
D03*
Y9156800D02*
D03*
X12674600Y9448700D02*
D03*
Y9118700D02*
D03*
X11772900Y9728100D02*
D03*
Y9398100D02*
D03*
X15062199Y8572600D02*
D03*
Y8902600D02*
D03*
X14630400Y8039100D02*
D03*
Y8369100D02*
D03*
X15913100Y9448900D02*
D03*
Y9778900D02*
D03*
D26*
X5435100Y9194800D02*
D03*
X5245100D02*
D03*
Y9444800D02*
D03*
X5340100D02*
D03*
X5435100D02*
D03*
X14363699Y8039100D02*
D03*
X14173700D02*
D03*
Y8289100D02*
D03*
X14268700D02*
D03*
X14363699D02*
D03*
D27*
X5603700Y9715500D02*
D03*
X5343700D02*
D03*
X14531799Y8559800D02*
D03*
X14271800D02*
D03*
D28*
X5384800Y8839200D02*
D03*
X5729797Y8839203D02*
D03*
X4844000Y8839200D02*
D03*
X5188996Y8839203D02*
D03*
X8336504Y10629897D02*
D03*
X11371800Y8724900D02*
D03*
X11716796Y8724903D02*
D03*
X11716800Y8267700D02*
D03*
X11371804Y8267697D02*
D03*
X11371800Y8039100D02*
D03*
X11716796Y8039103D02*
D03*
X11371800Y8509000D02*
D03*
X11716796Y8509003D02*
D03*
X14087172Y7708903D02*
D03*
X13742175Y7708900D02*
D03*
X14305499D02*
D03*
X14650496Y7708903D02*
D03*
X15564896Y7493003D02*
D03*
X15219901Y7493000D02*
D03*
X6497100Y8585200D02*
D03*
X6152104Y8585197D02*
D03*
X6152100Y8813800D02*
D03*
X6497096Y8813803D02*
D03*
X8681500Y10629900D02*
D03*
X7392053Y5742417D02*
D03*
X7737049Y5742420D02*
D03*
X8084596Y6032503D02*
D03*
X7739600Y6032500D02*
D03*
X8351296Y6921503D02*
D03*
X8006300Y6921500D02*
D03*
X6795153Y5742417D02*
D03*
X7140149Y5742420D02*
D03*
X12377196Y5829303D02*
D03*
X12032200Y5829300D02*
D03*
X12097796Y4940303D02*
D03*
X11752800Y4940300D02*
D03*
X13314900Y6704445D02*
D03*
X13659895Y6704448D02*
D03*
X13314900Y5942200D02*
D03*
X13659895Y5942204D02*
D03*
X13314900Y7219311D02*
D03*
X13659895Y7219314D02*
D03*
X13314900Y6963889D02*
D03*
X13659895Y6963892D02*
D03*
X14523500Y4124666D02*
D03*
X14178503Y4124663D02*
D03*
X14523500Y3617207D02*
D03*
X14178503Y3617203D02*
D03*
X14523500Y3098351D02*
D03*
X14178503Y3098347D02*
D03*
X14523500Y3356754D02*
D03*
X14178503Y3356750D02*
D03*
X14523500Y4377741D02*
D03*
X14178503Y4377738D02*
D03*
X13314900Y6195612D02*
D03*
X13659895Y6195615D02*
D03*
X13314899Y5694332D02*
D03*
X13659895Y5694335D02*
D03*
X14523500Y4630164D02*
D03*
X14178503Y4630161D02*
D03*
X16421397Y4744203D02*
D03*
X16076401Y4744200D02*
D03*
X16649997Y5633203D02*
D03*
X16305000Y5633200D02*
D03*
X4437600Y5740400D02*
D03*
X4782596Y5740403D02*
D03*
X5364700Y6057900D02*
D03*
X5709696Y6057903D02*
D03*
X5022140Y5740400D02*
D03*
X5367136Y5740403D02*
D03*
X6021897Y6997703D02*
D03*
X5676900Y6997700D02*
D03*
D29*
X12208300Y7289800D02*
D03*
X15940045Y6585846D02*
D03*
X7712500Y7810500D02*
D03*
X11668929Y6758592D02*
D03*
X5388400Y7861300D02*
D03*
X12023300Y7289800D02*
D03*
X12554800Y8636000D02*
D03*
X12369800D02*
D03*
X7979200Y6350000D02*
D03*
X7794200D02*
D03*
X7527500Y7810500D02*
D03*
X6841700Y6324600D02*
D03*
X7026700D02*
D03*
X11483929Y6758592D02*
D03*
X11992400Y5245100D02*
D03*
X11807400D02*
D03*
X10829500Y5257800D02*
D03*
X11014500D02*
D03*
X15138509Y5048513D02*
D03*
X15323509D02*
D03*
X16303300Y5056654D02*
D03*
X16118300D02*
D03*
X15755045Y6585846D02*
D03*
X5470100Y6362700D02*
D03*
X5655100D02*
D03*
X4715300Y6337300D02*
D03*
X4530300D02*
D03*
X5203400Y7861300D02*
D03*
D30*
X14562300Y5743000D02*
D03*
X13288800Y4290000D02*
D03*
X14562300Y5678000D02*
D03*
Y5808000D02*
D03*
Y5873000D02*
D03*
Y5938000D02*
D03*
Y6003000D02*
D03*
Y6068000D02*
D03*
Y6133000D02*
D03*
X13987300Y5678000D02*
D03*
Y5743000D02*
D03*
Y5808000D02*
D03*
Y5873000D02*
D03*
Y5938000D02*
D03*
Y6003000D02*
D03*
Y6068000D02*
D03*
Y6133000D02*
D03*
X13863800Y3900000D02*
D03*
Y3965000D02*
D03*
Y4030000D02*
D03*
Y4095000D02*
D03*
Y4160000D02*
D03*
Y4225000D02*
D03*
Y4290000D02*
D03*
Y4355000D02*
D03*
X13288800Y3900000D02*
D03*
Y3965000D02*
D03*
Y4030000D02*
D03*
Y4095000D02*
D03*
Y4160000D02*
D03*
Y4225000D02*
D03*
Y4355000D02*
D03*
D31*
X11264200Y10121900D02*
D03*
D32*
X10605200D02*
D03*
Y9892900D02*
D03*
D33*
X10325100Y10121322D02*
D03*
Y10376478D02*
D03*
D34*
X10248900Y8508700D02*
D03*
Y8788700D02*
D03*
X10934700Y8801400D02*
D03*
Y8521400D02*
D03*
X15468600Y8471200D02*
D03*
Y8191200D02*
D03*
Y7734000D02*
D03*
Y8014000D02*
D03*
X6400800Y9906300D02*
D03*
Y9626300D02*
D03*
Y9442583D02*
D03*
Y9162583D02*
D03*
D35*
X10701800Y8505200D02*
D03*
X10481800D02*
D03*
Y8665200D02*
D03*
X10701800D02*
D03*
D36*
X12682922Y7315200D02*
D03*
X12844078D02*
D03*
X13072678Y7048500D02*
D03*
X12911522D02*
D03*
X13089322Y7569200D02*
D03*
X13250478D02*
D03*
X7954578Y6604000D02*
D03*
X7793422D02*
D03*
X6866322Y6616700D02*
D03*
X7027478D02*
D03*
X11980478Y5524500D02*
D03*
X11819322D02*
D03*
X10841422Y5562600D02*
D03*
X11002578D02*
D03*
X15139622Y5366500D02*
D03*
X15300778D02*
D03*
X16291377Y5341100D02*
D03*
X16130222D02*
D03*
X4690678Y6629400D02*
D03*
X4529522D02*
D03*
X5482022D02*
D03*
X5643178D02*
D03*
D37*
X12420600Y7323956D02*
D03*
Y7162800D02*
D03*
X16566400Y6196378D02*
D03*
X12306300Y6430578D02*
D03*
X8356600Y7408478D02*
D03*
X5981700Y7433878D02*
D03*
X8356600Y7247322D02*
D03*
X12306300Y6269422D02*
D03*
X16566400Y6035222D02*
D03*
X5981700Y7272722D02*
D03*
D38*
X13830299Y5406000D02*
D03*
X13703300D02*
D03*
X13576300D02*
D03*
X13449300D02*
D03*
X13830299Y4881000D02*
D03*
X13703300D02*
D03*
X13576300D02*
D03*
X13449300D02*
D03*
D39*
X11811000Y7461100D02*
D03*
Y7601100D02*
D03*
D40*
X13119099Y8013700D02*
D03*
Y7823700D02*
D03*
D41*
X9956800Y9690100D02*
D03*
X9661528D02*
D03*
D42*
X12067900Y9707153D02*
D03*
X11977900D02*
D03*
Y9419047D02*
D03*
X12022900D02*
D03*
X12067900D02*
D03*
X12112900D02*
D03*
X12157900D02*
D03*
X12202900D02*
D03*
X12022900Y9707153D02*
D03*
X12112900D02*
D03*
X12157900D02*
D03*
D43*
X12090400Y9563100D02*
D03*
D44*
X12202900Y9707153D02*
D03*
D45*
X10667700Y8039100D02*
D03*
X10947700D02*
D03*
Y8280400D02*
D03*
X10667700D02*
D03*
D46*
X11874600Y9969500D02*
D03*
X12204600D02*
D03*
X12153800Y9194800D02*
D03*
X11823800D02*
D03*
D47*
X13157777Y9969500D02*
D03*
X12902621D02*
D03*
X12889922Y9118600D02*
D03*
X13145078D02*
D03*
X10603922Y9639300D02*
D03*
X10859078D02*
D03*
D48*
X13142900Y9696955D02*
D03*
D49*
X13092900D02*
D03*
X13042900D02*
D03*
X12992900D02*
D03*
X12942900D02*
D03*
Y9403845D02*
D03*
X12992900D02*
D03*
X13042900D02*
D03*
X13092900D02*
D03*
X13142900D02*
D03*
D50*
X13042900Y9550400D02*
D03*
D51*
X16764000Y8013700D02*
D03*
X7670800Y9309100D02*
D03*
D52*
X15828999Y7673700D02*
D03*
Y7843700D02*
D03*
Y8013700D02*
D03*
Y8183700D02*
D03*
Y8353700D02*
D03*
X6735800Y9649100D02*
D03*
Y9479100D02*
D03*
Y9309100D02*
D03*
Y9139100D02*
D03*
Y8969100D02*
D03*
D53*
X10769600Y5800300D02*
D03*
Y5985300D02*
D03*
X16274300Y6208300D02*
D03*
X12026900Y6442500D02*
D03*
X8064500Y7420400D02*
D03*
X5702300Y7445800D02*
D03*
X8064500Y7235400D02*
D03*
X6807200Y7052100D02*
D03*
Y6867100D02*
D03*
X12026900Y6257500D02*
D03*
X15055099Y5814600D02*
D03*
Y5629600D02*
D03*
X16274300Y6023300D02*
D03*
X5702300Y7260800D02*
D03*
X4508500Y6879800D02*
D03*
Y7064800D02*
D03*
D54*
X16368394Y3672689D02*
D03*
X11944381Y3855435D02*
D03*
X7988670Y3728839D02*
D03*
X5662560Y3660867D02*
D03*
X7505700Y4018565D02*
D03*
Y3728435D02*
D03*
X7582270Y3113884D02*
D03*
Y3404014D02*
D03*
X7988670D02*
D03*
Y3113884D02*
D03*
Y4018969D02*
D03*
X16381094Y3327819D02*
D03*
Y3037689D02*
D03*
X15974695D02*
D03*
Y3327819D02*
D03*
X15880600Y3962165D02*
D03*
Y3672035D02*
D03*
X16368394Y3962819D02*
D03*
X11474481Y3220435D02*
D03*
Y3510565D02*
D03*
X11944381Y4145565D02*
D03*
Y3510565D02*
D03*
Y3220435D02*
D03*
X11379200Y4145565D02*
D03*
Y3855435D02*
D03*
X5662560Y3950997D02*
D03*
X5256160Y3358165D02*
D03*
Y3068035D02*
D03*
X5156200Y3728435D02*
D03*
Y4018565D02*
D03*
X5662560Y3068035D02*
D03*
Y3358165D02*
D03*
D55*
X10605200Y10350900D02*
D03*
D56*
X7582866Y4292607D02*
D03*
Y4512607D02*
D03*
X7988670Y4570107D02*
D03*
Y4350107D02*
D03*
X15975290Y4446841D02*
D03*
Y4226841D02*
D03*
X16368394D02*
D03*
Y4446841D02*
D03*
X11944381Y4409587D02*
D03*
Y4629587D02*
D03*
X11474481D02*
D03*
Y4409587D02*
D03*
X5256756Y4419687D02*
D03*
Y4199687D02*
D03*
X5662560Y4257187D02*
D03*
Y4477187D02*
D03*
D57*
X7271000Y6616700D02*
D03*
X7461000D02*
D03*
X11271500Y5549900D02*
D03*
X11461500D02*
D03*
X15557001Y5366500D02*
D03*
X15747000D02*
D03*
X5124200Y6629400D02*
D03*
X4934200D02*
D03*
D61*
X8864000Y6578600D02*
D03*
X12916499Y3225800D02*
D03*
D62*
X8154000Y6578600D02*
D03*
X12979401Y4380900D02*
D03*
X8839200Y7480300D02*
D03*
X8801100Y5106000D02*
D03*
X8559800Y6260500D02*
D03*
X13626500Y3225800D02*
D03*
X14884399Y5321300D02*
D03*
Y3683600D02*
D03*
D63*
X9077960Y2255520D02*
D03*
X12410440D02*
D03*
D64*
X9784080Y2397760D02*
D03*
X10058400D02*
D03*
X10332720D02*
D03*
X10607039D02*
D03*
X10881359D02*
D03*
X11155679D02*
D03*
X11429999D02*
D03*
X9921241Y2113280D02*
D03*
X10195561D02*
D03*
X10469881D02*
D03*
X10744200D02*
D03*
X11018520D02*
D03*
X11292840D02*
D03*
X11567160D02*
D03*
D65*
X11704319Y2397760D02*
D03*
D66*
X4148600Y8887800D02*
D03*
Y10201800D02*
D03*
D67*
X4419600Y9194800D02*
D03*
Y9444800D02*
D03*
Y9644800D02*
D03*
D68*
Y9894800D02*
D03*
D69*
X14068500Y10782600D02*
D03*
X14968500D02*
D03*
X5051500Y10668300D02*
D03*
X5951500D02*
D03*
X16844955Y10780100D02*
D03*
X15644955D02*
D03*
D70*
X14368500Y10688600D02*
D03*
X14668500D02*
D03*
X14368500Y10388600D02*
D03*
X5351500Y10574300D02*
D03*
X5651500D02*
D03*
X5351500Y10274300D02*
D03*
X15944955Y10686100D02*
D03*
X16244955D02*
D03*
X16544955D02*
D03*
X15944955Y10386100D02*
D03*
X16244955D02*
D03*
X16544955D02*
D03*
D71*
X14668500Y10388600D02*
D03*
X5651500Y10274300D02*
D03*
D72*
X14883501Y10538600D02*
D03*
X14153500D02*
D03*
X5866500Y10424300D02*
D03*
X5136500D02*
D03*
D73*
X4683658Y3895042D02*
D03*
X15333891Y3584348D02*
D03*
X6959600Y3898900D02*
D03*
X8520670Y4408916D02*
D03*
X10858500Y3746500D02*
D03*
X12410594Y4275094D02*
D03*
X16890509Y4092348D02*
D03*
X6197255Y4381500D02*
D03*
D74*
X4683658Y4149042D02*
D03*
Y4403042D02*
D03*
X15519400Y9194800D02*
D03*
Y9448800D02*
D03*
X15333891Y3838348D02*
D03*
Y4092348D02*
D03*
X16890509Y3584348D02*
D03*
X12410594Y3767094D02*
D03*
X8520670Y3900916D02*
D03*
X6197255Y3873500D02*
D03*
X6959600Y4152900D02*
D03*
Y4406900D02*
D03*
X8520670Y4154916D02*
D03*
X10858500Y4254500D02*
D03*
Y4000500D02*
D03*
X12410594Y4021094D02*
D03*
X16890509Y3838348D02*
D03*
X6197255Y4127500D02*
D03*
D75*
X8995200Y10063600D02*
D03*
D76*
X9445200D02*
D03*
Y10713600D02*
D03*
X8995200D02*
D03*
X8554600Y10410400D02*
D03*
X7904600D02*
D03*
Y9960400D02*
D03*
D77*
X8554600D02*
D03*
D78*
X12979401Y3670900D02*
D03*
X8839200Y6770300D02*
D03*
X8801100Y5816000D02*
D03*
X8559800Y5550500D02*
D03*
X14884399Y4611300D02*
D03*
Y4393600D02*
D03*
D79*
X16759955Y10536100D02*
D03*
X15729955D02*
D03*
D80*
X15519400Y8940800D02*
D03*
D81*
X16662399Y8906700D02*
D03*
X14643100Y9745600D02*
D03*
D82*
X16662399Y9406700D02*
D03*
X14643100Y9245600D02*
D03*
%TF.MD5,c37cd313b3ccc7a93182e9a834a8b285*%
M02*
