%TF.GenerationSoftware,Altium Limited,Altium Designer,25.3.3 (18)*%
G04 Layer_Color=16711935*
%FSLAX45Y45*%
%MOMM*%
%TF.SameCoordinates,7852E7E1-4E30-4CDD-8EF1-640B4E54786C*%
%TF.FilePolarity,Positive*%
%TF.FileFunction,Other,Top_3D_Body*%
%TF.Part,Single*%
G01*
G75*
%TA.AperFunction,NonConductor*%
%ADD106C,0.20000*%
%ADD109C,0.15000*%
%ADD110C,0.12700*%
%ADD146C,0.10000*%
%ADD147R,1.30000X0.25250*%
D106*
X4429600Y10395800D02*
G03*
X4429600Y10395800I-10000J0D01*
G01*
X12922900Y8297700D02*
G03*
X12922900Y8297700I-10000J0D01*
G01*
X8314000Y6493600D02*
X8704000D01*
X8314000D02*
Y6663600D01*
X8704000D01*
Y6493600D02*
Y6663600D01*
X4591100Y10231100D02*
X4756100D01*
X4591100Y9911100D02*
Y10231100D01*
Y9911100D02*
X4756100D01*
Y10231100D01*
X12720320Y666750D02*
Y2584450D01*
X8768080D02*
X12720320D01*
X8768080Y666750D02*
Y2584450D01*
Y666750D02*
X12720320D01*
X5495400Y7044400D02*
Y7484400D01*
X4715400Y7044400D02*
X5495400D01*
X4715400D02*
Y7484400D01*
X5495400D01*
X13998500Y10116600D02*
Y11043600D01*
Y10116600D02*
X15038499D01*
Y11043600D01*
X13998500D02*
X15038499D01*
X10372100Y8356500D02*
X10532100D01*
X10372100Y8026500D02*
Y8356500D01*
Y8026500D02*
X10532100D01*
Y8356500D01*
X14511000Y3741002D02*
Y3991002D01*
X14191000D02*
X14511000D01*
X14191000Y3741002D02*
Y3991002D01*
Y3741002D02*
X14511000D01*
X13327400Y6322011D02*
Y6572011D01*
Y6322011D02*
X13647400D01*
Y6572011D01*
X13327400D02*
X13647400D01*
X12894400Y3830900D02*
X13064400D01*
Y4220900D01*
X12894400D02*
X13064400D01*
X12894400Y3830900D02*
Y4220900D01*
X8754200Y6930300D02*
X8924200D01*
Y7320300D01*
X8754200D02*
X8924200D01*
X8754200Y6930300D02*
Y7320300D01*
X8716100Y5656000D02*
X8886100D01*
X8716100Y5266000D02*
Y5656000D01*
Y5266000D02*
X8886100D01*
Y5656000D01*
X8474800Y5710500D02*
X8644800D01*
Y6100500D01*
X8474800D02*
X8644800D01*
X8474800Y5710500D02*
Y6100500D01*
X13076500Y3140800D02*
Y3310800D01*
Y3140800D02*
X13466499D01*
Y3310800D01*
X13076500D02*
X13466499D01*
X14799400Y4771300D02*
X14969400D01*
Y5161300D01*
X14799400D02*
X14969400D01*
X14799400Y4771300D02*
Y5161300D01*
Y4233600D02*
X14969400D01*
X14799400Y3843600D02*
Y4233600D01*
Y3843600D02*
X14969400D01*
Y4233600D01*
X10260500Y9545500D02*
X10440500D01*
Y9885500D01*
X10260500D02*
X10440500D01*
X10260500Y9545500D02*
Y9885500D01*
X4981500Y10002300D02*
Y10929300D01*
Y10002300D02*
X6021500D01*
Y10929300D01*
X4981500D02*
X6021500D01*
X15573955Y10115100D02*
Y11045100D01*
Y10115100D02*
X16915955D01*
Y11045100D01*
X15573955D02*
X16915955D01*
X5792300Y9151800D02*
Y9491800D01*
X5612300Y9151800D02*
X5792300D01*
X5612300D02*
Y9491800D01*
X5792300D01*
X4875700Y9496800D02*
X5055700D01*
X4875700Y9146800D02*
Y9496800D01*
Y9146800D02*
X5055700D01*
Y9496800D01*
X5397300Y8921700D02*
X5717300D01*
Y8756700D02*
Y8921700D01*
X5397300Y8756700D02*
X5717300D01*
X5397300D02*
Y8921700D01*
X4856500D02*
X5176500D01*
Y8756700D02*
Y8921700D01*
X4856500Y8756700D02*
X5176500D01*
X4856500D02*
Y8921700D01*
X4781500Y9149100D02*
Y9469100D01*
X4616500Y9149100D02*
X4781500D01*
X4616500D02*
Y9469100D01*
X4781500D01*
X10158900Y8478700D02*
Y8818700D01*
X10338900D01*
Y8478700D02*
Y8818700D01*
X10158900Y8478700D02*
X10338900D01*
X11024700Y8491400D02*
Y8831400D01*
X10844700Y8491400D02*
X11024700D01*
X10844700D02*
Y8831400D01*
X11024700D01*
X12864000Y7252700D02*
Y7377700D01*
X12663000D02*
X12864000D01*
X12663000Y7252700D02*
Y7377700D01*
Y7252700D02*
X12864000D01*
X12358100Y7142878D02*
X12483100D01*
Y7343878D01*
X12358100D02*
X12483100D01*
X12358100Y7142878D02*
Y7343878D01*
X12891600Y6986000D02*
Y7111000D01*
Y6986000D02*
X13092599D01*
Y7111000D01*
X12891600D02*
X13092599D01*
X13270399Y7506700D02*
Y7631700D01*
X13069400D02*
X13270399D01*
X13069400Y7506700D02*
Y7631700D01*
Y7506700D02*
X13270399D01*
X11384300Y8807400D02*
X11704300D01*
Y8642400D02*
Y8807400D01*
X11384300Y8642400D02*
X11704300D01*
X11384300D02*
Y8807400D01*
Y8185200D02*
X11704300D01*
X11384300D02*
Y8350200D01*
X11704300D01*
Y8185200D02*
Y8350200D01*
X11384300Y8121600D02*
X11704300D01*
Y7956600D02*
Y8121600D01*
X11384300Y7956600D02*
X11704300D01*
X11384300D02*
Y8121600D01*
Y8591500D02*
X11704300D01*
Y8426500D02*
Y8591500D01*
X11384300Y8426500D02*
X11704300D01*
X11384300D02*
Y8591500D01*
X12005800Y7217300D02*
X12225800D01*
X12005800D02*
Y7362300D01*
X12225800D01*
Y7217300D02*
Y7362300D01*
X12352300Y8563500D02*
X12572300D01*
X12352300D02*
Y8708500D01*
X12572300D01*
Y8563500D02*
Y8708500D01*
X9649164Y9610100D02*
X9969164D01*
X9649164D02*
Y9770100D01*
X9969164D01*
Y9610100D02*
Y9770100D01*
X12240400Y9413100D02*
Y9713100D01*
X11940400Y9413100D02*
X12240400D01*
X11940400D02*
Y9713100D01*
X12240400D01*
X10637700Y8129100D02*
X10977700D01*
Y7949100D02*
Y8129100D01*
X10637700Y7949100D02*
X10977700D01*
X10637700D02*
Y8129100D01*
X11869600Y9879500D02*
Y10059500D01*
Y9879500D02*
X12209600D01*
Y10059500D01*
X11869600D02*
X12209600D01*
X12870200Y9889500D02*
Y10049500D01*
Y9889500D02*
X13190199D01*
Y10049500D01*
X12870200D02*
X13190199D01*
X13192900Y9400400D02*
Y9700400D01*
X12892900Y9400400D02*
X13192900D01*
X12892900D02*
Y9700400D01*
X13192900D01*
X12584600Y9113700D02*
X12764600D01*
Y9453700D01*
X12584600D02*
X12764600D01*
X12584600Y9113700D02*
Y9453700D01*
X13177499Y9038600D02*
Y9198600D01*
X12857500D02*
X13177499D01*
X12857500Y9038600D02*
Y9198600D01*
Y9038600D02*
X13177499D01*
X12604800Y9695200D02*
X12769800D01*
Y10015200D01*
X12604800D02*
X12769800D01*
X12604800Y9695200D02*
Y10015200D01*
X12376200Y9695200D02*
X12541200D01*
Y10015200D01*
X12376200D02*
X12541200D01*
X12376200Y9695200D02*
Y10015200D01*
X11682900Y9393100D02*
X11862900D01*
Y9733100D01*
X11682900D02*
X11862900D01*
X11682900Y9393100D02*
Y9733100D01*
X11487200Y9403100D02*
X11652200D01*
Y9723100D01*
X11487200D02*
X11652200D01*
X11487200Y9403100D02*
Y9723100D01*
X11818800Y9104800D02*
Y9284800D01*
Y9104800D02*
X12158800D01*
Y9284800D01*
X11818800D02*
X12158800D01*
X14972200Y8907600D02*
X15152200D01*
X14972200Y8567600D02*
Y8907600D01*
Y8567600D02*
X15152200D01*
Y8907600D01*
X14540401Y8374100D02*
X14720399D01*
X14540401Y8034100D02*
Y8374100D01*
Y8034100D02*
X14720399D01*
Y8374100D01*
X15823100Y9443900D02*
Y9783900D01*
X16003101D01*
Y9443900D02*
Y9783900D01*
X15823100Y9443900D02*
X16003101D01*
X13754675Y7626400D02*
Y7791400D01*
Y7626400D02*
X14074677D01*
Y7791400D01*
X13754675D02*
X14074677D01*
X13816499Y8303000D02*
X13996500D01*
X13816499Y7953000D02*
Y8303000D01*
Y7953000D02*
X13996500D01*
Y8303000D01*
X14317999Y7791400D02*
X14638000D01*
Y7626400D02*
Y7791400D01*
X14317999Y7626400D02*
X14638000D01*
X14317999D02*
Y7791400D01*
X15558600Y8161200D02*
Y8501200D01*
X15378600Y8161200D02*
X15558600D01*
X15378600D02*
Y8501200D01*
X15558600D01*
X15378600Y7704000D02*
Y8044000D01*
X15558600D01*
Y7704000D02*
Y8044000D01*
X15378600Y7704000D02*
X15558600D01*
X15322501Y7752100D02*
Y8072100D01*
X15157500Y7752100D02*
X15322501D01*
X15157500D02*
Y8072100D01*
X15322501D01*
X15232401Y7410500D02*
Y7575500D01*
Y7410500D02*
X15552400D01*
Y7575500D01*
X15232401D02*
X15552400D01*
X10697100Y5782800D02*
Y6002800D01*
X10842100D01*
Y5782800D02*
Y6002800D01*
X10697100Y5782800D02*
X10842100D01*
X6164600Y8502700D02*
X6484600D01*
X6164600D02*
Y8667700D01*
X6484600D01*
Y8502700D02*
Y8667700D01*
X6164600Y8896300D02*
X6484600D01*
Y8731300D02*
Y8896300D01*
X6164600Y8731300D02*
X6484600D01*
X6164600D02*
Y8896300D01*
X6490800Y9596300D02*
Y9936300D01*
X6310800Y9596300D02*
X6490800D01*
X6310800D02*
Y9936300D01*
X6490800D01*
X6242000Y9174500D02*
Y9494500D01*
X6077000Y9174500D02*
X6242000D01*
X6077000D02*
Y9494500D01*
X6242000D01*
X6310800Y9132583D02*
X6490800D01*
Y9472583D01*
X6310800D02*
X6490800D01*
X6310800Y9132583D02*
Y9472583D01*
X9099600Y6966200D02*
X9264600D01*
Y7286200D01*
X9099600D02*
X9264600D01*
X9099600Y6966200D02*
Y7286200D01*
X10637700Y8190400D02*
Y8370400D01*
Y8190400D02*
X10977700D01*
Y8370400D01*
X10637700D02*
X10977700D01*
X10571500Y9719300D02*
X10891500D01*
Y9559300D02*
Y9719300D01*
X10571500Y9559300D02*
X10891500D01*
X10571500D02*
Y9719300D01*
X10245100Y10088900D02*
Y10408900D01*
X10405100D01*
Y10088900D02*
Y10408900D01*
X10245100Y10088900D02*
X10405100D01*
X10759450Y10447150D02*
X11109950D01*
Y9796650D02*
Y10447150D01*
X10759450Y9796650D02*
X11109950D01*
X10759450D02*
Y10447150D01*
X10173800Y10078900D02*
Y10418900D01*
X9993800Y10078900D02*
X10173800D01*
X9993800D02*
Y10418900D01*
X10173800D01*
X9633000Y9940100D02*
X9798000D01*
Y10260100D01*
X9633000D02*
X9798000D01*
X9633000Y9940100D02*
Y10260100D01*
X8669000Y10547400D02*
Y10712400D01*
X8349000D02*
X8669000D01*
X8349000Y10547400D02*
Y10712400D01*
Y10547400D02*
X8669000D01*
X7385100Y6050300D02*
X7550100D01*
Y6370300D01*
X7385100D02*
X7550100D01*
X7385100Y6050300D02*
Y6370300D01*
X7404553Y5824917D02*
X7724553D01*
Y5659917D02*
Y5824917D01*
X7404553Y5659917D02*
X7724553D01*
X7404553D02*
Y5824917D01*
X7776700Y6277500D02*
Y6422500D01*
Y6277500D02*
X7996700D01*
Y6422500D01*
X7776700D02*
X7996700D01*
X7752100Y5950000D02*
Y6115000D01*
Y5950000D02*
X8072100D01*
Y6115000D01*
X7752100D02*
X8072100D01*
X7964653Y5010917D02*
Y5330917D01*
X8129653D01*
Y5010917D02*
Y5330917D01*
X7964653Y5010917D02*
X8129653D01*
X8384800D02*
Y5330917D01*
X8219800Y5010917D02*
X8384800D01*
X8219800D02*
Y5330917D01*
X8384800D01*
X7032400Y7429038D02*
X7812400D01*
X7032400Y6989038D02*
Y7429038D01*
Y6989038D02*
X7812400D01*
Y7429038D01*
X7510000Y7738000D02*
Y7883000D01*
Y7738000D02*
X7730000D01*
Y7883000D01*
X7510000D02*
X7730000D01*
X7773500Y6541500D02*
Y6666500D01*
Y6541500D02*
X7974500D01*
Y6666500D01*
X7773500D02*
X7974500D01*
X7992000Y7217900D02*
X8137000D01*
Y7437900D01*
X7992000D02*
X8137000D01*
X7992000Y7217900D02*
Y7437900D01*
X8018800Y6839000D02*
Y7004000D01*
Y6839000D02*
X8338800D01*
Y7004000D01*
X8018800D02*
X8338800D01*
X8294100Y7227400D02*
X8419100D01*
Y7428400D01*
X8294100D02*
X8419100D01*
X8294100Y7227400D02*
Y7428400D01*
X6807653Y5824917D02*
X7127653D01*
Y5659917D02*
Y5824917D01*
X6807653Y5659917D02*
X7127653D01*
X6807653D02*
Y5824917D01*
X7630700Y3713500D02*
Y4033500D01*
X7380700Y3713500D02*
X7630700D01*
X7380700D02*
Y4033500D01*
X7630700D01*
X7457270Y3098949D02*
Y3418949D01*
X7707270D01*
Y3098949D02*
Y3418949D01*
X7457270Y3098949D02*
X7707270D01*
X8113670D02*
Y3418949D01*
X7863670Y3098949D02*
X8113670D01*
X7863670D02*
Y3418949D01*
X8113670D01*
X7863670Y3713904D02*
Y4033904D01*
X8113670D01*
Y3713904D02*
Y4033904D01*
X7863670Y3713904D02*
X8113670D01*
X6858453Y3263917D02*
X7178453D01*
Y3013917D02*
Y3263917D01*
X6858453Y3013917D02*
X7178453D01*
X6858453D02*
Y3263917D01*
X7044200Y6252100D02*
Y6397100D01*
X6824200D02*
X7044200D01*
X6824200Y6252100D02*
Y6397100D01*
Y6252100D02*
X7044200D01*
X7047400Y6554200D02*
Y6679200D01*
X6846400D02*
X7047400D01*
X6846400Y6554200D02*
Y6679200D01*
Y6554200D02*
X7047400D01*
X6734700Y6849600D02*
X6879700D01*
Y7069600D01*
X6734700D02*
X6879700D01*
X6734700Y6849600D02*
Y7069600D01*
X7093000Y8135600D02*
X7258000D01*
X7093000Y7815600D02*
Y8135600D01*
Y7815600D02*
X7258000D01*
Y8135600D01*
X6864400D02*
X7029400D01*
X6864400Y7815600D02*
Y8135600D01*
Y7815600D02*
X7029400D01*
Y8135600D01*
X6635800D02*
X6800800D01*
X6635800Y7815600D02*
Y8135600D01*
Y7815600D02*
X6800800D01*
Y8135600D01*
X9998500Y6966201D02*
X10163500D01*
Y7286201D01*
X9998500D02*
X10163500D01*
X9998500Y6966201D02*
Y7286201D01*
X9867227Y6268755D02*
X10032227D01*
Y6588755D01*
X9867227D02*
X10032227D01*
X9867227Y6268755D02*
Y6588755D01*
X10109697Y6268755D02*
X10274697D01*
Y6588755D01*
X10109697D02*
X10274697D01*
X10109697Y6268755D02*
Y6588755D01*
X9110528Y6268754D02*
X9275528D01*
Y6588754D01*
X9110528D02*
X9275528D01*
X9110528Y6268754D02*
Y6588754D01*
X9359407Y6268754D02*
X9524407D01*
Y6588754D01*
X9359407D02*
X9524407D01*
X9359407Y6268754D02*
Y6588754D01*
X10104438Y4600807D02*
X10269438D01*
Y4920807D01*
X10104438D02*
X10269438D01*
X10104438Y4600807D02*
Y4920807D01*
X9844243Y3890662D02*
X10009243D01*
Y4210661D01*
X9844243D02*
X10009243D01*
X9844243Y3890662D02*
Y4210661D01*
X10093311Y3890662D02*
X10258311D01*
Y4210661D01*
X10093311D02*
X10258311D01*
X10093311Y3890662D02*
Y4210661D01*
X9091659Y3890662D02*
X9256659D01*
Y4210661D01*
X9091659D02*
X9256659D01*
X9091659Y3890662D02*
Y4210661D01*
X9323671Y3890660D02*
X9488671D01*
Y4210660D01*
X9323671D02*
X9488671D01*
X9323671Y3890660D02*
Y4210660D01*
X9086900Y4539000D02*
X9251900D01*
Y4859000D01*
X9086900D02*
X9251900D01*
X9086900Y4539000D02*
Y4859000D01*
X16506094Y3022754D02*
Y3342754D01*
X16256094Y3022754D02*
X16506094D01*
X16256094D02*
Y3342754D01*
X16506094D01*
X15849695Y3022754D02*
Y3342754D01*
X16099695D01*
Y3022754D02*
Y3342754D01*
X15849695Y3022754D02*
X16099695D01*
X16005600Y3657100D02*
Y3977100D01*
X15755600Y3657100D02*
X16005600D01*
X15755600D02*
Y3977100D01*
X16005600D01*
X16243394Y3657754D02*
Y3977754D01*
X16493394D01*
Y3657754D02*
Y3977754D01*
X16243394Y3657754D02*
X16493394D01*
X10585500Y7081500D02*
X10750500D01*
X10585500Y6761500D02*
Y7081500D01*
Y6761500D02*
X10750500D01*
Y7081500D01*
X12044700Y5746800D02*
Y5911800D01*
Y5746800D02*
X12364700D01*
Y5911800D01*
X12044700D02*
X12364700D01*
X11349481Y3205500D02*
Y3525500D01*
X11599481D01*
Y3205500D02*
Y3525500D01*
X11349481Y3205500D02*
X11599481D01*
X11819381Y3840500D02*
Y4160500D01*
X12069381D01*
Y3840500D02*
Y4160500D01*
X11819381Y3840500D02*
X12069381D01*
Y3205500D02*
Y3525500D01*
X11819381Y3205500D02*
X12069381D01*
X11819381D02*
Y3525500D01*
X12069381D01*
X11504200Y3840500D02*
Y4160500D01*
X11254200Y3840500D02*
X11504200D01*
X11254200D02*
Y4160500D01*
X11504200D01*
X11769200Y5926800D02*
Y6366800D01*
X10989200Y5926800D02*
X11769200D01*
X10989200D02*
Y6366800D01*
X11769200D01*
X11765300Y4857800D02*
Y5022800D01*
Y4857800D02*
X12085300D01*
Y5022800D01*
X11765300D02*
X12085300D01*
X11385600Y4958100D02*
X11550600D01*
Y5278100D01*
X11385600D02*
X11550600D01*
X11385600Y4958100D02*
Y5278100D01*
X13327400Y6786945D02*
X13647400D01*
Y6621945D02*
Y6786945D01*
X13327400Y6621945D02*
X13647400D01*
X13327400D02*
Y6786945D01*
Y6024700D02*
X13647400D01*
Y5859700D02*
Y6024700D01*
X13327400Y5859700D02*
X13647400D01*
X13327400D02*
Y6024700D01*
Y7301811D02*
X13647400D01*
Y7136811D02*
Y7301811D01*
X13327400Y7136811D02*
X13647400D01*
X13327400D02*
Y7301811D01*
Y7046389D02*
X13647400D01*
Y6881389D02*
Y7046389D01*
X13327400Y6881389D02*
X13647400D01*
X13327400D02*
Y7046389D01*
X14191000Y4042166D02*
X14511000D01*
X14191000D02*
Y4207166D01*
X14511000D01*
Y4042166D02*
Y4207166D01*
X14191000Y3534707D02*
X14511000D01*
X14191000D02*
Y3699707D01*
X14511000D01*
Y3534707D02*
Y3699707D01*
X14191000Y3015851D02*
X14511000D01*
X14191000D02*
Y3180851D01*
X14511000D01*
Y3015851D02*
Y3180851D01*
X14191000Y3274254D02*
X14511000D01*
X14191000D02*
Y3439254D01*
X14511000D01*
Y3274254D02*
Y3439254D01*
X14191000Y4295241D02*
X14511000D01*
X14191000D02*
Y4460241D01*
X14511000D01*
Y4295241D02*
Y4460241D01*
X13327400Y6278112D02*
X13647400D01*
Y6113112D02*
Y6278112D01*
X13327400Y6113112D02*
X13647400D01*
X13327400D02*
Y6278112D01*
X13327400Y5776831D02*
X13647398D01*
Y5611832D02*
Y5776831D01*
X13327400Y5611832D02*
X13647398D01*
X13327400D02*
Y5776831D01*
X14191000Y4547665D02*
X14510999D01*
X14191000D02*
Y4712664D01*
X14510999D01*
Y4547665D02*
Y4712664D01*
X16088901Y4661700D02*
Y4826700D01*
Y4661700D02*
X16408900D01*
Y4826700D01*
X16088901D02*
X16408900D01*
X11080800Y7081500D02*
X11245800D01*
X11080800Y6761500D02*
Y7081500D01*
Y6761500D02*
X11245800D01*
Y7081500D01*
X11466429Y6831091D02*
X11686429D01*
Y6686092D02*
Y6831091D01*
X11466429Y6686092D02*
X11686429D01*
X11466429D02*
Y6831091D01*
X10839500Y7081500D02*
X11004500D01*
X10839500Y6761500D02*
Y7081500D01*
Y6761500D02*
X11004500D01*
Y7081500D01*
X11799400Y5462000D02*
Y5587000D01*
Y5462000D02*
X12000400D01*
Y5587000D01*
X11799400D02*
X12000400D01*
X12243800Y6249500D02*
X12368800D01*
Y6450500D01*
X12243800D02*
X12368800D01*
X12243800Y6249500D02*
Y6450500D01*
X11954400Y6240000D02*
X12099400D01*
Y6460000D01*
X11954400D02*
X12099400D01*
X11954400Y6240000D02*
Y6460000D01*
X11789900Y5172600D02*
Y5317600D01*
Y5172600D02*
X12009900D01*
Y5317600D01*
X11789900D02*
X12009900D01*
X11022500Y5500100D02*
Y5625100D01*
X10821500D02*
X11022500D01*
X10821500Y5500100D02*
Y5625100D01*
Y5500100D02*
X11022500D01*
X11032000Y5185300D02*
Y5330300D01*
X10812000D02*
X11032000D01*
X10812000Y5185300D02*
Y5330300D01*
Y5185300D02*
X11032000D01*
X16042000Y5743400D02*
Y6183400D01*
X15262000Y5743400D02*
X16042000D01*
X15262000D02*
Y6183400D01*
X16042000D01*
X16317500Y5550700D02*
Y5715700D01*
Y5550700D02*
X16637500D01*
Y5715700D01*
X16317500D02*
X16637500D01*
X15666911Y4756654D02*
X15831912D01*
Y5076654D01*
X15666911D02*
X15831912D01*
X15666911Y4756654D02*
Y5076654D01*
X15320700Y5304000D02*
Y5429000D01*
X15119701D02*
X15320700D01*
X15119701Y5304000D02*
Y5429000D01*
Y5304000D02*
X15320700D01*
X16110300Y5278600D02*
Y5403600D01*
Y5278600D02*
X16311301D01*
Y5403600D01*
X16110300D02*
X16311301D01*
X15341010Y4976013D02*
Y5121013D01*
X15121008D02*
X15341010D01*
X15121008Y4976013D02*
Y5121013D01*
Y4976013D02*
X15341010D01*
X16100800Y4984154D02*
Y5129154D01*
Y4984154D02*
X16320799D01*
Y5129154D01*
X16100800D02*
X16320799D01*
X14982600Y5612100D02*
X15127600D01*
Y5832100D01*
X14982600D02*
X15127600D01*
X14982600Y5612100D02*
Y5832100D01*
X16503900Y6015300D02*
X16628900D01*
Y6216300D01*
X16503900D02*
X16628900D01*
X16503900Y6015300D02*
Y6216300D01*
X16201801Y6005800D02*
X16346800D01*
Y6225800D01*
X16201801D02*
X16346800D01*
X16201801Y6005800D02*
Y6225800D01*
X15737544Y6513346D02*
Y6658346D01*
Y6513346D02*
X15957545D01*
Y6658346D01*
X15737544D02*
X15957545D01*
X15347568Y6872700D02*
X15512567D01*
X15347568Y6552700D02*
Y6872700D01*
Y6552700D02*
X15512567D01*
Y6872700D01*
X15106340Y6872700D02*
X15271339D01*
X15106340Y6552700D02*
Y6872700D01*
Y6552700D02*
X15271339D01*
Y6872700D01*
X14852248Y6872700D02*
X15017249D01*
X14852248Y6552700D02*
Y6872700D01*
Y6552700D02*
X15017249D01*
Y6872700D01*
X4450100Y5822900D02*
X4770100D01*
Y5657900D02*
Y5822900D01*
X4450100Y5657900D02*
X4770100D01*
X4450100D02*
Y5822900D01*
X4437400Y3024600D02*
Y3274600D01*
Y3024600D02*
X4757400D01*
Y3274600D01*
X4437400D02*
X4757400D01*
X5537560Y3645932D02*
X5787560D01*
Y3965932D01*
X5537560D02*
X5787560D01*
X5537560Y3645932D02*
Y3965932D01*
X5131160Y3053100D02*
X5381160D01*
Y3373100D01*
X5131160D02*
X5381160D01*
X5131160Y3053100D02*
Y3373100D01*
X5031200Y4033500D02*
X5281200D01*
X5031200Y3713500D02*
Y4033500D01*
Y3713500D02*
X5281200D01*
Y4033500D01*
X5556300Y5047000D02*
Y5367000D01*
X5721300D01*
Y5047000D02*
Y5367000D01*
X5556300Y5047000D02*
X5721300D01*
X5537560Y3373100D02*
X5787560D01*
X5537560Y3053100D02*
Y3373100D01*
Y3053100D02*
X5787560D01*
Y3373100D01*
X5951329Y5047000D02*
Y5367000D01*
X5786330Y5047000D02*
X5951329D01*
X5786330D02*
Y5367000D01*
X5951329D01*
X5377200Y6140400D02*
X5697200D01*
Y5975400D02*
Y6140400D01*
X5377200Y5975400D02*
X5697200D01*
X5377200D02*
Y6140400D01*
X5452600Y6435200D02*
X5672600D01*
Y6290200D02*
Y6435200D01*
X5452600Y6290200D02*
X5672600D01*
X5452600D02*
Y6435200D01*
X4476700Y7853700D02*
Y8173700D01*
X4311700Y7853700D02*
X4476700D01*
X4311700D02*
Y8173700D01*
X4476700D01*
X4718000Y7853700D02*
Y8173700D01*
X4553000Y7853700D02*
X4718000D01*
X4553000D02*
Y8173700D01*
X4718000D01*
X4971997Y7848397D02*
Y8168396D01*
X4806997Y7848397D02*
X4971997D01*
X4806997D02*
Y8168396D01*
X4971997D01*
X4509600Y6566900D02*
X4710600D01*
X4509600D02*
Y6691900D01*
X4710600D01*
Y6566900D02*
Y6691900D01*
X4512800Y6264800D02*
X4732800D01*
X4512800D02*
Y6409800D01*
X4732800D01*
Y6264800D02*
Y6409800D01*
X5035603Y6068304D02*
Y6388303D01*
X5200603D01*
Y6068304D02*
Y6388303D01*
X5035603Y6068304D02*
X5200603D01*
X5462100Y6691900D02*
X5663100D01*
Y6566900D02*
Y6691900D01*
X5462100Y6566900D02*
X5663100D01*
X5462100D02*
Y6691900D01*
X5629800Y7243300D02*
Y7463300D01*
X5774800D01*
Y7243300D02*
Y7463300D01*
X5629800Y7243300D02*
X5774800D01*
X5919200Y7252800D02*
Y7453800D01*
X6044200D01*
Y7252800D02*
Y7453800D01*
X5919200Y7252800D02*
X6044200D01*
X5034640Y5822900D02*
X5354640D01*
Y5657900D02*
Y5822900D01*
X5034640Y5657900D02*
X5354640D01*
X5034640D02*
Y5822900D01*
X5185900Y7933800D02*
X5405900D01*
Y7788800D02*
Y7933800D01*
X5185900Y7788800D02*
X5405900D01*
X5185900D02*
Y7933800D01*
X4436000Y6862300D02*
Y7082300D01*
X4581000D01*
Y6862300D02*
Y7082300D01*
X4436000Y6862300D02*
X4581000D01*
X5689400Y6915200D02*
Y7080200D01*
Y6915200D02*
X6009400D01*
Y7080200D01*
X5689400D02*
X6009400D01*
D109*
X17187399Y9156700D02*
G03*
X17187399Y9156700I-525000J0D01*
G01*
X15168100Y9495600D02*
G03*
X15168100Y9495600I-525000J0D01*
G01*
D110*
X3118600Y10269800D02*
X4528600D01*
X3118600Y8819800D02*
Y10269800D01*
Y8819800D02*
X4528600D01*
Y10269800D01*
X11964400Y7633700D02*
X12934399D01*
X11964400Y8073700D02*
X12934399D01*
X11964400Y7633700D02*
Y8073700D01*
X12934399Y7633700D02*
Y8073700D01*
D146*
X9800700Y8381600D02*
G03*
X9800700Y8381600I-50000J0D01*
G01*
X13849800Y5253500D02*
G03*
X13849800Y5253500I-50000J0D01*
G01*
X14459801Y5740500D02*
G03*
X14459801Y5740500I-50000J0D01*
G01*
X13491299Y4292500D02*
G03*
X13491299Y4292500I-50000J0D01*
G01*
X4901658Y3634042D02*
Y4664042D01*
X4416658Y3634042D02*
Y4664042D01*
Y3634042D02*
X4901658D01*
X4416658Y4664042D02*
X4901658D01*
X4541658Y3634042D02*
Y4664042D01*
X11320200Y10775900D02*
Y10820900D01*
X11300200Y10775900D02*
X11320200D01*
X11300200D02*
Y10820900D01*
X11420200Y10775900D02*
Y10820900D01*
X11400200Y10775900D02*
X11420200D01*
X11400200D02*
Y10820900D01*
X11720200Y10775900D02*
Y10820900D01*
X11700200Y10775900D02*
X11720200D01*
X11700200D02*
Y10820900D01*
X11820200Y10775900D02*
Y10820900D01*
X11800200Y10775900D02*
X11820200D01*
X11800200D02*
Y10820900D01*
X12220200Y10775900D02*
Y10820900D01*
X12200200Y10775900D02*
X12220200D01*
X12200200D02*
Y10820900D01*
X12100200Y10775900D02*
Y10820900D01*
Y10775900D02*
X12120200D01*
Y10820900D01*
X12000200Y10775900D02*
Y10820900D01*
Y10775900D02*
X12020200D01*
Y10820900D01*
X11900200Y10775900D02*
Y10820900D01*
Y10775900D02*
X11920200D01*
Y10820900D01*
X11600200Y10775900D02*
Y10820900D01*
Y10775900D02*
X11620200D01*
Y10820900D01*
X11500200Y10775900D02*
Y10820900D01*
Y10775900D02*
X11520200D01*
Y10820900D01*
X10950200Y11110900D02*
Y11200900D01*
X10950201Y11110900D02*
X11020200D01*
Y10820900D02*
Y11110900D01*
X12500200Y10820900D02*
Y11110900D01*
X12570199D01*
X12570200Y11110900D01*
Y11200900D01*
X10950200D02*
X12570200D01*
X11020200Y10820900D02*
X12500200D01*
X9519700Y10089100D02*
Y10688100D01*
X8920700D02*
X9519700D01*
X8920700Y10089100D02*
Y10688100D01*
Y10089100D02*
X9519700D01*
X7930100Y10484900D02*
X8529100D01*
X7930100Y9885900D02*
Y10484900D01*
Y9885900D02*
X8529100D01*
Y10484900D01*
X12062800Y8492600D02*
X12282800D01*
X12062800Y8347600D02*
X12282800D01*
X12062800D02*
Y8492600D01*
X12282800Y8347600D02*
Y8492600D01*
X9130700Y9001600D02*
X9840700D01*
X9130700Y8291600D02*
X9840700D01*
X9130700D02*
Y9001600D01*
X9840700Y8291600D02*
Y9001600D01*
X5195100Y9232300D02*
Y9407300D01*
X5485100Y9232300D02*
Y9407300D01*
X5195100Y9232300D02*
X5485100D01*
X5195100Y9407300D02*
X5485100D01*
X5643700Y9625500D02*
Y9805500D01*
X5303700Y9625500D02*
Y9805500D01*
Y9625500D02*
X5643700D01*
X5303700Y9805500D02*
X5643700D01*
X10431800Y8460200D02*
Y8710200D01*
X10751800D01*
X10431800Y8460200D02*
X10751800D01*
Y8710200D01*
X13389799Y5343500D02*
X13889799D01*
X13389799Y4943500D02*
X13889799D01*
Y5343500D01*
X13389799Y4943500D02*
Y5343500D01*
X11993100Y6988700D02*
Y7133700D01*
X12213100Y6988700D02*
Y7133700D01*
X11993100D02*
X12213100D01*
X11993100Y6988700D02*
X12213100D01*
X12367900Y8347600D02*
Y8492600D01*
X12587900Y8347600D02*
Y8492600D01*
X12367900D02*
X12587900D01*
X12367900Y8347600D02*
X12587900D01*
X12898900D02*
Y8492600D01*
X12678900Y8347600D02*
Y8492600D01*
Y8347600D02*
X12898900D01*
X12678900Y8492600D02*
X12898900D01*
X11738500Y7421100D02*
X11883500D01*
X11738500Y7641100D02*
X11883500D01*
X11738500Y7421100D02*
Y7641100D01*
X11883500Y7421100D02*
Y7641100D01*
X12225800Y8563500D02*
Y8708500D01*
X12005800Y8563500D02*
Y8708500D01*
Y8563500D02*
X12225800D01*
X12005800Y8708500D02*
X12225800D01*
X13051601Y8023700D02*
X13186600D01*
X13051601Y7813700D02*
X13186600D01*
Y8023700D01*
X13051601Y7813700D02*
Y8023700D01*
X15364400Y8674800D02*
Y9714800D01*
X15234399D02*
X15694400D01*
X15234399Y8674800D02*
Y9714800D01*
Y8674800D02*
X15694400D01*
Y8674800D02*
Y9714800D01*
X16053999Y7486200D02*
X16994000D01*
X16053999Y8541200D02*
X16994000D01*
Y7486200D02*
Y8541200D01*
X16053999Y7486200D02*
Y8541200D01*
X14123700Y8076600D02*
Y8251600D01*
X14413699Y8076600D02*
Y8251600D01*
X14123700Y8076600D02*
X14413699D01*
X14123700Y8251600D02*
X14413699D01*
X14571800Y8469800D02*
Y8649800D01*
X14231799Y8469800D02*
Y8649800D01*
Y8469800D02*
X14571800D01*
X14231799Y8649800D02*
X14571800D01*
X6960800Y8781600D02*
Y9836600D01*
X7900800Y8781600D02*
Y9836600D01*
X6960800D02*
X7900800D01*
X6960800Y8781600D02*
X7900800D01*
X15551891Y3323348D02*
Y4353348D01*
X15066891Y3323348D02*
Y4353348D01*
Y3323348D02*
X15551891D01*
X15066891Y4353348D02*
X15551891D01*
X15191891Y3323348D02*
Y4353348D01*
X14499800Y5650500D02*
Y6160500D01*
X14049800Y5650500D02*
Y6160500D01*
Y5650500D02*
X14499800D01*
X14049800Y6160500D02*
X14499800D01*
X13351300Y3872500D02*
X13801300D01*
X13351300Y4382500D02*
X13801300D01*
Y3872500D02*
Y4382500D01*
X13351300Y3872500D02*
Y4382500D01*
X7177600Y3637900D02*
Y4667900D01*
X6692600Y3637900D02*
Y4667900D01*
Y3637900D02*
X7177600D01*
X6692600Y4667900D02*
X7177600D01*
X6817600Y3637900D02*
Y4667900D01*
X8302670Y3639916D02*
Y4669916D01*
X8787670Y3639916D02*
Y4669916D01*
X8302670D02*
X8787670D01*
X8302670Y3639916D02*
X8787670D01*
X8662670D02*
Y4669916D01*
X7647866Y4313857D02*
Y4491357D01*
X7517866D02*
X7647866D01*
X7517866Y4313857D02*
X7647866D01*
X7517866D02*
Y4491357D01*
X7923670Y4371357D02*
Y4548857D01*
Y4371357D02*
X8053670D01*
X7923670Y4548857D02*
X8053670D01*
Y4371357D02*
Y4548857D01*
X7261000Y6684200D02*
X7471000D01*
X7261000Y6549200D02*
X7471000D01*
X7261000D02*
Y6684200D01*
X7471000Y6549200D02*
Y6684200D01*
X10716500Y3485500D02*
Y4515500D01*
X10591500D02*
X11076500D01*
X10591500Y3485500D02*
X11076500D01*
X10591500D02*
Y4515500D01*
X11076500Y3485500D02*
Y4515500D01*
X12552594Y3506094D02*
Y4536094D01*
X12192594Y3506094D02*
X12677594D01*
X12192594Y4536094D02*
X12677594D01*
Y3506094D02*
Y4536094D01*
X12192594Y3506094D02*
Y4536094D01*
X17032509Y3323348D02*
Y4353348D01*
X16672508Y3323348D02*
X17157509D01*
X16672508Y4353348D02*
X17157509D01*
Y3323348D02*
Y4353348D01*
X16672508Y3323348D02*
Y4353348D01*
X15910291Y4248091D02*
Y4425591D01*
Y4248091D02*
X16040291D01*
X15910291Y4425591D02*
X16040291D01*
Y4248091D02*
Y4425591D01*
X16433395Y4248091D02*
Y4425591D01*
X16303395D02*
X16433395D01*
X16303395Y4248091D02*
X16433395D01*
X16303395D02*
Y4425591D01*
X11261500Y5617400D02*
X11471500D01*
X11261500Y5482400D02*
X11471500D01*
X11261500D02*
Y5617400D01*
X11471500Y5482400D02*
Y5617400D01*
X12009382Y4430837D02*
Y4608337D01*
X11879381D02*
X12009382D01*
X11879381Y4430837D02*
X12009382D01*
X11879381D02*
Y4608337D01*
X11409481Y4430837D02*
Y4608337D01*
Y4430837D02*
X11539482D01*
X11409481Y4608337D02*
X11539482D01*
Y4430837D02*
Y4608337D01*
X15547000Y5434000D02*
X15757001D01*
X15547000Y5299000D02*
X15757001D01*
X15547000D02*
Y5434000D01*
X15757001Y5299000D02*
Y5434000D01*
X5134200Y6561900D02*
Y6696900D01*
X4924200Y6561900D02*
Y6696900D01*
Y6561900D02*
X5134200D01*
X4924200Y6696900D02*
X5134200D01*
X6339255Y3612500D02*
Y4642500D01*
X5979254Y3612500D02*
X6464255D01*
X5979254Y4642500D02*
X6464255D01*
Y3612500D02*
Y4642500D01*
X5979254Y3612500D02*
Y4642500D01*
X5191755Y4220937D02*
Y4398437D01*
Y4220937D02*
X5321756D01*
X5191755Y4398437D02*
X5321756D01*
Y4220937D02*
Y4398437D01*
X5727560Y4278437D02*
Y4455937D01*
X5597560D02*
X5727560D01*
X5597560Y4278437D02*
X5727560D01*
X5597560D02*
Y4455937D01*
D147*
X7582866Y4478715D02*
D03*
X7988670Y4383998D02*
D03*
X15975290Y4412949D02*
D03*
X16368394Y4260732D02*
D03*
X11944381Y4443479D02*
D03*
X11474481Y4595696D02*
D03*
X5256756Y4385796D02*
D03*
X5662560Y4291079D02*
D03*
%TF.MD5,cae78ecb6058726ef162d9ca96eaeccf*%
M02*
