%TF.GenerationSoftware,Altium Limited,Altium Designer,25.3.3 (18)*%
G04 Layer_Color=128*
%FSLAX45Y45*%
%MOMM*%
%TF.SameCoordinates,7852E7E1-4E30-4CDD-8EF1-640B4E54786C*%
%TF.FilePolarity,Positive*%
%TF.FileFunction,Drillmap*%
%TF.Part,Single*%
G01*
G75*
%TA.AperFunction,NonConductor*%
%ADD110C,0.12700*%
D110*
X8826500Y6578600D02*
X8901500D01*
X8864000Y6541100D02*
Y6616100D01*
X8116500Y6578600D02*
X8191500D01*
X8154000Y6541100D02*
Y6616100D01*
X8919210Y2255520D02*
X9236710D01*
X9077960Y2096770D02*
Y2414270D01*
X12251690Y2255520D02*
X12569190D01*
X12410440Y2096770D02*
Y2414270D01*
X9732010Y2397760D02*
X9836150D01*
X9784080Y2345690D02*
Y2449830D01*
X10006330Y2397760D02*
X10110470D01*
X10058400Y2345690D02*
Y2449830D01*
X10280650Y2397760D02*
X10384790D01*
X10332720Y2345690D02*
Y2449830D01*
X10554969Y2397760D02*
X10659109D01*
X10607039Y2345690D02*
Y2449830D01*
X10829289Y2397760D02*
X10933429D01*
X10881359Y2345690D02*
Y2449830D01*
X11103609Y2397760D02*
X11207749D01*
X11155679Y2345690D02*
Y2449830D01*
X11377929Y2397760D02*
X11482069D01*
X11429999Y2345690D02*
Y2449830D01*
X11652249Y2397760D02*
X11756389D01*
X11704319Y2345690D02*
Y2449830D01*
X9869171Y2113280D02*
X9973311D01*
X9921241Y2061210D02*
Y2165350D01*
X10143491Y2113280D02*
X10247631D01*
X10195561Y2061210D02*
Y2165350D01*
X10417811Y2113280D02*
X10521951D01*
X10469881Y2061210D02*
Y2165350D01*
X10692130Y2113280D02*
X10796270D01*
X10744200Y2061210D02*
Y2165350D01*
X10966450Y2113280D02*
X11070590D01*
X11018520Y2061210D02*
Y2165350D01*
X11240770Y2113280D02*
X11344910D01*
X11292840Y2061210D02*
Y2165350D01*
X11515090Y2113280D02*
X11619230D01*
X11567160Y2061210D02*
Y2165350D01*
X4029600Y8887800D02*
X4267600D01*
X4148600Y8768800D02*
Y9006800D01*
X4029600Y10201800D02*
X4267600D01*
X4148600Y10082800D02*
Y10320800D01*
X4369600Y9194800D02*
X4469600D01*
X4419600Y9144800D02*
Y9244800D01*
X4369600Y9444800D02*
X4469600D01*
X4419600Y9394800D02*
Y9494800D01*
X4369600Y9644800D02*
X4469600D01*
X4419600Y9594800D02*
Y9694800D01*
X4369600Y9894800D02*
X4469600D01*
X4419600Y9844800D02*
Y9944800D01*
X14017500Y10782600D02*
X14119501D01*
X14068500Y10731600D02*
Y10833600D01*
X14917500Y10782600D02*
X15019501D01*
X14968500Y10731600D02*
Y10833600D01*
X14317500Y10688600D02*
X14419501D01*
X14368500Y10637600D02*
Y10739600D01*
X14617500Y10688600D02*
X14719501D01*
X14668500Y10637600D02*
Y10739600D01*
X14317500Y10388600D02*
X14419501D01*
X14368500Y10337600D02*
Y10439600D01*
X14617500Y10388600D02*
X14719501D01*
X14668500Y10337600D02*
Y10439600D01*
X14763000Y10538600D02*
X15003999D01*
X14883501Y10418100D02*
Y10659100D01*
X14033000Y10538600D02*
X14274001D01*
X14153500Y10418100D02*
Y10659100D01*
X4628658Y3895042D02*
X4738658D01*
X4683658Y3840042D02*
Y3950042D01*
X4628658Y4149042D02*
X4738658D01*
X4683658Y4094042D02*
Y4204042D01*
X4628658Y4403042D02*
X4738658D01*
X4683658Y4348042D02*
Y4458042D01*
X8945700Y10063600D02*
X9044700D01*
X8995200Y10014100D02*
Y10113100D01*
X9395700Y10063600D02*
X9494700D01*
X9445200Y10014100D02*
Y10113100D01*
X9395700Y10713600D02*
X9494700D01*
X9445200Y10664100D02*
Y10763100D01*
X8945700Y10713600D02*
X9044700D01*
X8995200Y10664100D02*
Y10763100D01*
X8505100Y9960400D02*
X8604100D01*
X8554600Y9910900D02*
Y10009900D01*
X8505100Y10410400D02*
X8604100D01*
X8554600Y10360900D02*
Y10459900D01*
X7855100Y10410400D02*
X7954100D01*
X7904600Y10360900D02*
Y10459900D01*
X7855100Y9960400D02*
X7954100D01*
X7904600Y9910900D02*
Y10009900D01*
X12941901Y4380900D02*
X13016901D01*
X12979401Y4343400D02*
Y4418400D01*
X12941901Y3670900D02*
X13016901D01*
X12979401Y3633400D02*
Y3708400D01*
X8801700Y7480300D02*
X8876700D01*
X8839200Y7442800D02*
Y7517800D01*
X8801700Y6770300D02*
X8876700D01*
X8839200Y6732800D02*
Y6807800D01*
X8763600Y5106000D02*
X8838600D01*
X8801100Y5068500D02*
Y5143500D01*
X8763600Y5816000D02*
X8838600D01*
X8801100Y5778500D02*
Y5853500D01*
X8522300Y6260500D02*
X8597300D01*
X8559800Y6223000D02*
Y6298000D01*
X8522300Y5550500D02*
X8597300D01*
X8559800Y5513000D02*
Y5588000D01*
X13589000Y3225800D02*
X13664000D01*
X13626500Y3188300D02*
Y3263300D01*
X12878999Y3225800D02*
X12953999D01*
X12916499Y3188300D02*
Y3263300D01*
X14846899Y5321300D02*
X14921899D01*
X14884399Y5283800D02*
Y5358800D01*
X14846899Y4611300D02*
X14921899D01*
X14884399Y4573800D02*
Y4648800D01*
X14846899Y3683600D02*
X14921899D01*
X14884399Y3646100D02*
Y3721100D01*
X14846899Y4393600D02*
X14921899D01*
X14884399Y4356100D02*
Y4431100D01*
X5000500Y10668300D02*
X5102500D01*
X5051500Y10617300D02*
Y10719300D01*
X5900500Y10668300D02*
X6002500D01*
X5951500Y10617300D02*
Y10719300D01*
X5300500Y10574300D02*
X5402500D01*
X5351500Y10523300D02*
Y10625300D01*
X5600500Y10574300D02*
X5702500D01*
X5651500Y10523300D02*
Y10625300D01*
X5300500Y10274300D02*
X5402500D01*
X5351500Y10223300D02*
Y10325300D01*
X5600500Y10274300D02*
X5702500D01*
X5651500Y10223300D02*
Y10325300D01*
X5746000Y10424300D02*
X5987000D01*
X5866500Y10303800D02*
Y10544800D01*
X5016000Y10424300D02*
X5257000D01*
X5136500Y10303800D02*
Y10544800D01*
X16639455Y10536100D02*
X16880455D01*
X16759955Y10415600D02*
Y10656600D01*
X15609454Y10536100D02*
X15850455D01*
X15729955Y10415600D02*
Y10656600D01*
X15893954Y10686100D02*
X15995955D01*
X15944955Y10635100D02*
Y10737100D01*
X16193954Y10686100D02*
X16295955D01*
X16244955Y10635100D02*
Y10737100D01*
X16493954Y10686100D02*
X16595955D01*
X16544955Y10635100D02*
Y10737100D01*
X15893954Y10386100D02*
X15995955D01*
X15944955Y10335100D02*
Y10437100D01*
X16193954Y10386100D02*
X16295955D01*
X16244955Y10335100D02*
Y10437100D01*
X16493954Y10386100D02*
X16595955D01*
X16544955Y10335100D02*
Y10437100D01*
X16793954Y10780100D02*
X16895955D01*
X16844955Y10729100D02*
Y10831100D01*
X15593954Y10780100D02*
X15695955D01*
X15644955Y10729100D02*
Y10831100D01*
X15464400Y8940800D02*
X15574400D01*
X15519400Y8885800D02*
Y8995800D01*
X15464400Y9194800D02*
X15574400D01*
X15519400Y9139800D02*
Y9249800D01*
X15464400Y9448800D02*
X15574400D01*
X15519400Y9393800D02*
Y9503800D01*
X16622400Y8906700D02*
X16702400D01*
X16662399Y8866700D02*
Y8946700D01*
X16622400Y9406700D02*
X16702400D01*
X16662399Y9366700D02*
Y9446700D01*
X14603101Y9745600D02*
X14683099D01*
X14643100Y9705600D02*
Y9785600D01*
X14603101Y9245600D02*
X14683099D01*
X14643100Y9205600D02*
Y9285600D01*
X15278891Y3584348D02*
X15388890D01*
X15333891Y3529349D02*
Y3639348D01*
X15278891Y3838348D02*
X15388890D01*
X15333891Y3783349D02*
Y3893348D01*
X15278891Y4092348D02*
X15388890D01*
X15333891Y4037349D02*
Y4147348D01*
X16835509Y3584348D02*
X16945509D01*
X16890509Y3529349D02*
Y3639348D01*
X12355595Y3767094D02*
X12465594D01*
X12410594Y3712094D02*
Y3822094D01*
X8465670Y3900916D02*
X8575670D01*
X8520670Y3845916D02*
Y3955916D01*
X6142255Y3873500D02*
X6252254D01*
X6197255Y3818500D02*
Y3928500D01*
X6904600Y3898900D02*
X7014600D01*
X6959600Y3843900D02*
Y3953900D01*
X6904600Y4152900D02*
X7014600D01*
X6959600Y4097900D02*
Y4207900D01*
X6904600Y4406900D02*
X7014600D01*
X6959600Y4351900D02*
Y4461900D01*
X8465670Y4408916D02*
X8575670D01*
X8520670Y4353916D02*
Y4463916D01*
X8465670Y4154916D02*
X8575670D01*
X8520670Y4099916D02*
Y4209916D01*
X10803500Y4254500D02*
X10913500D01*
X10858500Y4199500D02*
Y4309500D01*
X10803500Y4000500D02*
X10913500D01*
X10858500Y3945500D02*
Y4055500D01*
X10803500Y3746500D02*
X10913500D01*
X10858500Y3691500D02*
Y3801500D01*
X12355595Y4021094D02*
X12465594D01*
X12410594Y3966094D02*
Y4076094D01*
X12355595Y4275094D02*
X12465594D01*
X12410594Y4220094D02*
Y4330094D01*
X16835509Y3838348D02*
X16945509D01*
X16890509Y3783349D02*
Y3893348D01*
X16835509Y4092348D02*
X16945509D01*
X16890509Y4037349D02*
Y4147348D01*
X6142255Y4127500D02*
X6252254D01*
X6197255Y4072500D02*
Y4182500D01*
X6142255Y4381500D02*
X6252254D01*
X6197255Y4326500D02*
Y4436500D01*
X4059200Y8318500D02*
X4094200D01*
X4076700Y8301000D02*
Y8336000D01*
X11844300Y10591800D02*
X11879300D01*
X11861800Y10574300D02*
Y10609300D01*
X11641100Y10604500D02*
X11676100D01*
X11658600Y10587000D02*
Y10622000D01*
X4586250Y8407400D02*
X4621250D01*
X4603750Y8389900D02*
Y8424900D01*
X12225300Y10439400D02*
X12260300D01*
X12242800Y10421900D02*
Y10456900D01*
X11209300Y7569200D02*
X11244300D01*
X11226800Y7551700D02*
Y7586700D01*
X10167900Y8013700D02*
X10202900D01*
X10185400Y7996200D02*
Y8031200D01*
X9938963Y8851840D02*
X9973963D01*
X9956463Y8834340D02*
Y8869340D01*
X10042909Y8688580D02*
X10077908D01*
X10060409Y8671080D02*
Y8706080D01*
X14181100Y5372100D02*
X14216100D01*
X14198599Y5354600D02*
Y5389600D01*
X14384300Y5308600D02*
X14419299D01*
X14401801Y5291100D02*
Y5326100D01*
X6535700Y5181600D02*
X6570700D01*
X6553200Y5164100D02*
Y5199100D01*
X10142500Y9613900D02*
X10177500D01*
X10160000Y9596400D02*
Y9631400D01*
X5595900Y7747000D02*
X5630900D01*
X5613400Y7729500D02*
Y7764500D01*
X10238134Y8363922D02*
X10273134D01*
X10255634Y8346422D02*
Y8381422D01*
X10015500Y8229600D02*
X10050500D01*
X10033000Y8212100D02*
Y8247100D01*
X11031500Y7772400D02*
X11066500D01*
X11049000Y7754900D02*
Y7789900D01*
X9621800Y8026400D02*
X9656800D01*
X9639300Y8008900D02*
Y8043900D01*
X9507500Y8026400D02*
X9542500D01*
X9525000Y8008900D02*
Y8043900D01*
X8580400Y8509000D02*
X8615400D01*
X8597900Y8491500D02*
Y8526500D01*
X8720100Y8496300D02*
X8755100D01*
X8737600Y8478800D02*
Y8513800D01*
X8897900Y8470900D02*
X8932900D01*
X8915400Y8453400D02*
Y8488400D01*
X13736600Y4495800D02*
X13771600D01*
X13754100Y4478300D02*
Y4513300D01*
X13774699Y4584700D02*
X13809700D01*
X13792200Y4567200D02*
Y4602200D01*
X14117599Y8559800D02*
X14152600D01*
X14135100Y8542300D02*
Y8577300D01*
X8123200Y10629900D02*
X8158200D01*
X8140700Y10612400D02*
Y10647400D01*
X11361700Y10071100D02*
X11396700D01*
X11379200Y10053600D02*
Y10088600D01*
X10917200Y8928100D02*
X10952200D01*
X10934700Y8910600D02*
Y8945600D01*
X9875800Y8140700D02*
X9910800D01*
X9893300Y8123200D02*
Y8158200D01*
X8961400Y8318500D02*
X8996400D01*
X8978900Y8301000D02*
Y8336000D01*
X9380500Y8051800D02*
X9415500D01*
X9398000Y8034300D02*
Y8069300D01*
X9190000Y7964400D02*
X9225000D01*
X9207500Y7946900D02*
Y7981900D01*
X8974100Y7962900D02*
X9009100D01*
X8991600Y7945400D02*
Y7980400D01*
X8542300Y8597900D02*
X8577300D01*
X8559800Y8580400D02*
Y8615400D01*
X8491500Y8902700D02*
X8526500D01*
X8509000Y8885200D02*
Y8920200D01*
X8859800Y9105900D02*
X8894800D01*
X8877300Y9088400D02*
Y9123400D01*
X10995207Y8412235D02*
X11030207D01*
X11012707Y8394735D02*
Y8429735D01*
X10905300Y7429500D02*
X10940300D01*
X10922800Y7412000D02*
Y7447000D01*
X8174000Y9791700D02*
X8209000D01*
X8191500Y9774200D02*
Y9809200D01*
X8250200Y9690100D02*
X8285200D01*
X8267700Y9672600D02*
Y9707600D01*
X8224800Y9080500D02*
X8259800D01*
X8242300Y9063000D02*
Y9098000D01*
X8275600Y9207500D02*
X8310600D01*
X8293100Y9190000D02*
Y9225000D01*
X8351800Y9321800D02*
X8386800D01*
X8369300Y9304300D02*
Y9339300D01*
X9088686Y9397486D02*
X9123685D01*
X9106185Y9379986D02*
Y9414985D01*
X8910600Y9525000D02*
X8945600D01*
X8928100Y9507500D02*
Y9542500D01*
X8834400Y9652000D02*
X8869400D01*
X8851900Y9634500D02*
Y9669500D01*
X8682000Y9690100D02*
X8717000D01*
X8699500Y9672600D02*
Y9707600D01*
X8643900Y9156700D02*
X8678900D01*
X8661400Y9139200D02*
Y9174200D01*
X10574300Y9029700D02*
X10609300D01*
X10591800Y9012200D02*
Y9047200D01*
X10244100Y9004300D02*
X10279100D01*
X10261600Y8986800D02*
Y9021800D01*
X10193300Y7721600D02*
X10228300D01*
X10210800Y7704100D02*
Y7739100D01*
X10028200Y8026400D02*
X10063200D01*
X10045700Y8008900D02*
Y8043900D01*
X10053600Y7734300D02*
X10088600D01*
X10071100Y7716800D02*
Y7751800D01*
X10294900Y7620000D02*
X10329900D01*
X10312400Y7602500D02*
Y7637500D01*
X10460000Y7620000D02*
X10495000D01*
X10477500Y7602500D02*
Y7637500D01*
X10299017Y7179617D02*
X10334017D01*
X10316517Y7162117D02*
Y7197117D01*
X8593100Y8204200D02*
X8628100D01*
X8610600Y8186700D02*
Y8221700D01*
X8402600Y8572500D02*
X8437600D01*
X8420100Y8555000D02*
Y8590000D01*
X8745500Y7888300D02*
X8780500D01*
X8763000Y7870800D02*
Y7905800D01*
X8593100Y8039100D02*
X8628100D01*
X8610600Y8021600D02*
Y8056600D01*
X8351800Y8293100D02*
X8386800D01*
X8369300Y8275600D02*
Y8310600D01*
X8351800Y7975600D02*
X8386800D01*
X8369300Y7958100D02*
Y7993100D01*
X8389900Y8991600D02*
X8424900D01*
X8407400Y8974100D02*
Y9009100D01*
X8174000Y8166100D02*
X8209000D01*
X8191500Y8148600D02*
Y8183600D01*
X8110500Y8369300D02*
X8145500D01*
X8128000Y8351800D02*
Y8386800D01*
X7970800Y8077200D02*
X8005800D01*
X7988300Y8059700D02*
Y8094700D01*
X7678700Y8051800D02*
X7713700D01*
X7696200Y8034300D02*
Y8069300D01*
X8021600Y8661400D02*
X8056600D01*
X8039100Y8643900D02*
Y8678900D01*
X9248200Y8866600D02*
X9283200D01*
X9265700Y8849100D02*
Y8884100D01*
X9358200Y8866600D02*
X9393200D01*
X9375700Y8849100D02*
Y8884100D01*
X9468200Y8866600D02*
X9503200D01*
X9485700Y8849100D02*
Y8884100D01*
X9578200Y8866600D02*
X9613200D01*
X9595700Y8849100D02*
Y8884100D01*
X9688200Y8866600D02*
X9723200D01*
X9705700Y8849100D02*
Y8884100D01*
X9248200Y8756600D02*
X9283200D01*
X9265700Y8739100D02*
Y8774100D01*
X9358200Y8756600D02*
X9393200D01*
X9375700Y8739100D02*
Y8774100D01*
X9468200Y8756600D02*
X9503200D01*
X9485700Y8739100D02*
Y8774100D01*
X9578200Y8756600D02*
X9613200D01*
X9595700Y8739100D02*
Y8774100D01*
X9688200Y8756600D02*
X9723200D01*
X9705700Y8739100D02*
Y8774100D01*
X9248200Y8646600D02*
X9283200D01*
X9265700Y8629100D02*
Y8664100D01*
X9358200Y8646600D02*
X9393200D01*
X9375700Y8629100D02*
Y8664100D01*
X9468200Y8646600D02*
X9503200D01*
X9485700Y8629100D02*
Y8664100D01*
X9578200Y8646600D02*
X9613200D01*
X9595700Y8629100D02*
Y8664100D01*
X9688200Y8646600D02*
X9723200D01*
X9705700Y8629100D02*
Y8664100D01*
X9248200Y8536600D02*
X9283200D01*
X9265700Y8519100D02*
Y8554100D01*
X9358200Y8536600D02*
X9393200D01*
X9375700Y8519100D02*
Y8554100D01*
X9468200Y8536600D02*
X9503200D01*
X9485700Y8519100D02*
Y8554100D01*
X9578200Y8536600D02*
X9613200D01*
X9595700Y8519100D02*
Y8554100D01*
X9688200Y8536600D02*
X9723200D01*
X9705700Y8519100D02*
Y8554100D01*
X9248200Y8426600D02*
X9283200D01*
X9265700Y8409100D02*
Y8444100D01*
X9358200Y8426600D02*
X9393200D01*
X9375700Y8409100D02*
Y8444100D01*
X9468200Y8426600D02*
X9503200D01*
X9485700Y8409100D02*
Y8444100D01*
X9578200Y8426600D02*
X9613200D01*
X9595700Y8409100D02*
Y8444100D01*
X9688200Y8426600D02*
X9723200D01*
X9705700Y8409100D02*
Y8444100D01*
X9075700Y9131300D02*
X9110700D01*
X9093200Y9113800D02*
Y9148800D01*
X14574800Y7124700D02*
X14609801D01*
X14592300Y7107200D02*
Y7142200D01*
X14498599Y7124700D02*
X14533600D01*
X14516100Y7107200D02*
Y7142200D01*
X14168401Y7124700D02*
X14203400D01*
X14185899Y7107200D02*
Y7142200D01*
X15870200Y6858000D02*
X15905200D01*
X15887700Y6840500D02*
Y6875500D01*
X15922545Y6805655D02*
X15957544D01*
X15940045Y6788156D02*
Y6823155D01*
X12212600Y6870700D02*
X12247600D01*
X12230100Y6853200D02*
Y6888200D01*
X14435100Y6400800D02*
X14470100D01*
X14452600Y6383300D02*
Y6418300D01*
X14536700Y5372100D02*
X14571700D01*
X14554201Y5354600D02*
Y5389600D01*
X14473199Y5422900D02*
X14508200D01*
X14490700Y5405400D02*
Y5440400D01*
X12822200Y5943600D02*
X12857201D01*
X12839700Y5926100D02*
Y5961100D01*
X12822200Y6019800D02*
X12857201D01*
X12839700Y6002300D02*
Y6037300D01*
X13251263Y4635791D02*
X13286264D01*
X13268764Y4618291D02*
Y4653291D01*
X13317500Y4597400D02*
X13352499D01*
X13335001Y4579900D02*
Y4614900D01*
X11730000Y6997700D02*
X11765000D01*
X11747500Y6980200D02*
Y7015200D01*
X5519700Y7861300D02*
X5554700D01*
X5537200Y7843800D02*
Y7878800D01*
X6040400Y7785100D02*
X6075400D01*
X6057900Y7767600D02*
Y7802600D01*
X5964200Y7785100D02*
X5999200D01*
X5981700Y7767600D02*
Y7802600D01*
X9596400Y9372600D02*
X9631400D01*
X9613900Y9355100D02*
Y9390100D01*
X9837700Y9289136D02*
X9872700D01*
X9855200Y9271636D02*
Y9306636D01*
X9736100Y9398000D02*
X9771100D01*
X9753600Y9380500D02*
Y9415500D01*
X10752100Y7340600D02*
X10787100D01*
X10769600Y7323100D02*
Y7358100D01*
X9164600Y7505700D02*
X9199600D01*
X9182100Y7488200D02*
Y7523200D01*
X11056900Y9626600D02*
X11091900D01*
X11074400Y9609100D02*
Y9644100D01*
X11921492Y10414000D02*
X11956491D01*
X11938992Y10396500D02*
Y10431500D01*
X9558300Y9474200D02*
X9593300D01*
X9575800Y9456700D02*
Y9491700D01*
X11641100Y10337800D02*
X11676100D01*
X11658600Y10320300D02*
Y10355300D01*
X14663699Y7416800D02*
X14698700D01*
X14681200Y7399300D02*
Y7434300D01*
X14384300Y7543800D02*
X14419299D01*
X14401801Y7526300D02*
Y7561300D01*
X14257300Y7543800D02*
X14292300D01*
X14274800Y7526300D02*
Y7561300D01*
X14498599Y6974316D02*
X14533600D01*
X14516100Y6956816D02*
Y6991816D01*
X11476000Y7061200D02*
X11511000D01*
X11493500Y7043700D02*
Y7078700D01*
X11564900Y6985000D02*
X11599900D01*
X11582400Y6967500D02*
Y7002500D01*
X10333000Y6731000D02*
X10368000D01*
X10350500Y6713500D02*
Y6748500D01*
X13990601Y5524500D02*
X14025600D01*
X14008099Y5507000D02*
Y5542000D01*
X12619000Y6184900D02*
X12654000D01*
X12636500Y6167400D02*
Y6202400D01*
X13812801Y5588000D02*
X13847800D01*
X13830299Y5570500D02*
Y5605500D01*
X14041400Y4864100D02*
X14076401D01*
X14058900Y4846600D02*
Y4881600D01*
X14117599Y4940300D02*
X14152600D01*
X14135100Y4922800D02*
Y4957800D01*
X10587000Y7391400D02*
X10622000D01*
X10604500Y7373900D02*
Y7408900D01*
X11018800Y7277100D02*
X11053800D01*
X11036300Y7259600D02*
Y7294600D01*
X12377700Y6794500D02*
X12412700D01*
X12395200Y6777000D02*
Y6812000D01*
X13787399Y9182100D02*
X13822400D01*
X13804900Y9164600D02*
Y9199600D01*
X13787399Y9258300D02*
X13822400D01*
X13804900Y9240800D02*
Y9275800D01*
X14012717Y7010400D02*
X14047717D01*
X14030217Y6992900D02*
Y7027900D01*
X14066800Y7239000D02*
X14101801D01*
X14084300Y7221500D02*
Y7256500D01*
X14130299Y7340600D02*
X14165300D01*
X14147800Y7323100D02*
Y7358100D01*
X14054100Y7454900D02*
X14089101D01*
X14071600Y7437400D02*
Y7472400D01*
X12453900Y6616700D02*
X12488900D01*
X12471400Y6599200D02*
Y6634200D01*
X12352300Y6616700D02*
X12387300D01*
X12369800Y6599200D02*
Y6634200D01*
X11412500Y7810500D02*
X11447500D01*
X11430000Y7793000D02*
Y7828000D01*
X11247400Y7886700D02*
X11282400D01*
X11264900Y7869200D02*
Y7904200D01*
X12911099Y5562600D02*
X12946100D01*
X12928600Y5545100D02*
Y5580100D01*
X7462800Y8356600D02*
X7497800D01*
X7480300Y8339100D02*
Y8374100D01*
X7018300Y8280400D02*
X7053300D01*
X7035800Y8262900D02*
Y8297900D01*
X6878600Y8356600D02*
X6913600D01*
X6896100Y8339100D02*
Y8374100D01*
X7361100Y7204172D02*
X7396099D01*
X7378599Y7186672D02*
Y7221671D01*
X7272300Y7200900D02*
X7307300D01*
X7289800Y7183400D02*
Y7218400D01*
X7183400Y7200900D02*
X7218400D01*
X7200900Y7183400D02*
Y7218400D01*
X13889000Y9112250D02*
X13924001D01*
X13906500Y9094750D02*
Y9129750D01*
X13889000Y9194800D02*
X13924001D01*
X13906500Y9177300D02*
Y9212300D01*
X14168401Y6819900D02*
X14203400D01*
X14185899Y6802400D02*
Y6837400D01*
X14879601Y7340600D02*
X14914600D01*
X14897099Y7323100D02*
Y7358100D01*
X14803400Y7340600D02*
X14838400D01*
X14820900Y7323100D02*
Y7358100D01*
X14590543Y7416800D02*
X14625543D01*
X14608043Y7399300D02*
Y7434300D01*
X14612900Y7251700D02*
X14647900D01*
X14630400Y7234200D02*
Y7269200D01*
X14529887Y7251700D02*
X14564888D01*
X14547388Y7234200D02*
Y7269200D01*
X9151900Y5130800D02*
X9186900D01*
X9169400Y5113300D02*
Y5148300D01*
X13279401Y5181600D02*
X13314400D01*
X13296899Y5164100D02*
Y5199100D01*
X15205775Y7046432D02*
X15240775D01*
X15223276Y7028932D02*
Y7063932D01*
X15260600Y7099300D02*
X15295599D01*
X15278101Y7081800D02*
Y7116800D01*
X15590800Y6623050D02*
X15625800D01*
X15608299Y6605550D02*
Y6640550D01*
X15590800Y6553200D02*
X15625800D01*
X15608299Y6535700D02*
Y6570700D01*
X15457234Y7041934D02*
X15492233D01*
X15474734Y7024434D02*
Y7059433D01*
X15501900Y7086600D02*
X15536900D01*
X15519400Y7069100D02*
Y7104100D01*
X14974625Y7041924D02*
X15009624D01*
X14992123Y7024424D02*
Y7059424D01*
X15032001Y7099300D02*
X15067000D01*
X15049500Y7081800D02*
Y7116800D01*
X14219200Y6680200D02*
X14254201D01*
X14236700Y6662700D02*
Y6697700D01*
X14168401Y6629400D02*
X14203400D01*
X14185899Y6611900D02*
Y6646900D01*
X14117599Y6769100D02*
X14152600D01*
X14135100Y6751600D02*
Y6786600D01*
X14612900Y5537200D02*
X14647900D01*
X14630400Y5519700D02*
Y5554700D01*
X10333000Y5588000D02*
X10368000D01*
X10350500Y5570500D02*
Y5605500D01*
X6294400Y7874000D02*
X6329400D01*
X6311900Y7856500D02*
Y7891500D01*
X6370600Y7874000D02*
X6405600D01*
X6388100Y7856500D02*
Y7891500D01*
X7372400Y7786600D02*
X7407400D01*
X7389900Y7769100D02*
Y7804100D01*
X7323100Y7835900D02*
X7358100D01*
X7340600Y7818400D02*
Y7853400D01*
X5783430Y8039100D02*
X5818429D01*
X5800929Y8021600D02*
Y8056600D01*
X5951500Y8128000D02*
X5986500D01*
X5969000Y8110500D02*
Y8145500D01*
X5882059Y8039100D02*
X5917059D01*
X5899559Y8021600D02*
Y8056600D01*
X6027700Y8128000D02*
X6062700D01*
X6045200Y8110500D02*
Y8145500D01*
X6053100Y7962900D02*
X6088100D01*
X6070600Y7945400D02*
Y7980400D01*
X5964200Y7962900D02*
X5999200D01*
X5981700Y7945400D02*
Y7980400D01*
X5786400Y7874000D02*
X5821400D01*
X5803900Y7856500D02*
Y7891500D01*
X5888000Y7874000D02*
X5923000D01*
X5905500Y7856500D02*
Y7891500D01*
X5278400Y8140700D02*
X5313400D01*
X5295900Y8123200D02*
Y8158200D01*
X5367300Y8140700D02*
X5402300D01*
X5384800Y8123200D02*
Y8158200D01*
X15781300Y7493000D02*
X15816299D01*
X15798801Y7475500D02*
Y7510500D01*
X15885587Y7493000D02*
X15920586D01*
X15903085Y7475500D02*
Y7510500D01*
X6904000Y8547100D02*
X6939000D01*
X6921500Y8529600D02*
Y8564600D01*
X6980200Y8547100D02*
X7015200D01*
X6997700Y8529600D02*
Y8564600D01*
X12326900Y6070600D02*
X12361900D01*
X12344400Y6053100D02*
Y6088100D01*
X12276100Y6019800D02*
X12311100D01*
X12293600Y6002300D02*
Y6037300D01*
X5214900Y8039100D02*
X5249900D01*
X5232400Y8021600D02*
Y8056600D01*
X5278400Y8039100D02*
X5313400D01*
X5295900Y8021600D02*
Y8056600D01*
X5189500Y8216900D02*
X5224500D01*
X5207000Y8199400D02*
Y8234400D01*
X5145050Y8261350D02*
X5180050D01*
X5162550Y8243850D02*
Y8278850D01*
X4668800Y8407400D02*
X4703800D01*
X4686300Y8389900D02*
Y8424900D01*
X4211600Y8483600D02*
X4246600D01*
X4229100Y8466100D02*
Y8501100D01*
X4209115Y8560916D02*
X4244114D01*
X4226615Y8543416D02*
Y8578415D01*
X4021100Y8255000D02*
X4056100D01*
X4038600Y8237500D02*
Y8272500D01*
X13247650Y4508500D02*
X13282651D01*
X13265150Y4491000D02*
Y4526000D01*
X13177800Y4508500D02*
X13212801D01*
X13195300Y4491000D02*
Y4526000D01*
X13876300Y4572000D02*
X13911301D01*
X13893800Y4554500D02*
Y4589500D01*
X13876300Y4648200D02*
X13911301D01*
X13893800Y4630700D02*
Y4665700D01*
X13495300Y4572000D02*
X13530299D01*
X13512801Y4554500D02*
Y4589500D01*
X13444501Y4622800D02*
X13479500D01*
X13462000Y4605300D02*
Y4640300D01*
X13292101Y5422900D02*
X13327100D01*
X13309599Y5405400D02*
Y5440400D01*
X14536700Y5537200D02*
X14571700D01*
X14554201Y5519700D02*
Y5554700D01*
X14320799Y5410200D02*
X14355800D01*
X14338300Y5392700D02*
Y5427700D01*
X14219200Y5503088D02*
X14254201D01*
X14236700Y5485588D02*
Y5520588D01*
X17202950Y5474450D02*
X17237950D01*
X17220450Y5456950D02*
Y5491950D01*
X17260100Y5417300D02*
X17295100D01*
X17277600Y5399800D02*
Y5434800D01*
X16790199Y5582402D02*
X16825198D01*
X16807700Y5564902D02*
Y5599901D01*
X16841000Y5531600D02*
X16875999D01*
X16858501Y5514100D02*
Y5549100D01*
X16485400Y5353800D02*
X16520399D01*
X16502901Y5336300D02*
Y5371300D01*
X16485400Y5423650D02*
X16520399D01*
X16502901Y5406150D02*
Y5441150D01*
X12225300Y5473700D02*
X12260300D01*
X12242800Y5456200D02*
Y5491200D01*
X6345200Y6807200D02*
X6380200D01*
X6362700Y6789700D02*
Y6824700D01*
X6345200Y6718300D02*
X6380200D01*
X6362700Y6700800D02*
Y6735800D01*
X9647200Y4140200D02*
X9682200D01*
X9664700Y4122700D02*
Y4157700D01*
X9647200Y4051300D02*
X9682200D01*
X9664700Y4033800D02*
Y4068800D01*
X8974100Y3975100D02*
X9009100D01*
X8991600Y3957600D02*
Y3992600D01*
X8974100Y3886200D02*
X9009100D01*
X8991600Y3868700D02*
Y3903700D01*
X9659900Y3759200D02*
X9694900D01*
X9677400Y3741700D02*
Y3776700D01*
X9736100Y3759200D02*
X9771100D01*
X9753600Y3741700D02*
Y3776700D01*
X9640850Y5651500D02*
X9675850D01*
X9658350Y5634000D02*
Y5669000D01*
X10333000Y5295900D02*
X10368000D01*
X10350500Y5278400D02*
Y5313400D01*
X10333000Y3580099D02*
X10368000D01*
X10350500Y3562599D02*
Y3597599D01*
X10333000Y3670300D02*
X10368000D01*
X10350500Y3652800D02*
Y3687800D01*
X9672600Y6134100D02*
X9707600D01*
X9690100Y6116600D02*
Y6151600D01*
X9774200Y6134100D02*
X9809200D01*
X9791700Y6116600D02*
Y6151600D01*
X8948700Y6184900D02*
X8983700D01*
X8966200Y6167400D02*
Y6202400D01*
X8948700Y6273800D02*
X8983700D01*
X8966200Y6256300D02*
Y6291300D01*
X12847600Y5626100D02*
X12882600D01*
X12865100Y5608600D02*
Y5643600D01*
X12542800Y5638800D02*
X12577800D01*
X12560300Y5621300D02*
Y5656300D01*
X12492448Y5696552D02*
X12527448D01*
X12509948Y5679052D02*
Y5714052D01*
X5044100Y7259533D02*
X5079099D01*
X5061599Y7242033D02*
Y7277033D01*
X4955300Y7256262D02*
X4990300D01*
X4972800Y7238762D02*
Y7273761D01*
X4866400Y7256262D02*
X4901400D01*
X4883900Y7238762D02*
Y7273761D01*
X7513600Y4762500D02*
X7548600D01*
X7531100Y4745000D02*
Y4780000D01*
X7399300Y4762500D02*
X7434300D01*
X7416800Y4745000D02*
Y4780000D01*
X6535056Y5313576D02*
X6570055D01*
X6552556Y5296076D02*
Y5331076D01*
X4173500Y5308600D02*
X4208500D01*
X4191000Y5291100D02*
Y5326100D01*
X5049800Y4749800D02*
X5084800D01*
X5067300Y4732300D02*
Y4767300D01*
X5138700Y4749800D02*
X5173700D01*
X5156200Y4732300D02*
Y4767300D01*
X4173500Y5219700D02*
X4208500D01*
X4191000Y5202200D02*
Y5237200D01*
%TF.MD5,466c70b5faf9dac13eed24b573c8e71b*%
M02*
