%TF.GenerationSoftware,Altium Limited,Altium Designer,25.3.3 (18)*%
G04 Layer_Physical_Order=4*
G04 Layer_Color=16711680*
%FSLAX45Y45*%
%MOMM*%
%TF.SameCoordinates,7852E7E1-4E30-4CDD-8EF1-640B4E54786C*%
%TF.FilePolarity,Positive*%
%TF.FileFunction,Copper,L4,Bot,Signal*%
%TF.Part,Single*%
G01*
G75*
%TA.AperFunction,Conductor*%
%ADD58C,0.25400*%
%ADD59C,0.50000*%
%TA.AperFunction,ComponentPad*%
%ADD61R,1.25000X1.25000*%
%ADD62C,1.25000*%
%ADD63C,4.82500*%
%ADD64C,1.59140*%
%ADD65R,1.59140X1.59140*%
%ADD66C,2.38000*%
%ADD67C,1.50800*%
%ADD68R,1.50800X1.50800*%
%ADD69C,1.02000*%
%ADD70C,1.57000*%
%ADD71R,1.57000X1.57000*%
%ADD72C,2.41000*%
%ADD73R,1.70000X1.70000*%
%ADD74C,1.70000*%
%ADD75R,1.50000X1.50000*%
%ADD76C,1.50000*%
%ADD77R,1.50000X1.50000*%
%ADD78R,1.25000X1.25000*%
%ADD79C,3.37300*%
%ADD80R,1.70000X1.70000*%
%ADD81R,1.30000X1.30000*%
%ADD82C,1.30000*%
%TA.AperFunction,ViaPad*%
%ADD83C,0.70000*%
D58*
X11708769Y10375900D02*
X11849100D01*
X11912600Y10312400D02*
X13485100D01*
X11849100Y10375900D02*
X11912600Y10312400D01*
X11670669Y10337800D02*
X11708769Y10375900D01*
X11658600Y10337800D02*
X11670669D01*
X8718545Y8096255D02*
X9277345D01*
X9321800Y8051800D02*
X9398000D01*
X9277345Y8096255D02*
X9321800Y8051800D01*
X11772900Y10502900D02*
X11861800Y10591800D01*
X8907927Y10502900D02*
X11772900D01*
X11656821Y10604500D02*
X11658600D01*
X11606021Y10553700D02*
X11656821Y10604500D01*
X8367913Y9962887D02*
X8907927Y10502900D01*
X8327513Y9979621D02*
X8901593Y10553700D01*
X11606021D01*
X4419600Y9444800D02*
X9050121D01*
X4419600Y9894800D02*
X6707100D01*
X4419600Y9644800D02*
X7576400D01*
X8916321Y9525000D02*
X8928100D01*
X8890921Y9550400D02*
X8916321Y9525000D01*
X7670800Y9550400D02*
X8890921D01*
X7576400Y9644800D02*
X7670800Y9550400D01*
X7442200Y10629900D02*
X8140700D01*
X6707100Y9894800D02*
X7442200Y10629900D01*
X9097435Y9397486D02*
X9106185D01*
X9050121Y9444800D02*
X9097435Y9397486D01*
X4603750Y8407400D02*
X4686300D01*
X13512801Y10439400D02*
X14109700Y9842500D01*
X12242800Y10439400D02*
X13512801D01*
X13485100Y10312400D02*
X13716000Y10081500D01*
X13487399Y10375900D02*
X13804900Y10058400D01*
X11938992Y10414000D02*
X11977092Y10375900D01*
X13487399D01*
X8267700Y9690100D02*
Y9810766D01*
X8327513Y9927713D02*
Y9979621D01*
X8191500Y9791700D02*
X8327513Y9927713D01*
X8367913Y9910979D02*
Y9962887D01*
X8267700Y9810766D02*
X8367913Y9910979D01*
X9170031Y7505700D02*
X9182100D01*
X9144631Y7480300D02*
X9170031Y7505700D01*
X8839200Y7480300D02*
X9144631D01*
X8724900Y7569200D02*
X8763000Y7607300D01*
X10096500D01*
X8724900Y7416800D02*
Y7569200D01*
Y7416800D02*
X9093201Y7048500D01*
X8509000Y7569200D02*
X9080500Y6997700D01*
X11353800D01*
X8509000Y7569200D02*
Y7655921D01*
X9093201Y7048500D02*
X11404600D01*
X8509000Y7655921D02*
X8523879Y7670800D01*
X10045700D01*
X10063860Y7688960D02*
Y7727060D01*
X10071100Y7734300D01*
X10045700Y7670800D02*
X10063860Y7688960D01*
X8458200Y7531100D02*
Y8204200D01*
Y7531100D02*
X9032000Y6957300D01*
X8369300Y7531100D02*
X9004300Y6896100D01*
X8369300Y7531100D02*
Y7975600D01*
X9004300Y6896100D02*
X11309366D01*
X9032000Y6957300D02*
X11305300D01*
X8369300Y8293100D02*
X8458200Y8204200D01*
X11305300Y6957300D02*
X11823700Y6438900D01*
X10209021Y7721600D02*
X10210800D01*
X8293100Y7531100D02*
X8978900Y6845300D01*
X8293100Y7531100D02*
Y8686800D01*
X8978900Y6845300D02*
X11290300D01*
X8801100Y5106000D02*
X8817366Y5122266D01*
X9160866D01*
X9169400Y5130800D01*
X9992028Y9400179D02*
X10803100Y8589107D01*
X10652133Y8080367D02*
X10803100Y8231334D01*
X10883900Y8178800D02*
Y8622575D01*
X10642600Y8013700D02*
X10843500Y8214600D01*
Y8605841D01*
X10803100Y8231334D02*
Y8589107D01*
X10833100Y8128000D02*
X10883900Y8178800D01*
X9979175Y9527300D02*
X10883900Y8622575D01*
X9962441Y9486900D02*
X10843500Y8605841D01*
X10972800Y7759700D02*
X11154766Y7577734D01*
X11218266D01*
X11226800Y7569200D01*
X10185400Y8013700D02*
X10642600D01*
X9931400Y8557717D02*
X9956463Y8582780D01*
Y8851840D01*
X9931400Y8331200D02*
Y8557717D01*
X10067619Y8688580D02*
X10115703Y8736664D01*
X10060409Y8688580D02*
X10067619D01*
X10133664Y8736664D02*
X10160000Y8763000D01*
X10115703Y8736664D02*
X10133664D01*
X10160000Y8763000D02*
Y9055100D01*
X9220200Y9182100D02*
X10033000D01*
X10160000Y9055100D01*
X14198599Y5452919D02*
X14236700Y5491019D01*
X14198599Y5372100D02*
X14207133Y5363566D01*
X14198599Y5372100D02*
Y5452919D01*
X14236700Y5491019D02*
Y5503088D01*
X14207133Y5300066D02*
X14236700Y5270500D01*
X14207133Y5300066D02*
Y5363566D01*
X14393266Y5317134D02*
X14401801Y5308600D01*
X14393266Y5317134D02*
Y5355234D01*
X14338300Y5410200D02*
X14393266Y5355234D01*
X10160000Y9512300D02*
Y9613900D01*
X5613400Y7754260D02*
X5670440Y7811300D01*
X5777929D01*
X5613400Y7747000D02*
Y7754260D01*
X10033000Y8229600D02*
X10121312D01*
X10255634Y8363922D01*
X9931400Y8331200D02*
X9982200Y8280400D01*
X9918700D02*
X9982200D01*
X10033000Y8229600D01*
X9819400Y8181100D02*
X9918700Y8280400D01*
X9116300Y8181100D02*
X9819400D01*
X11049000Y7772400D02*
X11379831D01*
X11417931Y7810500D02*
X11430000D01*
X11379831Y7772400D02*
X11417931Y7810500D01*
X5800929Y8039100D02*
X5899559D01*
X5981700Y7962900D02*
X6070600D01*
X14630400Y5537200D02*
X14681200Y5588000D01*
X14389101Y6604000D02*
X14681200Y6311900D01*
Y5588000D02*
Y6311900D01*
X8851900Y9652000D02*
X8863679D01*
X8889079Y9677400D01*
X9575800D01*
X10111500Y10213100D01*
X9639300Y8026400D02*
X9906000D01*
X9470121Y7977900D02*
X9518621Y8026400D01*
X9309100Y7977900D02*
X9470121D01*
X9518621Y8026400D02*
X9525000D01*
X8606434Y8517534D02*
X8669934D01*
X8597900Y8509000D02*
X8606434Y8517534D01*
X8669934D02*
X8699500Y8547100D01*
Y8934434D01*
X8737600Y8496300D02*
X8801100Y8559800D01*
X8902700Y8718235D02*
Y8940800D01*
X8915400Y8470900D02*
Y8705535D01*
X8902700Y8718235D02*
X8915400Y8705535D01*
X8902700Y8940800D02*
X9093200Y9131300D01*
X10972800Y8372328D02*
X11012707Y8412235D01*
X10972800Y7759700D02*
Y8372328D01*
X11012707Y8412235D02*
Y8621493D01*
X13754100Y4507869D02*
X13783665Y4537435D01*
X13754100Y4495800D02*
Y4507869D01*
X13783665Y4537435D02*
Y4576166D01*
X13792200Y4584700D01*
Y4965700D01*
X13487399Y5270500D02*
X13792200Y4965700D01*
X15944955Y10386100D02*
Y10686100D01*
X11379200Y9728200D02*
Y10071100D01*
X10782300Y9131300D02*
X11379200Y9728200D01*
X10782300Y8851900D02*
Y9131300D01*
Y8851900D02*
X11012707Y8621493D01*
X10934700Y8928100D02*
X11112500D01*
X8978900Y8318500D02*
X9116300Y8181100D01*
X8428634Y8551495D02*
Y8563966D01*
X8839429Y8140700D02*
X9893300D01*
X8428634Y8551495D02*
X8839429Y8140700D01*
X8420100Y8572500D02*
X8428634Y8563966D01*
X8610600Y8204200D02*
X8718545Y8096255D01*
X8610600Y8039100D02*
X9247900D01*
X9309100Y7977900D01*
X8991600Y7962900D02*
X9093200D01*
X9217779Y7964400D02*
X9244679Y7937500D01*
X9207500Y7964400D02*
X9217779D01*
X9244679Y7937500D02*
X10623534D01*
X8801100Y8559800D02*
Y9029700D01*
X8877300Y9105900D01*
X8636000Y8674100D02*
Y8940800D01*
X8559800Y8597900D02*
X8636000Y8674100D01*
X8585200Y8877300D02*
Y8934466D01*
X8343900Y8636000D02*
X8585200Y8877300D01*
X8483600Y9093200D02*
X8636000Y8940800D01*
X8293100Y8686800D02*
X8509000Y8902700D01*
X8528066Y8991600D02*
X8585200Y8934466D01*
X10223500Y8724900D02*
X10414000Y8534400D01*
Y8206379D02*
Y8534400D01*
X10399121Y8191500D02*
X10414000Y8206379D01*
X10153666Y8191500D02*
X10399121D01*
X10064766Y8102600D02*
X10153666Y8191500D01*
X9982200Y8102600D02*
X10064766D01*
X10223500Y8966200D02*
X10261600Y9004300D01*
X10223500Y8724900D02*
Y8966200D01*
X9906000Y8026400D02*
X9982200Y8102600D01*
X10833100Y7823200D02*
Y8128000D01*
Y7823200D02*
X11036300Y7620000D01*
Y7277100D02*
Y7620000D01*
X10623534Y7937500D02*
X10922800Y7638234D01*
Y7429500D02*
Y7638234D01*
X10860100Y7339000D02*
Y7643800D01*
Y7339000D02*
X11010900Y7188200D01*
X10606800Y7897100D02*
X10860100Y7643800D01*
X10507500Y7856700D02*
X10769600Y7594600D01*
Y7342379D02*
Y7594600D01*
X8250834Y9071966D02*
X8312026D01*
X8316193Y9067800D01*
X8337235D01*
X8242300Y9080500D02*
X8250834Y9071966D01*
X8293100Y9207500D02*
X8426434D01*
X8699500Y8934434D01*
X8623300Y9067800D02*
X8712200D01*
X8369300Y9321800D02*
X8623300Y9067800D01*
X8337235D02*
X8362635Y9093200D01*
X8483600D01*
X8013700Y9245600D02*
X8166100Y9398000D01*
X9017000D01*
X9080500Y9334500D01*
X9436100D01*
X9575800Y9474200D01*
X9551797Y9743200D02*
X10070197Y10261600D01*
X8699500Y9690100D02*
X8752600Y9743200D01*
X9551797D01*
X8407400Y8991600D02*
X8528066D01*
X8661400Y9232900D02*
X8709900Y9281400D01*
X8661400Y9156700D02*
Y9232900D01*
X15944955Y10167755D02*
Y10386100D01*
X14337000Y8559800D02*
X15944955Y10167755D01*
X14135100Y8559800D02*
X14337000D01*
X8712200Y9067800D02*
X8877300Y9232900D01*
X9169400D01*
X8709900Y9281400D02*
X9440134D01*
X9169400Y9232900D02*
X9220200Y9182100D01*
X10160000Y9512300D02*
X10363200Y9309100D01*
X10464800D01*
X10591800Y9182100D01*
Y9029700D02*
Y9182100D01*
X10099667Y8080367D02*
X10652133D01*
X10045700Y8026400D02*
X10099667Y8080367D01*
X10096500Y7607300D02*
X10210800Y7721600D01*
X9159000Y7897100D02*
X10606800D01*
X10446300Y7816300D02*
X10604500Y7658100D01*
X9122279Y7856700D02*
X10507500D01*
X8719100Y7816300D02*
X10446300D01*
X9728200Y9486900D02*
X9962441D01*
X9944100Y9537700D02*
X9954500Y9527300D01*
X9979175D01*
X9755779Y9400179D02*
X9992028D01*
X11112500Y8928100D02*
X11137900Y8902700D01*
X9753600Y9398000D02*
X9755779Y9400179D01*
X9613900Y9372600D02*
X9728200Y9486900D01*
X9639300Y9537700D02*
X9944100D01*
X10096500Y9690100D01*
X9575800Y9474200D02*
X9639300Y9537700D01*
X9090680Y7888300D02*
X9122279Y7856700D01*
X8763000Y7888300D02*
X9090680D01*
X9093200Y7962900D02*
X9159000Y7897100D01*
X10907981Y7116917D02*
X10914964Y7123900D01*
X11532400D01*
X9367683Y7116917D02*
X10907981D01*
X9182100Y7302500D02*
X9367683Y7116917D01*
X11532400Y7123900D02*
X11861800Y6794500D01*
X8013700Y8890000D02*
Y9245600D01*
X7480300Y8356600D02*
X8013700Y8890000D01*
X8521700Y8013700D02*
X8719100Y7816300D01*
X8521700Y8013700D02*
Y8305800D01*
X8343900Y8483600D02*
X8521700Y8305800D01*
X8343900Y8483600D02*
Y8636000D01*
X8216900Y8991600D02*
X8407400D01*
X7519200Y8293900D02*
X8216900Y8991600D01*
X8138521Y7786600D02*
X8153400Y7801479D01*
Y8128000D02*
X8191500Y8166100D01*
X7389900Y7786600D02*
X8138521D01*
X8153400Y7801479D02*
Y8128000D01*
X7759700Y7988300D02*
X8075021D01*
X8089900Y8331200D02*
X8128000Y8369300D01*
X8089900Y8003179D02*
Y8331200D01*
X8075021Y7988300D02*
X8089900Y8003179D01*
X7935721Y8128000D02*
X7986521Y8077200D01*
X6743700Y8128000D02*
X7935721D01*
X7986521Y8077200D02*
X7988300D01*
X7696200Y8051800D02*
X7759700Y7988300D01*
X7823200Y8216900D02*
X8039100Y8432800D01*
Y8661400D01*
X7238570Y8293900D02*
X7519200D01*
X9440134Y9281400D02*
X9447870Y9289136D01*
X9855200D01*
X14592300Y7124700D02*
X14600835Y7116166D01*
X14130833Y7069633D02*
X14185899Y7124700D01*
X15887700Y6858000D02*
X15940045Y6805655D01*
X15671800Y6858000D02*
X15887700D01*
X15570200Y6756400D02*
X15671800Y6858000D01*
X14664334Y7116166D02*
X14744701Y7035800D01*
Y6819900D02*
Y7035800D01*
X14600835Y7116166D02*
X14664334D01*
X14808200Y6756400D02*
X15570200D01*
X14744701Y6819900D02*
X14808200Y6756400D01*
X14130833Y6929933D02*
Y7069633D01*
X14084300Y6883400D02*
X14130833Y6929933D01*
X12267279Y6883400D02*
X14084300D01*
X12238634Y6879234D02*
X12263113D01*
X12267279Y6883400D01*
X12230100Y6870700D02*
X12238634Y6879234D01*
X14452600Y6324600D02*
Y6400800D01*
X14389101Y6261100D02*
X14452600Y6324600D01*
X14389101Y5524500D02*
Y6261100D01*
X14490700Y5422900D02*
X14497050D01*
X14547850Y5372100D02*
X14554201D01*
X14497050Y5422900D02*
X14547850Y5372100D01*
X14389101Y5524500D02*
X14490700Y5422900D01*
X12839700Y5943600D02*
X12840590Y5942710D01*
Y5891910D02*
Y5942710D01*
Y5891910D02*
X13093700Y5638800D01*
Y4810855D02*
Y5638800D01*
Y4810855D02*
X13268764Y4635791D01*
X11747500Y6997700D02*
X11874500Y6870700D01*
X12230100D01*
X5804129Y7785100D02*
X5981700D01*
X5777929Y7811300D02*
X5804129Y7785100D01*
X10604500Y7391400D02*
Y7658100D01*
X11671300Y7188200D02*
X11925300Y6934200D01*
X13954018D02*
X14030217Y7010400D01*
X11925300Y6934200D02*
X13954018D01*
X11010900Y7188200D02*
X11671300D01*
X11861800Y6794500D02*
X12395200D01*
X14274800Y6730079D02*
Y7353300D01*
X9182100Y7302500D02*
Y7505700D01*
X7200900Y8216900D02*
X7823200D01*
X10934700Y9486900D02*
X11074400Y9626600D01*
X7137400Y8280400D02*
X7200900Y8216900D01*
X11290300Y6845300D02*
X11806414Y6329186D01*
X12657314D01*
X12712700Y6273800D01*
Y5918200D02*
Y6273800D01*
Y5918200D02*
X12991299Y5639600D01*
Y5182400D02*
Y5639600D01*
Y5182400D02*
X13030200Y5143500D01*
Y4673600D02*
Y5143500D01*
Y4673600D02*
X13195300Y4508500D01*
X7175870Y8356600D02*
X7238570Y8293900D01*
X6896100Y8356600D02*
X7175870D01*
X12928600Y6489700D02*
X13830299Y5588000D01*
X11976100Y6489700D02*
X12928600Y6489700D01*
X11861800Y6489700D02*
X11976100D01*
X11353800Y6997700D02*
X11861800Y6489700D01*
X13931900Y5600700D02*
X14008099Y5524500D01*
X13931900Y5600700D02*
Y6032500D01*
X13434300Y6530100D02*
X13931900Y6032500D01*
X11976100Y6530100D02*
X13434300Y6530100D01*
X11923000Y6530100D02*
X11976100D01*
X11404600Y7048500D02*
X11923000Y6530100D01*
X7035800Y8280400D02*
X7137400D01*
X14109700Y9410700D02*
Y9842500D01*
X14008099Y9309100D02*
X14109700Y9410700D01*
X14008099Y8115300D02*
Y9309100D01*
Y8115300D02*
X14537329Y7586071D01*
Y7565029D02*
Y7586071D01*
X14378700Y7406400D02*
X14537329Y7565029D01*
X10111500Y10213100D02*
X13370799Y10213100D01*
X10070197Y10261600D02*
X13423898D01*
X13370799Y10213100D02*
X13563600Y10020300D01*
X13423898Y10261600D02*
X13639799Y10045700D01*
X13804900Y9448800D02*
Y10058400D01*
X14681200Y7416800D02*
X15379700D01*
X14554201Y7493000D02*
X15798801D01*
X14427200Y7366000D02*
X14554201Y7493000D01*
X14427200Y6743700D02*
Y7366000D01*
X14274800Y7543800D02*
X14401801D01*
X14338300Y5524500D02*
Y7480300D01*
X14274800Y7543800D02*
X14338300Y7480300D01*
X14378700Y6735066D02*
Y7406400D01*
Y6735066D02*
X14389101Y6724666D01*
Y6604000D02*
Y6724666D01*
X14554201Y5537200D02*
X14630400D01*
X14516100Y6858000D02*
X14681200Y6692900D01*
X14427200Y6743700D02*
X14770100Y6400800D01*
X14681200Y6692900D02*
X15538451D01*
X14516100Y6858000D02*
Y6974316D01*
X14287500Y5219700D02*
X14592300D01*
X14770100Y5397500D01*
Y6400800D01*
X6489700Y7874000D02*
X6743700Y8128000D01*
X13639799Y7772400D02*
Y10045700D01*
X10731500Y9486900D02*
X10934700D01*
X11309366Y6896100D02*
X11817366Y6388100D01*
X11823700Y6438900D02*
X11976100D01*
X11817366Y6388100D02*
X11976100D01*
X10350500Y5715000D02*
Y6629400D01*
X12865100Y6388100D02*
X12973309Y6279891D01*
X11976100Y6388100D02*
X12865100Y6388100D01*
X11976100Y6438900D02*
X12903200Y6438900D01*
X13081000Y6261100D01*
X12973309Y5936991D02*
Y6279891D01*
X13081000Y5943600D02*
Y6261100D01*
X12973309Y5936991D02*
X13157201Y5753100D01*
Y5334000D02*
Y5753100D01*
X13855701Y5499100D02*
X13957300Y5397500D01*
X14097000D01*
X14135100Y5435600D02*
Y5575300D01*
X13385800Y5499100D02*
X13855701D01*
X14097000Y5397500D02*
X14135100Y5435600D01*
Y5575300D02*
X14160500Y5600700D01*
X14262100D01*
X12470769Y5943600D02*
X12636500Y6109331D01*
Y6184900D01*
X11785600Y5943600D02*
X12470769D01*
X13309599Y5422900D02*
X13385800Y5499100D01*
X13462000Y4622800D02*
X13512801Y4572000D01*
X14338300Y5410200D02*
Y5524500D01*
X14262100Y5600700D02*
X14338300Y5524500D01*
X14141045Y4940300D02*
X14189761Y4989017D01*
X14196516D02*
X14236700Y5029200D01*
X14135100Y4940300D02*
X14141045D01*
X14189761Y4989017D02*
X14196516D01*
X14236700Y5029200D02*
Y5270500D01*
X7340600Y7835900D02*
X7389900Y7786600D01*
X13804900Y9182100D02*
Y9258300D01*
Y8534715D02*
Y9182100D01*
X10096500Y9690100D02*
X10528300D01*
X10731500Y9486900D01*
X13716000Y7810500D02*
Y10081500D01*
X13804900Y9448800D02*
X13906500Y9347200D01*
X13766800Y8496615D02*
X13804900Y8534715D01*
X13766800Y7861300D02*
Y8496615D01*
X13563600Y7759700D02*
Y10020300D01*
Y7759700D02*
X14084300Y7239000D01*
X13639799Y7772400D02*
X14071600Y7340600D01*
X13716000Y7810500D02*
X14071600Y7454900D01*
Y7340600D02*
X14147800D01*
X11239500Y5397500D02*
X11785600Y5943600D01*
X9436100Y5397500D02*
X11239500D01*
X9169400Y5130800D02*
X9436100Y5397500D01*
X11137900Y8013700D02*
Y8902700D01*
Y8013700D02*
X11264900Y7886700D01*
X13906500Y9194800D02*
Y9347200D01*
Y9112250D02*
Y9194800D01*
X14236700Y6691979D02*
X14274800Y6730079D01*
X13766800Y7861300D02*
X14274800Y7353300D01*
X14236700Y6680200D02*
Y6691979D01*
X14897099Y7340600D02*
X15163800D01*
X14630400Y7251700D02*
X14897099D01*
X15163800Y7340600D02*
X15278101Y7226300D01*
X14897099Y7251700D02*
X15049500Y7099300D01*
X15379700Y7416800D02*
X15519400Y7277100D01*
X13081000Y5943600D02*
X13220700Y5803900D01*
X13157201Y5334000D02*
X13220700Y5270500D01*
X13487399D01*
X13220700Y5384800D02*
Y5803900D01*
X13296899Y4787900D02*
X13462000Y4622800D01*
X13220700Y5384800D02*
X13271500Y5334000D01*
X13563600D01*
X13893800Y5003800D01*
Y4648200D02*
Y5003800D01*
Y4572000D02*
Y4648200D01*
X13195300Y4508500D02*
X13265150D01*
X13296899Y4787900D02*
Y5181600D01*
X15538451Y6692900D02*
X15608299Y6623050D01*
Y6553200D02*
Y6623050D01*
X15278101Y7099300D02*
Y7226300D01*
X14992123Y7041924D02*
X15049500Y7099300D01*
X15277121D02*
X15278101D01*
X15224252Y7046432D02*
X15277121Y7099300D01*
X15223276Y7046432D02*
X15224252D01*
X15519400Y7086600D02*
Y7277100D01*
X15474734Y7041934D02*
X15519400Y7086600D01*
X15798801Y7493000D02*
X15903085D01*
X10287000Y5651500D02*
X10350500Y5588000D01*
X6388100Y7874000D02*
X6489700D01*
X6311900D02*
X6388100D01*
X5626100Y8128000D02*
X5969000D01*
X5632135Y7962900D02*
X5981700D01*
X5346700Y8407400D02*
X5626100Y8128000D01*
X5457900Y8137134D02*
X5632135Y7962900D01*
X5638800Y8039100D02*
X5800929D01*
X5461000Y8216900D02*
X5638800Y8039100D01*
X5448300D02*
X5613400Y7874000D01*
X5803900D01*
X5295900Y8039100D02*
X5448300D01*
X5232400D02*
X5295900D01*
X5388366Y8137134D02*
X5457900D01*
X5384800Y8140700D02*
X5388366Y8137134D01*
X5295900Y8140700D02*
X5384800D01*
X5207000Y8216900D02*
X5461000D01*
X5162550Y8261350D02*
X5207000Y8216900D01*
X4686300Y8407400D02*
X5346700D01*
X14236700Y5270500D02*
X14287500Y5219700D01*
X10287000Y5651500D02*
X10350500Y5715000D01*
X10299700Y4356100D02*
X10350500Y4406900D01*
X9740900Y4356100D02*
X10299700D01*
X9664700Y4279900D02*
X9740900Y4356100D01*
X9664700Y4140200D02*
Y4279900D01*
X10350500Y4406900D02*
Y5295900D01*
X9664700Y4051300D02*
Y4140200D01*
X8991600Y3886200D02*
Y3975100D01*
Y3835400D02*
Y3886200D01*
Y3835400D02*
X9067800Y3759200D01*
X9677400D01*
X9753600D01*
X9658350Y5651500D02*
X10287000D01*
X10350500Y3670300D02*
Y4406900D01*
Y3580099D02*
Y3670300D01*
X9690100Y6134100D02*
X9791700D01*
X9018779D02*
X9690100D01*
X8966200Y6184900D02*
X8967979D01*
X9018779Y6134100D01*
X8966200Y6184900D02*
Y6273800D01*
D59*
X4089400Y5943600D02*
X4191000Y6045200D01*
X4089400Y4610100D02*
X4550458Y4149042D01*
X4089400Y4610100D02*
Y5943600D01*
X4191000Y5308600D02*
X4254500Y5372100D01*
Y5892800D02*
X4330700Y5969000D01*
X4254500Y5372100D02*
Y5892800D01*
X4191000Y5219700D02*
Y5308600D01*
X16426701Y5582402D02*
X16807700D01*
X16185400Y5341100D02*
X16426701Y5582402D01*
X4038600Y7378700D02*
Y8260412D01*
X4072873Y8314673D02*
X4076700Y8318500D01*
X4072873Y8294685D02*
Y8314673D01*
X4038600Y8260412D02*
X4072873Y8294685D01*
X4318000Y8572500D02*
X5295900D01*
X4550458Y4149042D02*
X4683658D01*
X4038600Y7378700D02*
X4191000Y7226300D01*
Y6045200D02*
Y7226300D01*
X6552556Y5313576D02*
X6552878Y5313254D01*
X6553200Y4889500D02*
Y5181600D01*
X6552878Y5181922D02*
X6553200Y5181600D01*
X6552878Y5181922D02*
Y5313254D01*
X6552556Y5313576D02*
Y7111356D01*
X15824200Y8940800D02*
X16244955Y9361555D01*
Y10386100D02*
Y10686100D01*
Y9361555D02*
Y10386100D01*
X15519400Y8940800D02*
X15824200D01*
X10316517Y7459017D02*
X10477500Y7620000D01*
X10316517Y7179617D02*
Y7459017D01*
X11498912Y7061200D02*
X11571285Y6988827D01*
X11578573D01*
X11582400Y6985000D01*
X11493500Y7061200D02*
X11498912D01*
X11582400Y6985000D02*
X11582400D01*
X11847900Y6719500D02*
X14080087D01*
X11582400Y6985000D02*
X11847900Y6719500D01*
X10350500Y6629400D02*
Y6731000D01*
X10464800Y6515100D02*
X11036301D01*
X10350500Y6629400D02*
X10464800Y6515100D01*
X11036301D02*
X11531601Y6019800D01*
X12293600D01*
X12344400Y6070600D01*
X14129688Y6769100D02*
X14135100D01*
X14080087Y6719500D02*
X14129688Y6769100D01*
X12471400Y6616700D02*
X14167789D01*
X12369800D02*
X12471400D01*
X14167789D02*
X14176662Y6625573D01*
X12865100Y5626100D02*
X12928600Y5562600D01*
X7376964Y7202536D02*
X7378599Y7204172D01*
X7291436Y7202536D02*
X7376964D01*
X7289800Y7200900D02*
X7291436Y7202536D01*
X7200900Y7200900D02*
X7289800D01*
X14135100Y6769100D02*
X14185899Y6819900D01*
X14173199Y6616700D02*
X14236700Y6680200D01*
X12877800Y5156200D02*
X12953999Y5080000D01*
Y4699000D02*
Y5080000D01*
X12420600Y5156200D02*
X12877800D01*
X14176662Y6625573D02*
X14179367Y6622867D01*
X12026900Y5549900D02*
X12306300Y5829300D01*
X12377200D01*
X12509948Y5696552D01*
X6197600Y8128000D02*
X6286500Y8216900D01*
X6184900Y8128000D02*
X6197600D01*
X6286500Y8216900D02*
X6426200D01*
X6184900Y7708900D02*
Y8128000D01*
X6096000Y8216900D02*
X6184900Y8128000D01*
X6426200Y8216900D02*
X6756400Y8547100D01*
X5651500Y8216900D02*
X6096000D01*
X5295900Y8572500D02*
X5651500Y8216900D01*
X6184900Y7708900D02*
X6552556Y7341244D01*
Y7111356D02*
Y7341244D01*
X12340573Y6074427D02*
X12344400Y6070600D01*
X6921500Y8547100D02*
X6997700D01*
X6756400D02*
X6921500D01*
X4229100Y8483600D02*
Y8572500D01*
Y8483600D02*
X4318000Y8572500D01*
X11315700Y4457700D02*
Y5295900D01*
X4229100Y7683500D02*
Y8483600D01*
X15333891Y3838348D02*
X15817101Y4321558D01*
X15956799Y5341100D02*
X16185400D01*
X15817101Y5201400D02*
X15956799Y5341100D01*
X15817101Y4321558D02*
Y5201400D01*
X17163300Y5531600D02*
X17220450Y5474450D01*
X16858501Y5531600D02*
X17163300D01*
X16858501D02*
Y5531600D01*
X16807700Y5582402D02*
X16858501Y5531600D01*
X17044849Y3584348D02*
X17214101Y3753600D01*
X17137900Y5010900D02*
X17214101Y4934700D01*
Y3753600D02*
Y4934700D01*
X16680701Y5010900D02*
X17137900D01*
X16502901Y5188700D02*
X16680701Y5010900D01*
X16890509Y3584348D02*
X17044849D01*
X16502901Y5188700D02*
Y5353800D01*
Y5423650D01*
X11569700Y5549900D02*
X12026900D01*
X11315700Y5295900D02*
X11569700Y5549900D01*
X10858500Y4000500D02*
X11315700Y4457700D01*
X12410594Y3767094D02*
X12534782Y3891281D01*
X12616181D01*
X12712700Y3987800D01*
Y4457700D01*
X12953999Y4699000D01*
X12242800Y5334000D02*
X12420600Y5156200D01*
X12242800Y5334000D02*
Y5473700D01*
X6362700Y6718300D02*
Y6807200D01*
Y4902200D02*
Y6718300D01*
Y4902200D02*
X6578600Y4686300D01*
Y4292600D02*
Y4686300D01*
Y4292600D02*
X6718300Y4152900D01*
X6959600D01*
X6552556Y7111356D02*
X6642100Y7200900D01*
X7200900D01*
X7416800Y4762500D02*
X7531100D01*
X4229100Y7683500D02*
X4330700Y7581900D01*
Y7150100D02*
Y7581900D01*
X5067300Y4749800D02*
X5156200D01*
X4330700Y7150100D02*
X4436862Y7256262D01*
X4330700Y5969000D02*
Y7150100D01*
X12858749Y5632450D02*
X12865100Y5626100D01*
X12566650Y5632450D02*
X12858749D01*
X12560300Y5638800D02*
X12566650Y5632450D01*
X12560300Y5638800D02*
Y5642500D01*
X12509948Y5692851D02*
X12560300Y5642500D01*
X12509948Y5692851D02*
Y5696552D01*
X7531100Y4762500D02*
X8064500D01*
X8255000Y4572000D01*
Y4166586D02*
X8520670Y3900916D01*
X8255000Y4166586D02*
Y4572000D01*
X5059964Y7257897D02*
X5061599Y7259533D01*
X4972800Y7256262D02*
X4974436Y7257897D01*
X5059964D01*
X4436862Y7256262D02*
X4883900D01*
X4972800D01*
X6680200Y4762500D02*
X7416800D01*
X6553200Y4889500D02*
X6680200Y4762500D01*
X5651500Y4749800D02*
X5943600Y4457700D01*
X5156200Y4749800D02*
X5651500D01*
X5943600Y4127154D02*
Y4457700D01*
Y4127154D02*
X6197255Y3873500D01*
X4191000Y4826000D02*
Y5219700D01*
X4267200Y4749800D02*
X5067300D01*
X4191000Y4826000D02*
X4267200Y4749800D01*
D61*
X8864000Y6578600D02*
D03*
X12916499Y3225800D02*
D03*
D62*
X8154000Y6578600D02*
D03*
X12979401Y4380900D02*
D03*
X8839200Y7480300D02*
D03*
X8801100Y5106000D02*
D03*
X8559800Y6260500D02*
D03*
X13626500Y3225800D02*
D03*
X14884399Y5321300D02*
D03*
Y3683600D02*
D03*
D63*
X9077960Y2255520D02*
D03*
X12410440D02*
D03*
D64*
X9784080Y2397760D02*
D03*
X10058400D02*
D03*
X10332720D02*
D03*
X10607039D02*
D03*
X10881359D02*
D03*
X11155679D02*
D03*
X11429999D02*
D03*
X9921241Y2113280D02*
D03*
X10195561D02*
D03*
X10469881D02*
D03*
X10744200D02*
D03*
X11018520D02*
D03*
X11292840D02*
D03*
X11567160D02*
D03*
D65*
X11704319Y2397760D02*
D03*
D66*
X4148600Y8887800D02*
D03*
Y10201800D02*
D03*
D67*
X4419600Y9194800D02*
D03*
Y9444800D02*
D03*
Y9644800D02*
D03*
D68*
Y9894800D02*
D03*
D69*
X14068500Y10782600D02*
D03*
X14968500D02*
D03*
X5051500Y10668300D02*
D03*
X5951500D02*
D03*
X16844955Y10780100D02*
D03*
X15644955D02*
D03*
D70*
X14368500Y10688600D02*
D03*
X14668500D02*
D03*
X14368500Y10388600D02*
D03*
X5351500Y10574300D02*
D03*
X5651500D02*
D03*
X5351500Y10274300D02*
D03*
X15944955Y10686100D02*
D03*
X16244955D02*
D03*
X16544955D02*
D03*
X15944955Y10386100D02*
D03*
X16244955D02*
D03*
X16544955D02*
D03*
D71*
X14668500Y10388600D02*
D03*
X5651500Y10274300D02*
D03*
D72*
X14883501Y10538600D02*
D03*
X14153500D02*
D03*
X5866500Y10424300D02*
D03*
X5136500D02*
D03*
D73*
X4683658Y3895042D02*
D03*
X15333891Y3584348D02*
D03*
X6959600Y3898900D02*
D03*
X8520670Y4408916D02*
D03*
X10858500Y3746500D02*
D03*
X12410594Y4275094D02*
D03*
X16890509Y4092348D02*
D03*
X6197255Y4381500D02*
D03*
D74*
X4683658Y4149042D02*
D03*
Y4403042D02*
D03*
X15519400Y9194800D02*
D03*
Y9448800D02*
D03*
X15333891Y3838348D02*
D03*
Y4092348D02*
D03*
X16890509Y3584348D02*
D03*
X12410594Y3767094D02*
D03*
X8520670Y3900916D02*
D03*
X6197255Y3873500D02*
D03*
X6959600Y4152900D02*
D03*
Y4406900D02*
D03*
X8520670Y4154916D02*
D03*
X10858500Y4254500D02*
D03*
Y4000500D02*
D03*
X12410594Y4021094D02*
D03*
X16890509Y3838348D02*
D03*
X6197255Y4127500D02*
D03*
D75*
X8995200Y10063600D02*
D03*
D76*
X9445200D02*
D03*
Y10713600D02*
D03*
X8995200D02*
D03*
X8554600Y10410400D02*
D03*
X7904600D02*
D03*
Y9960400D02*
D03*
D77*
X8554600D02*
D03*
D78*
X12979401Y3670900D02*
D03*
X8839200Y6770300D02*
D03*
X8801100Y5816000D02*
D03*
X8559800Y5550500D02*
D03*
X14884399Y4611300D02*
D03*
Y4393600D02*
D03*
D79*
X16759955Y10536100D02*
D03*
X15729955D02*
D03*
D80*
X15519400Y8940800D02*
D03*
D81*
X16662399Y8906700D02*
D03*
X14643100Y9745600D02*
D03*
D82*
X16662399Y9406700D02*
D03*
X14643100Y9245600D02*
D03*
D83*
X4076700Y8318500D02*
D03*
X11861800Y10591800D02*
D03*
X11658600Y10604500D02*
D03*
X4603750Y8407400D02*
D03*
X12242800Y10439400D02*
D03*
X11226800Y7569200D02*
D03*
X10185400Y8013700D02*
D03*
X9956463Y8851840D02*
D03*
X10060409Y8688580D02*
D03*
X14198599Y5372100D02*
D03*
X14401801Y5308600D02*
D03*
X6553200Y5181600D02*
D03*
X10160000Y9613900D02*
D03*
X5613400Y7747000D02*
D03*
X10255634Y8363922D02*
D03*
X10033000Y8229600D02*
D03*
X11049000Y7772400D02*
D03*
X9639300Y8026400D02*
D03*
X9525000D02*
D03*
X8597900Y8509000D02*
D03*
X8737600Y8496300D02*
D03*
X8915400Y8470900D02*
D03*
X13754100Y4495800D02*
D03*
X13792200Y4584700D02*
D03*
X14135100Y8559800D02*
D03*
X8140700Y10629900D02*
D03*
X11379200Y10071100D02*
D03*
X10934700Y8928100D02*
D03*
X9893300Y8140700D02*
D03*
X8978900Y8318500D02*
D03*
X9398000Y8051800D02*
D03*
X9207500Y7964400D02*
D03*
X8991600Y7962900D02*
D03*
X8559800Y8597900D02*
D03*
X8509000Y8902700D02*
D03*
X8877300Y9105900D02*
D03*
X11012707Y8412235D02*
D03*
X10922800Y7429500D02*
D03*
X8191500Y9791700D02*
D03*
X8267700Y9690100D02*
D03*
X8242300Y9080500D02*
D03*
X8293100Y9207500D02*
D03*
X8369300Y9321800D02*
D03*
X9106185Y9397486D02*
D03*
X8928100Y9525000D02*
D03*
X8851900Y9652000D02*
D03*
X8699500Y9690100D02*
D03*
X8661400Y9156700D02*
D03*
X10591800Y9029700D02*
D03*
X10261600Y9004300D02*
D03*
X10210800Y7721600D02*
D03*
X10045700Y8026400D02*
D03*
X10071100Y7734300D02*
D03*
X10312400Y7620000D02*
D03*
X10477500D02*
D03*
X10316517Y7179617D02*
D03*
X8610600Y8204200D02*
D03*
X8420100Y8572500D02*
D03*
X8763000Y7888300D02*
D03*
X8610600Y8039100D02*
D03*
X8369300Y8293100D02*
D03*
Y7975600D02*
D03*
X8407400Y8991600D02*
D03*
X8191500Y8166100D02*
D03*
X8128000Y8369300D02*
D03*
X7988300Y8077200D02*
D03*
X7696200Y8051800D02*
D03*
X8039100Y8661400D02*
D03*
X9265700Y8866600D02*
D03*
X9375700D02*
D03*
X9485700D02*
D03*
X9595700D02*
D03*
X9705700D02*
D03*
X9265700Y8756600D02*
D03*
X9375700D02*
D03*
X9485700D02*
D03*
X9595700D02*
D03*
X9705700D02*
D03*
X9265700Y8646600D02*
D03*
X9375700D02*
D03*
X9485700D02*
D03*
X9595700D02*
D03*
X9705700D02*
D03*
X9265700Y8536600D02*
D03*
X9375700D02*
D03*
X9485700D02*
D03*
X9595700D02*
D03*
X9705700D02*
D03*
X9265700Y8426600D02*
D03*
X9375700D02*
D03*
X9485700D02*
D03*
X9595700D02*
D03*
X9705700D02*
D03*
X9093200Y9131300D02*
D03*
X14592300Y7124700D02*
D03*
X14516100D02*
D03*
X14185899D02*
D03*
X15887700Y6858000D02*
D03*
X15940045Y6805655D02*
D03*
X12230100Y6870700D02*
D03*
X14452600Y6400800D02*
D03*
X14554201Y5372100D02*
D03*
X14490700Y5422900D02*
D03*
X12839700Y5943600D02*
D03*
Y6019800D02*
D03*
X13268764Y4635791D02*
D03*
X13335001Y4597400D02*
D03*
X11747500Y6997700D02*
D03*
X5537200Y7861300D02*
D03*
X6057900Y7785100D02*
D03*
X5981700D02*
D03*
X9613900Y9372600D02*
D03*
X9855200Y9289136D02*
D03*
X9753600Y9398000D02*
D03*
X10769600Y7340600D02*
D03*
X9182100Y7505700D02*
D03*
X11074400Y9626600D02*
D03*
X11938992Y10414000D02*
D03*
X9575800Y9474200D02*
D03*
X11658600Y10337800D02*
D03*
X14681200Y7416800D02*
D03*
X14401801Y7543800D02*
D03*
X14274800D02*
D03*
X14516100Y6974316D02*
D03*
X11493500Y7061200D02*
D03*
X11582400Y6985000D02*
D03*
X10350500Y6731000D02*
D03*
X14008099Y5524500D02*
D03*
X12636500Y6184900D02*
D03*
X13830299Y5588000D02*
D03*
X14058900Y4864100D02*
D03*
X14135100Y4940300D02*
D03*
X10604500Y7391400D02*
D03*
X11036300Y7277100D02*
D03*
X12395200Y6794500D02*
D03*
X13804900Y9182100D02*
D03*
Y9258300D02*
D03*
X14030217Y7010400D02*
D03*
X14084300Y7239000D02*
D03*
X14147800Y7340600D02*
D03*
X14071600Y7454900D02*
D03*
X12471400Y6616700D02*
D03*
X12369800D02*
D03*
X11430000Y7810500D02*
D03*
X11264900Y7886700D02*
D03*
X12928600Y5562600D02*
D03*
X7480300Y8356600D02*
D03*
X7035800Y8280400D02*
D03*
X6896100Y8356600D02*
D03*
X7378599Y7204172D02*
D03*
X7289800Y7200900D02*
D03*
X7200900D02*
D03*
X13906500Y9112250D02*
D03*
Y9194800D02*
D03*
X14185899Y6819900D02*
D03*
X14897099Y7340600D02*
D03*
X14820900D02*
D03*
X14608043Y7416800D02*
D03*
X14630400Y7251700D02*
D03*
X14547388D02*
D03*
X9169400Y5130800D02*
D03*
X13296899Y5181600D02*
D03*
X15223276Y7046432D02*
D03*
X15278101Y7099300D02*
D03*
X15608299Y6623050D02*
D03*
Y6553200D02*
D03*
X15474734Y7041934D02*
D03*
X15519400Y7086600D02*
D03*
X14992123Y7041924D02*
D03*
X15049500Y7099300D02*
D03*
X14236700Y6680200D02*
D03*
X14185899Y6629400D02*
D03*
X14135100Y6769100D02*
D03*
X14630400Y5537200D02*
D03*
X10350500Y5588000D02*
D03*
X6311900Y7874000D02*
D03*
X6388100D02*
D03*
X7389900Y7786600D02*
D03*
X7340600Y7835900D02*
D03*
X5800929Y8039100D02*
D03*
X5969000Y8128000D02*
D03*
X5899559Y8039100D02*
D03*
X6045200Y8128000D02*
D03*
X6070600Y7962900D02*
D03*
X5981700D02*
D03*
X5803900Y7874000D02*
D03*
X5905500D02*
D03*
X5295900Y8140700D02*
D03*
X5384800D02*
D03*
X15798801Y7493000D02*
D03*
X15903085D02*
D03*
X6921500Y8547100D02*
D03*
X6997700D02*
D03*
X12344400Y6070600D02*
D03*
X12293600Y6019800D02*
D03*
X5232400Y8039100D02*
D03*
X5295900D02*
D03*
X5207000Y8216900D02*
D03*
X5162550Y8261350D02*
D03*
X4686300Y8407400D02*
D03*
X4229100Y8483600D02*
D03*
X4226615Y8560916D02*
D03*
X4038600Y8255000D02*
D03*
X13265150Y4508500D02*
D03*
X13195300D02*
D03*
X13893800Y4572000D02*
D03*
Y4648200D02*
D03*
X13512801Y4572000D02*
D03*
X13462000Y4622800D02*
D03*
X13309599Y5422900D02*
D03*
X14554201Y5537200D02*
D03*
X14338300Y5410200D02*
D03*
X14236700Y5503088D02*
D03*
X17220450Y5474450D02*
D03*
X17277600Y5417300D02*
D03*
X16807700Y5582402D02*
D03*
X16858501Y5531600D02*
D03*
X16502901Y5353800D02*
D03*
Y5423650D02*
D03*
X12242800Y5473700D02*
D03*
X6362700Y6807200D02*
D03*
Y6718300D02*
D03*
X9664700Y4140200D02*
D03*
Y4051300D02*
D03*
X8991600Y3975100D02*
D03*
Y3886200D02*
D03*
X9677400Y3759200D02*
D03*
X9753600D02*
D03*
X9658350Y5651500D02*
D03*
X10350500Y5295900D02*
D03*
Y3580099D02*
D03*
Y3670300D02*
D03*
X9690100Y6134100D02*
D03*
X9791700D02*
D03*
X8966200Y6184900D02*
D03*
Y6273800D02*
D03*
X12865100Y5626100D02*
D03*
X12560300Y5638800D02*
D03*
X12509948Y5696552D02*
D03*
X5061599Y7259533D02*
D03*
X4972800Y7256262D02*
D03*
X4883900D02*
D03*
X7531100Y4762500D02*
D03*
X7416800D02*
D03*
X6552556Y5313576D02*
D03*
X4191000Y5308600D02*
D03*
X5067300Y4749800D02*
D03*
X5156200D02*
D03*
X4191000Y5219700D02*
D03*
%TF.MD5,3d00c713b2f980c2abbb4b8534b6cc30*%
M02*
