%TF.GenerationSoftware,Altium Limited,Altium Designer,25.3.3 (18)*%
G04 Layer_Color=0*
%FSLAX45Y45*%
%MOMM*%
%TF.SameCoordinates,7852E7E1-4E30-4CDD-8EF1-640B4E54786C*%
%TF.FilePolarity,Positive*%
%TF.FileFunction,Other,Top_Component_Center*%
%TF.Part,Single*%
G01*
G75*
%TA.AperFunction,NonConductor*%
%ADD146C,0.10000*%
D146*
X8459000Y6578600D02*
X8559000D01*
X8509000Y6528600D02*
Y6628600D01*
X4623600Y10071100D02*
X4723600D01*
X4673600Y10021100D02*
Y10121100D01*
X10744200Y1575600D02*
Y1675600D01*
X10694200Y1625600D02*
X10794200D01*
X5105400Y7214400D02*
Y7314400D01*
X5055400Y7264400D02*
X5155400D01*
X14518500Y10530100D02*
Y10630100D01*
X14468500Y10580100D02*
X14568500D01*
X10402100Y8191500D02*
X10502100D01*
X10452100Y8141500D02*
Y8241500D01*
X14350999Y3816002D02*
Y3916002D01*
X14300999Y3866002D02*
X14400999D01*
X13487399Y6397011D02*
Y6497011D01*
X13437399Y6447011D02*
X13537399D01*
X12929401Y4025900D02*
X13029401D01*
X12979401Y3975900D02*
Y4075900D01*
X8789200Y7125300D02*
X8889200D01*
X8839200Y7075300D02*
Y7175300D01*
X8751100Y5461000D02*
X8851100D01*
X8801100Y5411000D02*
Y5511000D01*
X8509800Y5905500D02*
X8609800D01*
X8559800Y5855500D02*
Y5955500D01*
X13271500Y3175800D02*
Y3275800D01*
X13221500Y3225800D02*
X13321500D01*
X14834399Y4966300D02*
X14934399D01*
X14884399Y4916300D02*
Y5016300D01*
X14834399Y4038600D02*
X14934399D01*
X14884399Y3988600D02*
Y4088600D01*
X5207000Y5169700D02*
Y5269700D01*
X5157000Y5219700D02*
X5257000D01*
X10300500Y9715500D02*
X10400500D01*
X10350500Y9665500D02*
Y9765500D01*
X5501500Y10415800D02*
Y10515800D01*
X5451500Y10465800D02*
X5551500D01*
X16244955Y10530100D02*
Y10630100D01*
X16194955Y10580100D02*
X16294955D01*
X5702300Y9271800D02*
Y9371800D01*
X5652300Y9321800D02*
X5752300D01*
X4915700D02*
X5015700D01*
X4965700Y9271800D02*
Y9371800D01*
X5507300Y8839200D02*
X5607300D01*
X5557300Y8789200D02*
Y8889200D01*
X4966500Y8839200D02*
X5066500D01*
X5016500Y8789200D02*
Y8889200D01*
X4699000Y9259100D02*
Y9359100D01*
X4649000Y9309100D02*
X4749000D01*
X10248900Y8598700D02*
Y8698700D01*
X10198900Y8648700D02*
X10298900D01*
X10934700Y8611400D02*
Y8711400D01*
X10884700Y8661400D02*
X10984700D01*
X12763500Y7265200D02*
Y7365200D01*
X12713500Y7315200D02*
X12813499D01*
X12370600Y7243378D02*
X12470600D01*
X12420600Y7193378D02*
Y7293378D01*
X12992101Y6998500D02*
Y7098500D01*
X12942101Y7048500D02*
X13042101D01*
X13169901Y7519200D02*
Y7619200D01*
X13119901Y7569200D02*
X13219901D01*
X9626600Y7114300D02*
Y7214300D01*
X9576600Y7164300D02*
X9676600D01*
X11494300Y8724900D02*
X11594300D01*
X11544300Y8674900D02*
Y8774900D01*
X11494300Y8267700D02*
X11594300D01*
X11544300Y8217700D02*
Y8317700D01*
X11494300Y8039100D02*
X11594300D01*
X11544300Y7989100D02*
Y8089100D01*
X11494300Y8509000D02*
X11594300D01*
X11544300Y8459000D02*
Y8559000D01*
X12065800Y7289800D02*
X12165800D01*
X12115800Y7239800D02*
Y7339800D01*
X12412300Y8636000D02*
X12512300D01*
X12462300Y8586000D02*
Y8686000D01*
X9759164Y9690100D02*
X9859164D01*
X9809164Y9640100D02*
Y9740100D01*
X12090400Y9513100D02*
Y9613100D01*
X12040400Y9563100D02*
X12140400D01*
X10757700Y8039100D02*
X10857700D01*
X10807700Y7989100D02*
Y8089100D01*
X12039600Y9919500D02*
Y10019500D01*
X11989600Y9969500D02*
X12089600D01*
X13030200Y9919500D02*
Y10019500D01*
X12980200Y9969500D02*
X13080200D01*
X13042900Y9500400D02*
Y9600400D01*
X12992900Y9550400D02*
X13092900D01*
X12624600Y9283700D02*
X12724600D01*
X12674600Y9233700D02*
Y9333700D01*
X13017500Y9068600D02*
Y9168600D01*
X12967500Y9118600D02*
X13067500D01*
X12637300Y9855200D02*
X12737300D01*
X12687300Y9805200D02*
Y9905200D01*
X12408700Y9855200D02*
X12508700D01*
X12458700Y9805200D02*
Y9905200D01*
X11722900Y9563100D02*
X11822900D01*
X11772900Y9513100D02*
Y9613100D01*
X11519700Y9563100D02*
X11619700D01*
X11569700Y9513100D02*
Y9613100D01*
X11988800Y9144800D02*
Y9244800D01*
X11938800Y9194800D02*
X12038800D01*
X16662399Y9106700D02*
Y9206700D01*
X16612399Y9156700D02*
X16712399D01*
X14643100Y9445600D02*
Y9545600D01*
X14593100Y9495600D02*
X14693100D01*
X15012199Y8737600D02*
X15112199D01*
X15062199Y8687600D02*
Y8787600D01*
X14580400Y8204100D02*
X14680400D01*
X14630400Y8154100D02*
Y8254100D01*
X15913100Y9563900D02*
Y9663900D01*
X15863100Y9613900D02*
X15963100D01*
X13914676Y7658900D02*
Y7758900D01*
X13864676Y7708900D02*
X13964676D01*
X13856500Y8128000D02*
X13956500D01*
X13906500Y8078000D02*
Y8178000D01*
X14428000Y7708900D02*
X14528000D01*
X14478000Y7658900D02*
Y7758900D01*
X15468600Y8281200D02*
Y8381200D01*
X15418600Y8331200D02*
X15518600D01*
X15468600Y7824000D02*
Y7924000D01*
X15418600Y7874000D02*
X15518600D01*
X15239999Y7862100D02*
Y7962100D01*
X15189999Y7912100D02*
X15289999D01*
X15392400Y7443000D02*
Y7543000D01*
X15342400Y7493000D02*
X15442400D01*
X10769600Y5842800D02*
Y5942800D01*
X10719600Y5892800D02*
X10819600D01*
X6274600Y8585200D02*
X6374600D01*
X6324600Y8535200D02*
Y8635200D01*
X6274600Y8813800D02*
X6374600D01*
X6324600Y8763800D02*
Y8863800D01*
X6400800Y9716300D02*
Y9816300D01*
X6350800Y9766300D02*
X6450800D01*
X6159500Y9284500D02*
Y9384500D01*
X6109500Y9334500D02*
X6209500D01*
X6350800Y9302583D02*
X6450800D01*
X6400800Y9252583D02*
Y9352583D01*
X9950811Y3313007D02*
X10050811D01*
X10000811Y3263007D02*
Y3363007D01*
X9132100Y7126200D02*
X9232100D01*
X9182100Y7076200D02*
Y7176200D01*
X10807700Y8230400D02*
Y8330400D01*
X10757700Y8280400D02*
X10857700D01*
X10681500Y9639300D02*
X10781500D01*
X10731500Y9589300D02*
Y9689300D01*
X10325100Y10198900D02*
Y10298900D01*
X10275100Y10248900D02*
X10375100D01*
X10884700Y10121900D02*
X10984700D01*
X10934700Y10071900D02*
Y10171900D01*
X10083800Y10198900D02*
Y10298900D01*
X10033800Y10248900D02*
X10133800D01*
X9665500Y10100100D02*
X9765500D01*
X9715500Y10050100D02*
Y10150100D01*
X8509000Y10579900D02*
Y10679900D01*
X8459000Y10629900D02*
X8559000D01*
X7417600Y6210300D02*
X7517600D01*
X7467600Y6160300D02*
Y6260300D01*
X7514553Y5742417D02*
X7614553D01*
X7564553Y5692417D02*
Y5792417D01*
X7539953Y5209017D02*
X7639953D01*
X7589953Y5159017D02*
Y5259017D01*
X7886700Y6300000D02*
Y6400000D01*
X7836700Y6350000D02*
X7936700D01*
X7912100Y5982500D02*
Y6082500D01*
X7862100Y6032500D02*
X7962100D01*
X8047153Y5120917D02*
Y5220917D01*
X7997153Y5170917D02*
X8097153D01*
X8302300Y5120917D02*
Y5220917D01*
X8252300Y5170917D02*
X8352300D01*
X7372400Y7209038D02*
X7472400D01*
X7422400Y7159039D02*
Y7259038D01*
X7620000Y7760500D02*
Y7860500D01*
X7570000Y7810500D02*
X7670000D01*
X7874000Y6554000D02*
Y6654000D01*
X7824000Y6604000D02*
X7924000D01*
X8014500Y7327900D02*
X8114500D01*
X8064500Y7277900D02*
Y7377900D01*
X8178800Y6871500D02*
Y6971500D01*
X8128800Y6921500D02*
X8228800D01*
X8306600Y7327900D02*
X8406600D01*
X8356600Y7277900D02*
Y7377900D01*
X6917653Y5742417D02*
X7017653D01*
X6967653Y5692417D02*
Y5792417D01*
X6917653Y5209017D02*
X7017653D01*
X6967653Y5159017D02*
Y5259017D01*
X7505700Y3823500D02*
Y3923500D01*
X7455700Y3873500D02*
X7555700D01*
X7582270Y3208949D02*
Y3308949D01*
X7532270Y3258949D02*
X7632270D01*
X7988670Y3208949D02*
Y3308949D01*
X7938670Y3258949D02*
X8038670D01*
X7988670Y3823904D02*
Y3923904D01*
X7938670Y3873904D02*
X8038670D01*
X6968453Y3138917D02*
X7068453D01*
X7018453Y3088917D02*
Y3188917D01*
X6934200Y6274600D02*
Y6374600D01*
X6884200Y6324600D02*
X6984200D01*
X6946900Y6566700D02*
Y6666700D01*
X6896900Y6616700D02*
X6996900D01*
X6757200Y6959600D02*
X6857200D01*
X6807200Y6909600D02*
Y7009600D01*
X7125500Y7975600D02*
X7225500D01*
X7175500Y7925600D02*
Y8025600D01*
X6896900Y7975600D02*
X6996900D01*
X6946900Y7925600D02*
Y8025600D01*
X6668300Y7975600D02*
X6768300D01*
X6718300Y7925600D02*
Y8025600D01*
X9672336Y4786207D02*
X9772336D01*
X9722336Y4736207D02*
Y4836207D01*
X9216908Y5691102D02*
X9316907D01*
X9266908Y5641102D02*
Y5741102D01*
X9181171Y3313007D02*
X9281171D01*
X9231171Y3263007D02*
Y3363007D01*
X9967197Y5691102D02*
X10067197D01*
X10017197Y5641102D02*
Y5741102D01*
X10031000Y7126201D02*
X10131000D01*
X10081000Y7076201D02*
Y7176201D01*
X9899727Y6428755D02*
X9999727D01*
X9949727Y6378755D02*
Y6478755D01*
X10142197Y6428755D02*
X10242197D01*
X10192197Y6378755D02*
Y6478755D01*
X9143028Y6428754D02*
X9243028D01*
X9193028Y6378754D02*
Y6478754D01*
X9391908Y6428754D02*
X9491907D01*
X9441907Y6378754D02*
Y6478754D01*
X10136938Y4760807D02*
X10236938D01*
X10186938Y4710807D02*
Y4810807D01*
X9876743Y4050661D02*
X9976743D01*
X9926743Y4000662D02*
Y4100661D01*
X10125811Y4050661D02*
X10225811D01*
X10175811Y4000662D02*
Y4100661D01*
X9124159Y4050661D02*
X9224159D01*
X9174159Y4000662D02*
Y4100661D01*
X9356171Y4050660D02*
X9456171D01*
X9406171Y4000660D02*
Y4100660D01*
X9119400Y4699000D02*
X9219400D01*
X9169400Y4649000D02*
Y4749000D01*
X16381094Y3132754D02*
Y3232754D01*
X16331094Y3182754D02*
X16431094D01*
X15974695Y3132754D02*
Y3232754D01*
X15924695Y3182754D02*
X16024695D01*
X15880600Y3767100D02*
Y3867100D01*
X15830600Y3817100D02*
X15930600D01*
X16368394Y3767754D02*
Y3867754D01*
X16318394Y3817754D02*
X16418394D01*
X10618000Y6921500D02*
X10718000D01*
X10668000Y6871500D02*
Y6971500D01*
X12204700Y5779300D02*
Y5879300D01*
X12154700Y5829300D02*
X12254700D01*
X12586500Y5150200D02*
X12686500D01*
X12636500Y5100200D02*
Y5200200D01*
X11474481Y3315500D02*
Y3415500D01*
X11424482Y3365500D02*
X11524481D01*
X11944381Y3950500D02*
Y4050500D01*
X11894382Y4000500D02*
X11994381D01*
X11944381Y3315500D02*
Y3415500D01*
X11894382Y3365500D02*
X11994381D01*
X11379200Y3950500D02*
Y4050500D01*
X11329200Y4000500D02*
X11429200D01*
X11379200Y6096800D02*
Y6196800D01*
X11329200Y6146800D02*
X11429200D01*
X11925300Y4890300D02*
Y4990300D01*
X11875300Y4940300D02*
X11975300D01*
X11418100Y5118100D02*
X11518100D01*
X11468100Y5068100D02*
Y5168100D01*
X13437399Y6704445D02*
X13537399D01*
X13487399Y6654445D02*
Y6754445D01*
X13437399Y5942200D02*
X13537399D01*
X13487399Y5892201D02*
Y5992200D01*
X13437399Y7219311D02*
X13537399D01*
X13487399Y7169311D02*
Y7269311D01*
X13437399Y6963889D02*
X13537399D01*
X13487399Y6913889D02*
Y7013889D01*
X14300999Y4124666D02*
X14400999D01*
X14350999Y4074666D02*
Y4174666D01*
X14300999Y3617207D02*
X14400999D01*
X14350999Y3567207D02*
Y3667207D01*
X14300999Y3098351D02*
X14400999D01*
X14350999Y3048351D02*
Y3148351D01*
X14300999Y3356754D02*
X14400999D01*
X14350999Y3306754D02*
Y3406754D01*
X14300999Y4377741D02*
X14400999D01*
X14350999Y4327741D02*
Y4427741D01*
X13437399Y6195612D02*
X13537399D01*
X13487399Y6145612D02*
Y6245612D01*
X13437399Y5694332D02*
X13537399D01*
X13487399Y5644332D02*
Y5744331D01*
X14300999Y4630164D02*
X14400999D01*
X14350999Y4580165D02*
Y4680164D01*
X16248900Y4694200D02*
Y4794200D01*
X16198900Y4744200D02*
X16298900D01*
X16863284Y5011554D02*
X16963284D01*
X16913284Y4961554D02*
Y5061554D01*
X11113300Y6921500D02*
X11213300D01*
X11163300Y6871500D02*
Y6971500D01*
X11526429Y6758592D02*
X11626429D01*
X11576429Y6708592D02*
Y6808591D01*
X10872000Y6921500D02*
X10972000D01*
X10922000Y6871500D02*
Y6971500D01*
X11899900Y5474500D02*
Y5574500D01*
X11849900Y5524500D02*
X11949900D01*
X12256300Y6350000D02*
X12356300D01*
X12306300Y6300000D02*
Y6400000D01*
X11976900Y6350000D02*
X12076900D01*
X12026900Y6300000D02*
Y6400000D01*
X11899900Y5195100D02*
Y5295100D01*
X11849900Y5245100D02*
X11949900D01*
X10922000Y5512600D02*
Y5612600D01*
X10872000Y5562600D02*
X10972000D01*
X10922000Y5207800D02*
Y5307800D01*
X10872000Y5257800D02*
X10972000D01*
X15652000Y5913400D02*
Y6013400D01*
X15602000Y5963400D02*
X15702000D01*
X16477499Y5583200D02*
Y5683200D01*
X16427499Y5633200D02*
X16527499D01*
X15699413Y4916654D02*
X15799413D01*
X15749413Y4866654D02*
Y4966654D01*
X15220200Y5316500D02*
Y5416500D01*
X15170200Y5366500D02*
X15270200D01*
X16210800Y5291100D02*
Y5391100D01*
X16160800Y5341100D02*
X16260800D01*
X15231009Y4998513D02*
Y5098513D01*
X15181010Y5048513D02*
X15281009D01*
X16210800Y5006654D02*
Y5106654D01*
X16160800Y5056654D02*
X16260800D01*
X15005099Y5722100D02*
X15105099D01*
X15055099Y5672100D02*
Y5772100D01*
X16516400Y6115800D02*
X16616400D01*
X16566400Y6065800D02*
Y6165800D01*
X16224300Y6115800D02*
X16324300D01*
X16274300Y6065800D02*
Y6165800D01*
X15847545Y6535846D02*
Y6635846D01*
X15797545Y6585846D02*
X15897545D01*
X15380067Y6712700D02*
X15480067D01*
X15430067Y6662700D02*
Y6762700D01*
X15138840Y6712700D02*
X15238840D01*
X15188840Y6662700D02*
Y6762700D01*
X14884747Y6712700D02*
X14984747D01*
X14934747Y6662700D02*
Y6762700D01*
X4560100Y5740400D02*
X4660100D01*
X4610100Y5690400D02*
Y5790400D01*
X4534700Y5207000D02*
X4634700D01*
X4584700Y5157000D02*
Y5257000D01*
X4597400Y3099600D02*
Y3199600D01*
X4547400Y3149600D02*
X4647400D01*
X5612560Y3805932D02*
X5712560D01*
X5662560Y3755932D02*
Y3855932D01*
X5206160Y3213100D02*
X5306160D01*
X5256160Y3163100D02*
Y3263100D01*
X5106200Y3873500D02*
X5206200D01*
X5156200Y3823500D02*
Y3923500D01*
X5638800Y5157000D02*
Y5257000D01*
X5588800Y5207000D02*
X5688800D01*
X5612560Y3213100D02*
X5712560D01*
X5662560Y3163100D02*
Y3263100D01*
X5868830Y5157000D02*
Y5257000D01*
X5818830Y5207000D02*
X5918829D01*
X5487200Y6057900D02*
X5587200D01*
X5537200Y6007900D02*
Y6107900D01*
X5512600Y6362700D02*
X5612600D01*
X5562600Y6312700D02*
Y6412700D01*
X4394200Y7963700D02*
Y8063700D01*
X4344200Y8013700D02*
X4444200D01*
X4635500Y7963700D02*
Y8063700D01*
X4585500Y8013700D02*
X4685500D01*
X4889497Y7958397D02*
Y8058396D01*
X4839497Y8008396D02*
X4939497D01*
X4560100Y6629400D02*
X4660100D01*
X4610100Y6579400D02*
Y6679400D01*
X4572800Y6337300D02*
X4672800D01*
X4622800Y6287300D02*
Y6387300D01*
X5118103Y6178304D02*
Y6278303D01*
X5068103Y6228304D02*
X5168103D01*
X5512600Y6629400D02*
X5612600D01*
X5562600Y6579400D02*
Y6679400D01*
X5702300Y7303300D02*
Y7403300D01*
X5652300Y7353300D02*
X5752300D01*
X5981700Y7303300D02*
Y7403300D01*
X5931700Y7353300D02*
X6031700D01*
X5144640Y5740400D02*
X5244640D01*
X5194640Y5690400D02*
Y5790400D01*
X5245900Y7861300D02*
X5345900D01*
X5295900Y7811300D02*
Y7911300D01*
X4508500Y6922300D02*
Y7022300D01*
X4458500Y6972300D02*
X4558500D01*
X5849400Y6947700D02*
Y7047700D01*
X5799400Y6997700D02*
X5899400D01*
%TF.MD5,c53ebd79cf29992c200eaf3b21576488*%
M02*
