%TF.GenerationSoftware,Altium Limited,Altium Designer,25.3.3 (18)*%
G04 Layer_Color=255*
%FSLAX45Y45*%
%MOMM*%
%TF.SameCoordinates,7852E7E1-4E30-4CDD-8EF1-640B4E54786C*%
%TF.FilePolarity,Positive*%
%TF.FileFunction,Pads,Bot*%
%TF.Part,Single*%
G01*
G75*
%TA.AperFunction,ComponentPad*%
%ADD61R,1.25000X1.25000*%
%ADD62C,1.25000*%
%ADD63C,4.82500*%
%ADD64C,1.59140*%
%ADD65R,1.59140X1.59140*%
%ADD66C,2.38000*%
%ADD67C,1.50800*%
%ADD68R,1.50800X1.50800*%
%ADD69C,1.02000*%
%ADD70C,1.57000*%
%ADD71R,1.57000X1.57000*%
%ADD72C,2.41000*%
%ADD73R,1.70000X1.70000*%
%ADD74C,1.70000*%
%ADD75R,1.50000X1.50000*%
%ADD76C,1.50000*%
%ADD77R,1.50000X1.50000*%
%ADD78R,1.25000X1.25000*%
%ADD79C,3.37300*%
%ADD80R,1.70000X1.70000*%
%ADD81R,1.30000X1.30000*%
%ADD82C,1.30000*%
D61*
X8864000Y6578600D02*
D03*
X12916499Y3225800D02*
D03*
D62*
X8154000Y6578600D02*
D03*
X12979401Y4380900D02*
D03*
X8839200Y7480300D02*
D03*
X8801100Y5106000D02*
D03*
X8559800Y6260500D02*
D03*
X13626500Y3225800D02*
D03*
X14884399Y5321300D02*
D03*
Y3683600D02*
D03*
D63*
X9077960Y2255520D02*
D03*
X12410440D02*
D03*
D64*
X9784080Y2397760D02*
D03*
X10058400D02*
D03*
X10332720D02*
D03*
X10607039D02*
D03*
X10881359D02*
D03*
X11155679D02*
D03*
X11429999D02*
D03*
X9921241Y2113280D02*
D03*
X10195561D02*
D03*
X10469881D02*
D03*
X10744200D02*
D03*
X11018520D02*
D03*
X11292840D02*
D03*
X11567160D02*
D03*
D65*
X11704319Y2397760D02*
D03*
D66*
X4148600Y8887800D02*
D03*
Y10201800D02*
D03*
D67*
X4419600Y9194800D02*
D03*
Y9444800D02*
D03*
Y9644800D02*
D03*
D68*
Y9894800D02*
D03*
D69*
X14068500Y10782600D02*
D03*
X14968500D02*
D03*
X5051500Y10668300D02*
D03*
X5951500D02*
D03*
X16844955Y10780100D02*
D03*
X15644955D02*
D03*
D70*
X14368500Y10688600D02*
D03*
X14668500D02*
D03*
X14368500Y10388600D02*
D03*
X5351500Y10574300D02*
D03*
X5651500D02*
D03*
X5351500Y10274300D02*
D03*
X15944955Y10686100D02*
D03*
X16244955D02*
D03*
X16544955D02*
D03*
X15944955Y10386100D02*
D03*
X16244955D02*
D03*
X16544955D02*
D03*
D71*
X14668500Y10388600D02*
D03*
X5651500Y10274300D02*
D03*
D72*
X14883501Y10538600D02*
D03*
X14153500D02*
D03*
X5866500Y10424300D02*
D03*
X5136500D02*
D03*
D73*
X4683658Y3895042D02*
D03*
X15333891Y3584348D02*
D03*
X6959600Y3898900D02*
D03*
X8520670Y4408916D02*
D03*
X10858500Y3746500D02*
D03*
X12410594Y4275094D02*
D03*
X16890509Y4092348D02*
D03*
X6197255Y4381500D02*
D03*
D74*
X4683658Y4149042D02*
D03*
Y4403042D02*
D03*
X15519400Y9194800D02*
D03*
Y9448800D02*
D03*
X15333891Y3838348D02*
D03*
Y4092348D02*
D03*
X16890509Y3584348D02*
D03*
X12410594Y3767094D02*
D03*
X8520670Y3900916D02*
D03*
X6197255Y3873500D02*
D03*
X6959600Y4152900D02*
D03*
Y4406900D02*
D03*
X8520670Y4154916D02*
D03*
X10858500Y4254500D02*
D03*
Y4000500D02*
D03*
X12410594Y4021094D02*
D03*
X16890509Y3838348D02*
D03*
X6197255Y4127500D02*
D03*
D75*
X8995200Y10063600D02*
D03*
D76*
X9445200D02*
D03*
Y10713600D02*
D03*
X8995200D02*
D03*
X8554600Y10410400D02*
D03*
X7904600D02*
D03*
Y9960400D02*
D03*
D77*
X8554600D02*
D03*
D78*
X12979401Y3670900D02*
D03*
X8839200Y6770300D02*
D03*
X8801100Y5816000D02*
D03*
X8559800Y5550500D02*
D03*
X14884399Y4611300D02*
D03*
Y4393600D02*
D03*
D79*
X16759955Y10536100D02*
D03*
X15729955D02*
D03*
D80*
X15519400Y8940800D02*
D03*
D81*
X16662399Y8906700D02*
D03*
X14643100Y9745600D02*
D03*
D82*
X16662399Y9406700D02*
D03*
X14643100Y9245600D02*
D03*
%TF.MD5,90647380cc46eb2f12d24f2585255a03*%
M02*
