%TF.GenerationSoftware,Altium Limited,Altium Designer,25.3.3 (18)*%
G04 Layer_Physical_Order=3*
G04 Layer_Color=128*
%FSLAX45Y45*%
%MOMM*%
%TF.SameCoordinates,7852E7E1-4E30-4CDD-8EF1-640B4E54786C*%
%TF.FilePolarity,Negative*%
%TF.FileFunction,Copper,L3,Inr,Plane*%
%TF.Part,Single*%
G01*
G75*
%TA.AperFunction,NonConductor*%
%ADD84C,1.01600*%
%TA.AperFunction,ComponentPad*%
%ADD85C,1.76600*%
G04:AMPARAMS|DCode=86|XSize=2.274mm|YSize=2.274mm|CornerRadius=0mm|HoleSize=0mm|Usage=FLASHONLY|Rotation=0.000|XOffset=0mm|YOffset=0mm|HoleType=Round|Shape=Relief|Width=0.254mm|Gap=0.254mm|Entries=4|*
%AMTHD86*
7,0,0,2.27400,1.76600,0.25400,45*
%
%ADD86THD86*%
G04:AMPARAMS|DCode=87|XSize=4.699mm|YSize=4.699mm|CornerRadius=0mm|HoleSize=0mm|Usage=FLASHONLY|Rotation=0.000|XOffset=0mm|YOffset=0mm|HoleType=Round|Shape=Relief|Width=0.254mm|Gap=0.254mm|Entries=4|*
%AMTHD87*
7,0,0,4.69900,4.19100,0.25400,45*
%
%ADD87THD87*%
%ADD88C,2.05740*%
G04:AMPARAMS|DCode=89|XSize=2.5654mm|YSize=2.5654mm|CornerRadius=0mm|HoleSize=0mm|Usage=FLASHONLY|Rotation=0.000|XOffset=0mm|YOffset=0mm|HoleType=Round|Shape=Relief|Width=0.254mm|Gap=0.254mm|Entries=4|*
%AMTHD89*
7,0,0,2.56540,2.05740,0.25400,45*
%
%ADD89THD89*%
%ADD90C,3.39600*%
G04:AMPARAMS|DCode=91|XSize=2.524mm|YSize=2.524mm|CornerRadius=0mm|HoleSize=0mm|Usage=FLASHONLY|Rotation=0.000|XOffset=0mm|YOffset=0mm|HoleType=Round|Shape=Relief|Width=0.254mm|Gap=0.254mm|Entries=4|*
%AMTHD91*
7,0,0,2.52400,2.01600,0.25400,45*
%
%ADD91THD91*%
%ADD92C,2.01600*%
%ADD93C,2.03600*%
G04:AMPARAMS|DCode=94|XSize=2.544mm|YSize=2.544mm|CornerRadius=0mm|HoleSize=0mm|Usage=FLASHONLY|Rotation=0.000|XOffset=0mm|YOffset=0mm|HoleType=Round|Shape=Relief|Width=0.254mm|Gap=0.254mm|Entries=4|*
%AMTHD94*
7,0,0,2.54400,2.03600,0.25400,45*
%
%ADD94THD94*%
%ADD95C,3.42600*%
%ADD96C,2.11600*%
%ADD97C,2.00600*%
G04:AMPARAMS|DCode=98|XSize=2.514mm|YSize=2.514mm|CornerRadius=0mm|HoleSize=0mm|Usage=FLASHONLY|Rotation=0.000|XOffset=0mm|YOffset=0mm|HoleType=Round|Shape=Relief|Width=0.254mm|Gap=0.254mm|Entries=4|*
%AMTHD98*
7,0,0,2.51400,2.00600,0.25400,45*
%
%ADD98THD98*%
G04:AMPARAMS|DCode=99|XSize=3.934mm|YSize=3.934mm|CornerRadius=0mm|HoleSize=0mm|Usage=FLASHONLY|Rotation=0.000|XOffset=0mm|YOffset=0mm|HoleType=Round|Shape=Relief|Width=0.254mm|Gap=0.254mm|Entries=4|*
%AMTHD99*
7,0,0,3.93400,3.42600,0.25400,45*
%
%ADD99THD99*%
G04:AMPARAMS|DCode=100|XSize=2.624mm|YSize=2.624mm|CornerRadius=0mm|HoleSize=0mm|Usage=FLASHONLY|Rotation=0.000|XOffset=0mm|YOffset=0mm|HoleType=Round|Shape=Relief|Width=0.254mm|Gap=0.254mm|Entries=4|*
%AMTHD100*
7,0,0,2.62400,2.11600,0.25400,45*
%
%ADD100THD100*%
G04:AMPARAMS|DCode=101|XSize=2.324mm|YSize=2.324mm|CornerRadius=0mm|HoleSize=0mm|Usage=FLASHONLY|Rotation=0.000|XOffset=0mm|YOffset=0mm|HoleType=Round|Shape=Relief|Width=0.254mm|Gap=0.254mm|Entries=4|*
%AMTHD101*
7,0,0,2.32400,1.81600,0.25400,45*
%
%ADD101THD101*%
%ADD102C,1.81600*%
%TA.AperFunction,ViaPad*%
%ADD103C,1.36600*%
G04:AMPARAMS|DCode=104|XSize=1.874mm|YSize=1.874mm|CornerRadius=0mm|HoleSize=0mm|Usage=FLASHONLY|Rotation=0.000|XOffset=0mm|YOffset=0mm|HoleType=Round|Shape=Relief|Width=0.254mm|Gap=0.254mm|Entries=4|*
%AMTHD104*
7,0,0,1.87400,1.36600,0.25400,45*
%
%ADD104THD104*%
D84*
X3822700Y1930400D02*
Y11468100D01*
X17741901D01*
Y1930400D02*
Y11468100D01*
X3822700Y1930400D02*
X17741901D01*
D85*
X8864000Y6578600D02*
D03*
X12979401Y4380900D02*
D03*
Y3670900D02*
D03*
X8839200Y7480300D02*
D03*
Y6770300D02*
D03*
X8801100Y5106000D02*
D03*
Y5816000D02*
D03*
X8559800Y5550500D02*
D03*
X12916499Y3225800D02*
D03*
X14884399Y5321300D02*
D03*
Y4611300D02*
D03*
Y4393600D02*
D03*
D86*
X8154000Y6578600D02*
D03*
X8559800Y6260500D02*
D03*
X13626500Y3225800D02*
D03*
X14884399Y3683600D02*
D03*
D87*
X9077960Y2255520D02*
D03*
X12410440D02*
D03*
D88*
X9784080Y2397760D02*
D03*
X10058400D02*
D03*
X10332720D02*
D03*
X10607039D02*
D03*
X10881359D02*
D03*
X11155679D02*
D03*
X11429999D02*
D03*
X11704319D02*
D03*
X9921241Y2113280D02*
D03*
X10195561D02*
D03*
X11292840D02*
D03*
X11567160D02*
D03*
D89*
X10469881D02*
D03*
X10744200D02*
D03*
X11018520D02*
D03*
D90*
X4148600Y8887800D02*
D03*
Y10201800D02*
D03*
D91*
X4419600Y9194800D02*
D03*
D92*
Y9444800D02*
D03*
Y9644800D02*
D03*
Y9894800D02*
D03*
D93*
X14068500Y10782600D02*
D03*
X14968500D02*
D03*
X5051500Y10668300D02*
D03*
X5951500D02*
D03*
X5351500Y10574300D02*
D03*
X5651500D02*
D03*
X5351500Y10274300D02*
D03*
X5651500D02*
D03*
X15944955Y10686100D02*
D03*
X16244955D02*
D03*
X16544955D02*
D03*
X15944955Y10386100D02*
D03*
X16244955D02*
D03*
X16544955D02*
D03*
X16844955Y10780100D02*
D03*
X15644955D02*
D03*
D94*
X14368500Y10688600D02*
D03*
X14668500D02*
D03*
X14368500Y10388600D02*
D03*
X14668500D02*
D03*
D95*
X14883501Y10538600D02*
D03*
X14153500D02*
D03*
X5866500Y10424300D02*
D03*
X5136500D02*
D03*
D96*
X4683658Y3895042D02*
D03*
Y4149042D02*
D03*
Y4403042D02*
D03*
X15519400Y8940800D02*
D03*
Y9448800D02*
D03*
X15333891Y3584348D02*
D03*
Y3838348D02*
D03*
Y4092348D02*
D03*
X16890509Y3584348D02*
D03*
X12410594Y3767094D02*
D03*
X8520670Y3900916D02*
D03*
X6197255Y3873500D02*
D03*
X6959600Y3898900D02*
D03*
Y4152900D02*
D03*
Y4406900D02*
D03*
X8520670Y4408916D02*
D03*
Y4154916D02*
D03*
X10858500Y4254500D02*
D03*
Y4000500D02*
D03*
Y3746500D02*
D03*
X12410594Y4021094D02*
D03*
Y4275094D02*
D03*
X16890509Y3838348D02*
D03*
Y4092348D02*
D03*
X6197255Y4127500D02*
D03*
Y4381500D02*
D03*
D97*
X8995200Y10063600D02*
D03*
X9445200D02*
D03*
Y10713600D02*
D03*
X8995200D02*
D03*
X8554600Y10410400D02*
D03*
X7904600D02*
D03*
Y9960400D02*
D03*
D98*
X8554600D02*
D03*
D99*
X16759955Y10536100D02*
D03*
X15729955D02*
D03*
D100*
X15519400Y9194800D02*
D03*
D101*
X16662399Y8906700D02*
D03*
X14643100Y9745600D02*
D03*
D102*
X16662399Y9406700D02*
D03*
X14643100Y9245600D02*
D03*
D103*
X4076700Y8318500D02*
D03*
X11861800Y10591800D02*
D03*
X11658600Y10604500D02*
D03*
X4603750Y8407400D02*
D03*
X12242800Y10439400D02*
D03*
X11226800Y7569200D02*
D03*
X10185400Y8013700D02*
D03*
X9956463Y8851840D02*
D03*
X10060409Y8688580D02*
D03*
X14198599Y5372100D02*
D03*
X14401801Y5308600D02*
D03*
X6553200Y5181600D02*
D03*
X10160000Y9613900D02*
D03*
X5613400Y7747000D02*
D03*
X10255634Y8363922D02*
D03*
X10033000Y8229600D02*
D03*
X11049000Y7772400D02*
D03*
X9639300Y8026400D02*
D03*
X9525000D02*
D03*
X8597900Y8509000D02*
D03*
X8737600Y8496300D02*
D03*
X8915400Y8470900D02*
D03*
X13754100Y4495800D02*
D03*
X13792200Y4584700D02*
D03*
X14135100Y8559800D02*
D03*
X8140700Y10629900D02*
D03*
X11379200Y10071100D02*
D03*
X10934700Y8928100D02*
D03*
X9893300Y8140700D02*
D03*
X8978900Y8318500D02*
D03*
X9398000Y8051800D02*
D03*
X9207500Y7964400D02*
D03*
X8991600Y7962900D02*
D03*
X8559800Y8597900D02*
D03*
X8509000Y8902700D02*
D03*
X8877300Y9105900D02*
D03*
X11012707Y8412235D02*
D03*
X10922800Y7429500D02*
D03*
X8191500Y9791700D02*
D03*
X8267700Y9690100D02*
D03*
X8242300Y9080500D02*
D03*
X8293100Y9207500D02*
D03*
X8369300Y9321800D02*
D03*
X9106185Y9397486D02*
D03*
X8928100Y9525000D02*
D03*
X8851900Y9652000D02*
D03*
X8699500Y9690100D02*
D03*
X8661400Y9156700D02*
D03*
X10591800Y9029700D02*
D03*
X10261600Y9004300D02*
D03*
X10210800Y7721600D02*
D03*
X10045700Y8026400D02*
D03*
X10071100Y7734300D02*
D03*
X10312400Y7620000D02*
D03*
X10477500D02*
D03*
X10316517Y7179617D02*
D03*
X8610600Y8204200D02*
D03*
X8420100Y8572500D02*
D03*
X8763000Y7888300D02*
D03*
X8610600Y8039100D02*
D03*
X8369300Y8293100D02*
D03*
Y7975600D02*
D03*
X8407400Y8991600D02*
D03*
X8191500Y8166100D02*
D03*
X8128000Y8369300D02*
D03*
X7988300Y8077200D02*
D03*
X7696200Y8051800D02*
D03*
X8039100Y8661400D02*
D03*
X9265700Y8866600D02*
D03*
X9375700D02*
D03*
X9485700D02*
D03*
X9595700D02*
D03*
X9705700D02*
D03*
X9265700Y8756600D02*
D03*
X9375700D02*
D03*
X9485700D02*
D03*
X9595700D02*
D03*
X9705700D02*
D03*
X9265700Y8646600D02*
D03*
X9375700D02*
D03*
X9485700D02*
D03*
X9595700D02*
D03*
X9705700D02*
D03*
X9265700Y8536600D02*
D03*
X9375700D02*
D03*
X9485700D02*
D03*
X9595700D02*
D03*
X9705700D02*
D03*
X9265700Y8426600D02*
D03*
X9375700D02*
D03*
X9485700D02*
D03*
X9595700D02*
D03*
X9705700D02*
D03*
X9093200Y9131300D02*
D03*
X14592300Y7124700D02*
D03*
X14516100D02*
D03*
X14185899D02*
D03*
X15887700Y6858000D02*
D03*
X15940045Y6805655D02*
D03*
X12230100Y6870700D02*
D03*
X14452600Y6400800D02*
D03*
X14554201Y5372100D02*
D03*
X14490700Y5422900D02*
D03*
X12839700Y5943600D02*
D03*
Y6019800D02*
D03*
X13268764Y4635791D02*
D03*
X13335001Y4597400D02*
D03*
X11747500Y6997700D02*
D03*
X5537200Y7861300D02*
D03*
X6057900Y7785100D02*
D03*
X5981700D02*
D03*
X9613900Y9372600D02*
D03*
X9855200Y9289136D02*
D03*
X9753600Y9398000D02*
D03*
X10769600Y7340600D02*
D03*
X9182100Y7505700D02*
D03*
X11074400Y9626600D02*
D03*
X11938992Y10414000D02*
D03*
X9575800Y9474200D02*
D03*
X11658600Y10337800D02*
D03*
X14681200Y7416800D02*
D03*
X14401801Y7543800D02*
D03*
X14274800D02*
D03*
X14516100Y6974316D02*
D03*
X11493500Y7061200D02*
D03*
X11582400Y6985000D02*
D03*
X10350500Y6731000D02*
D03*
X14008099Y5524500D02*
D03*
X12636500Y6184900D02*
D03*
X13830299Y5588000D02*
D03*
X14058900Y4864100D02*
D03*
X14135100Y4940300D02*
D03*
X10604500Y7391400D02*
D03*
X11036300Y7277100D02*
D03*
X12395200Y6794500D02*
D03*
X13804900Y9182100D02*
D03*
Y9258300D02*
D03*
X14030217Y7010400D02*
D03*
X14084300Y7239000D02*
D03*
X14147800Y7340600D02*
D03*
X14071600Y7454900D02*
D03*
X12471400Y6616700D02*
D03*
X12369800D02*
D03*
X11430000Y7810500D02*
D03*
X11264900Y7886700D02*
D03*
X12928600Y5562600D02*
D03*
X7480300Y8356600D02*
D03*
X7035800Y8280400D02*
D03*
X6896100Y8356600D02*
D03*
X7378599Y7204172D02*
D03*
X7289800Y7200900D02*
D03*
X7200900D02*
D03*
X13906500Y9112250D02*
D03*
Y9194800D02*
D03*
X14185899Y6819900D02*
D03*
X14897099Y7340600D02*
D03*
X14820900D02*
D03*
X14608043Y7416800D02*
D03*
X14630400Y7251700D02*
D03*
X14547388D02*
D03*
X9169400Y5130800D02*
D03*
X13296899Y5181600D02*
D03*
X15223276Y7046432D02*
D03*
X15278101Y7099300D02*
D03*
X15608299Y6623050D02*
D03*
Y6553200D02*
D03*
X15474734Y7041934D02*
D03*
X15519400Y7086600D02*
D03*
X14992123Y7041924D02*
D03*
X15049500Y7099300D02*
D03*
X14236700Y6680200D02*
D03*
X14185899Y6629400D02*
D03*
X14135100Y6769100D02*
D03*
X14630400Y5537200D02*
D03*
X10350500Y5588000D02*
D03*
X6311900Y7874000D02*
D03*
X6388100D02*
D03*
X7389900Y7786600D02*
D03*
X7340600Y7835900D02*
D03*
X5800929Y8039100D02*
D03*
X5969000Y8128000D02*
D03*
X5899559Y8039100D02*
D03*
X6045200Y8128000D02*
D03*
X6070600Y7962900D02*
D03*
X5981700D02*
D03*
X5803900Y7874000D02*
D03*
X5905500D02*
D03*
X5295900Y8140700D02*
D03*
X5384800D02*
D03*
X15798801Y7493000D02*
D03*
X15903085D02*
D03*
X6921500Y8547100D02*
D03*
X6997700D02*
D03*
X12344400Y6070600D02*
D03*
X12293600Y6019800D02*
D03*
X5232400Y8039100D02*
D03*
X5295900D02*
D03*
X5207000Y8216900D02*
D03*
X5162550Y8261350D02*
D03*
X4686300Y8407400D02*
D03*
X4229100Y8483600D02*
D03*
X4226615Y8560916D02*
D03*
X4038600Y8255000D02*
D03*
X13265150Y4508500D02*
D03*
X13195300D02*
D03*
X13893800Y4572000D02*
D03*
Y4648200D02*
D03*
X13512801Y4572000D02*
D03*
X13462000Y4622800D02*
D03*
X13309599Y5422900D02*
D03*
X14554201Y5537200D02*
D03*
X14338300Y5410200D02*
D03*
X14236700Y5503088D02*
D03*
X17220450Y5474450D02*
D03*
X17277600Y5417300D02*
D03*
X16807700Y5582402D02*
D03*
X16858501Y5531600D02*
D03*
X16502901Y5353800D02*
D03*
Y5423650D02*
D03*
X12242800Y5473700D02*
D03*
X6362700Y6807200D02*
D03*
Y6718300D02*
D03*
X9664700Y4140200D02*
D03*
Y4051300D02*
D03*
X8991600Y3975100D02*
D03*
Y3886200D02*
D03*
X9677400Y3759200D02*
D03*
X9753600D02*
D03*
X9658350Y5651500D02*
D03*
X10350500Y5295900D02*
D03*
Y3580099D02*
D03*
Y3670300D02*
D03*
X9690100Y6134100D02*
D03*
X9791700D02*
D03*
X8966200Y6184900D02*
D03*
Y6273800D02*
D03*
X12865100Y5626100D02*
D03*
X12560300Y5638800D02*
D03*
X12509948Y5696552D02*
D03*
X5061599Y7259533D02*
D03*
X4972800Y7256262D02*
D03*
X4883900D02*
D03*
X7531100Y4762500D02*
D03*
X7416800D02*
D03*
X6552556Y5313576D02*
D03*
X4191000Y5308600D02*
D03*
X5067300Y4749800D02*
D03*
X5156200D02*
D03*
X4191000Y5219700D02*
D03*
D104*
X13868401Y6286500D02*
D03*
X14643100Y6261100D02*
D03*
X14719299Y6705600D02*
D03*
X15519400Y5156200D02*
D03*
X16510001Y5168900D02*
D03*
X16230600Y5816600D02*
D03*
X14946658Y3047989D02*
D03*
X13398500Y3035300D02*
D03*
X10728470Y2939099D02*
D03*
X11705888Y4393556D02*
D03*
X13144791Y4821339D02*
D03*
X12928600Y6718300D02*
D03*
X14897099Y7670800D02*
D03*
X13614400Y8089900D02*
D03*
X15112585Y8290261D02*
D03*
X16178152Y8171000D02*
D03*
X16230005Y7745811D02*
D03*
X16092596Y8710267D02*
D03*
X16204080Y9972869D02*
D03*
X14036655Y9760271D02*
D03*
X12872568Y10317684D02*
D03*
X13352200Y9379155D02*
D03*
X10342800Y7797588D02*
D03*
X10677479Y7848941D02*
D03*
X11283118Y9354409D02*
D03*
X10951030Y9995279D02*
D03*
X9214848Y10399226D02*
D03*
X8242300Y10185400D02*
D03*
X7099300Y9994900D02*
D03*
X4914900Y9918700D02*
D03*
X5892800Y9398000D02*
D03*
X5384800Y8331200D02*
D03*
X5816600Y8547100D02*
D03*
X6701849Y8612546D02*
D03*
X7226300Y8686800D02*
D03*
X7937500Y7620000D02*
D03*
X8864600Y4356100D02*
D03*
X8384172Y3203727D02*
D03*
X7302500Y4254500D02*
D03*
X7785100Y4267200D02*
D03*
X8178800Y4572000D02*
D03*
X8120075Y5611073D02*
D03*
X8318500Y6375400D02*
D03*
X6032500Y6629400D02*
D03*
X5054600Y4267200D02*
D03*
X6184900Y3022600D02*
D03*
X4165600Y2476500D02*
D03*
Y3708400D02*
D03*
Y3289300D02*
D03*
Y2882900D02*
D03*
Y4927600D02*
D03*
Y4508500D02*
D03*
Y4102100D02*
D03*
X4191000Y6921500D02*
D03*
X4152900Y6565900D02*
D03*
Y6159500D02*
D03*
X4191000Y8140700D02*
D03*
Y7721600D02*
D03*
Y7315200D02*
D03*
Y10629900D02*
D03*
Y9804400D02*
D03*
X4940300Y11099800D02*
D03*
X4521200D02*
D03*
X4114800D02*
D03*
X6159500D02*
D03*
X5740400D02*
D03*
X5334000D02*
D03*
X7378700D02*
D03*
X6959600D02*
D03*
X6553200D02*
D03*
X8597900D02*
D03*
X8178800D02*
D03*
X7772400D02*
D03*
X9817100D02*
D03*
X9398000D02*
D03*
X8991600D02*
D03*
X11049000Y11125200D02*
D03*
X10617200Y11099800D02*
D03*
X10210800D02*
D03*
X12255500D02*
D03*
X11836400D02*
D03*
X11430000D02*
D03*
X13474699D02*
D03*
X13055600D02*
D03*
X12649200D02*
D03*
X14693900D02*
D03*
X14274800D02*
D03*
X13868401D02*
D03*
X15913100D02*
D03*
X15494000D02*
D03*
X15087601D02*
D03*
X17132300D02*
D03*
X16713200D02*
D03*
X16306799D02*
D03*
X17310100Y9931400D02*
D03*
Y10350500D02*
D03*
Y10756900D02*
D03*
Y8712200D02*
D03*
Y9131300D02*
D03*
Y9537700D02*
D03*
Y7493000D02*
D03*
Y7912100D02*
D03*
Y8318500D02*
D03*
Y6273800D02*
D03*
Y6692900D02*
D03*
Y7099300D02*
D03*
Y5054600D02*
D03*
Y5880100D02*
D03*
Y3835400D02*
D03*
Y4254500D02*
D03*
Y4660900D02*
D03*
Y2616200D02*
D03*
Y3035300D02*
D03*
Y3441700D02*
D03*
X16548100Y2298700D02*
D03*
X16967200D02*
D03*
X17373599D02*
D03*
X15328900D02*
D03*
X15748000D02*
D03*
X16154401D02*
D03*
X14109700D02*
D03*
X14528799D02*
D03*
X14935201D02*
D03*
X12890500D02*
D03*
X13309599D02*
D03*
X13716000D02*
D03*
X8216900Y2260600D02*
D03*
X8636000D02*
D03*
X6997700D02*
D03*
X7416800D02*
D03*
X7823200D02*
D03*
X5778500D02*
D03*
X6197600D02*
D03*
X6604000D02*
D03*
X5384800D02*
D03*
X4978400D02*
D03*
X4559300D02*
D03*
X4165600D02*
D03*
X6235700Y5575300D02*
D03*
X15334161Y4615100D02*
D03*
X10944239Y4872579D02*
D03*
X4584700Y10782300D02*
D03*
X6302549Y6118183D02*
D03*
X17119600Y6604000D02*
D03*
X6680395Y10781972D02*
D03*
X6597323Y7540150D02*
D03*
X16497301Y7073900D02*
D03*
X13284200Y8470900D02*
D03*
X9334500Y9804400D02*
D03*
X14897099Y10236200D02*
D03*
X14147800Y10223500D02*
D03*
%TF.MD5,7586580afa7eb057d35894579f85b608*%
M02*
